<?xml version="1.0" encoding="UTF-8" standalone="no"?>
<!-- Creator: CorelDRAW 2018 (64 Bit) -->

<svg
   xml:space="preserve"
   width="105.83334mm"
   height="105.83334mm"
   version="1.1"
   style="clip-rule:evenodd;fill-rule:evenodd;image-rendering:optimizeQuality;shape-rendering:geometricPrecision;text-rendering:geometricPrecision"
   viewBox="0 0 10583.334 10583.334"
   id="svg58"
   sodipodi:docname="bee.svg"
   inkscape:version="1.3 (0e150ed6c4, 2023-07-21)"
   xmlns:inkscape="http://www.inkscape.org/namespaces/inkscape"
   xmlns:sodipodi="http://sodipodi.sourceforge.net/DTD/sodipodi-0.dtd"
   xmlns="http://www.w3.org/2000/svg"
   xmlns:svg="http://www.w3.org/2000/svg"><sodipodi:namedview
   id="namedview58"
   pagecolor="#ffffff"
   bordercolor="#000000"
   borderopacity="0.25"
   inkscape:showpageshadow="2"
   inkscape:pageopacity="0.0"
   inkscape:pagecheckerboard="0"
   inkscape:deskcolor="#d1d1d1"
   inkscape:document-units="mm"
   inkscape:zoom="1.3844562"
   inkscape:cx="191.77205"
   inkscape:cy="214.16352"
   inkscape:window-width="1920"
   inkscape:window-height="991"
   inkscape:window-x="-9"
   inkscape:window-y="-9"
   inkscape:window-maximized="1"
   inkscape:current-layer="Camada_x0020_1" />&#10; <defs
   id="defs1">&#10;  <style
   type="text/css"
   id="style1">&#10;   <![CDATA[
    .fil0 {fill:none}
    .fil10 {fill:#FEFEFE}
    .fil5 {fill:#FFF8AF}
    .fil4 {fill:#FFDD21}
    .fil3 {fill:#FFCC29}
    .fil9 {fill:#E5AA2D}
    .fil11 {fill:#F8AC92}
    .fil6 {fill:#91D8F7}
    .fil7 {fill:#85C5E2}
    .fil8 {fill:#201E1E}
    .fil1 {fill:#FFCC29;fill-rule:nonzero}
    .fil2 {fill:black;fill-rule:nonzero}
   ]]>&#10;  </style>&#10; </defs>&#10; <g
   id="Camada_x0020_1"
   inkscape:label="Camada 1"
   inkscape:groupmode="layer">&#10;  <metadata
   id="CorelCorpID_0Corel-Layer" />&#10;  <rect
   class="fil0"
   width="21000"
   height="21000"
   id="rect1"
   x="0"
   y="0" />&#10;  &#10;  &#10;  <g
   id="_2060509576896"
   transform="matrix(0.70298971,0,0,0.70298971,-2822.5398,-1096.0812)">&#10;   <path
   class="fil2"
   d="m 11923.55,6500.02 c 16,25.09 17.92,50.68 4.26,57.1 -13.65,6.43 -37.72,-8.72 -53.72,-33.82 -1.12,-1.75 -393.21,-600.43 -515.31,-1882.53 -121.41,-1274.83 -37.91,-1421.5 -37.68,-1421.94 7.58,-14.28 29.59,-8.43 49.12,13.06 19.53,21.49 29.23,50.51 21.65,64.79 -0.21,0.42 -76.93,134.13 42.68,1390.07 118.92,1248.68 487.94,1811.61 489,1813.27 z"
   id="path3" />&#10;   <path
   class="fil3"
   d="m 11969.09,1771.41 c 582.39,0 1054.5,472.1 1054.5,1054.49 0,582.39 -472.11,1054.5 -1054.5,1054.5 -582.39,0 -1054.5,-472.11 -1054.5,-1054.5 0,-582.39 472.11,-1054.49 1054.5,-1054.49 z"
   id="path4" />&#10;   <path
   class="fil4"
   d="m 12315.11,1911.54 c 384.7,105.51 642.39,388.52 575.58,632.12 -66.81,243.61 -432.83,355.55 -817.53,250.04 -384.7,-105.52 -642.39,-388.52 -575.58,-632.13 66.81,-243.6 432.83,-355.54 817.53,-250.03 z"
   id="path5" />&#10;   <path
   class="fil2"
   d="m 11925.22,1677.83 c 311.19,0 598.18,131.39 810.61,343.81 224.73,224.73 363.76,528.63 363.76,858.31 0,305.27 -122.01,579.94 -319.26,777.2 -195.76,195.74 -467.02,316.84 -767.37,316.84 -311.19,0 -598.18,-131.42 -810.61,-343.82 -224.73,-224.74 -363.76,-528.63 -363.76,-858.32 0,-305.27 122,-579.93 319.26,-777.18 195.74,-195.76 467.03,-316.84 767.37,-316.84 z m 768.42,461.05 C 12524.41,1969.66 12284.15,1865 12012.96,1865 c -282.04,0 -538.05,114.98 -723.91,300.85 -184.39,184.37 -298.44,437 -298.44,714.1 0,252.69 97.06,476.1 253.93,632.99 169.21,169.21 409.49,273.88 680.68,273.88 282.03,0 538.04,-114.99 723.91,-300.85 184.38,-184.39 298.44,-437.01 298.44,-714.12 0,-252.69 -97.06,-476.1 -253.93,-632.97 z"
   id="path6" />&#10;   <path
   class="fil5"
   d="m 12359.94,1979.97 c 155.02,0 280.68,125.66 280.68,280.68 0,155.01 -125.66,280.68 -280.68,280.68 -155.02,0 -280.68,-125.67 -280.68,-280.68 0,-155.02 125.66,-280.68 280.68,-280.68 z"
   id="path7" />&#10;   <path
   class="fil2"
   d="m 12348.98,1956.58 c 82.5,0 158.54,34.77 214.72,90.94 59.26,59.27 95.93,139.51 95.93,226.62 0,81.01 -32.43,153.97 -84.82,206.37 -52.02,52.02 -124.1,84.21 -203.89,84.21 -82.5,0 -158.55,-34.77 -214.73,-90.95 -59.26,-59.27 -95.93,-139.51 -95.93,-226.64 0,-81 32.43,-153.96 84.82,-206.35 52,-52 124.11,-84.2 203.9,-84.2 z m 204.16,120.25 c -45.38,-45.37 -109.72,-73.46 -182.22,-73.46 -75.22,0 -143.51,30.66 -193.05,80.2 -49.18,49.18 -79.61,116.6 -79.61,190.57 0,67.89 26.18,128 68.49,170.32 45.37,45.38 109.73,73.47 182.23,73.47 75.22,0 143.51,-30.67 193.03,-80.21 49.18,-49.18 79.61,-116.6 79.61,-190.59 0,-67.87 -26.18,-128 -68.48,-170.3 z"
   id="path8" />&#10;   <path
   class="fil6"
   d="m 11292.92,15520.61 c 379.02,1326.73 3932.5,1288.5 2502.05,-818.21 -652.19,-960.51 -1885.44,-415.03 -1885.44,-415.03 z"
   id="path9" />&#10;   <path
   class="fil7"
   d="m 11292.91,15520.61 c 104.71,366.54 451.88,628.66 869.16,771.99 1032.38,168.49 2172.55,-330.84 1252.95,-1685.18 -160.02,-235.67 -355.05,-380.54 -558.24,-465.19 -498.95,-53.02 -947.25,145.14 -947.25,145.14 z"
   id="path10" />&#10;   <path
   class="fil2"
   d="m 11359.12,15566.96 c 148.8,452.1 751.99,721.6 1348.89,768.95 275.48,21.84 548.95,-5.06 778.34,-84.33 227.73,-78.69 411.22,-208.61 508.67,-393.06 137.9,-261.01 100.65,-635.3 -237.28,-1132.98 -578.95,-852.65 -1692.44,-410.21 -1794.15,-367.52 z m 1414.55,920.76 c -674.33,-53.48 -1365.6,-396 -1536.95,-980.95 -6.65,-19.28 -7.76,-37.2 -1.72,-49.12 l 616.61,-1233.23 c 2.62,-4.9 6.39,-8.7 11.41,-10.93 3.65,-1.58 1270.92,-562.59 1969.17,465.78 391.22,576.18 435.62,1007.07 277.82,1305.75 -103.75,196.41 -296.28,333.75 -534.14,415.94 -236.19,81.62 -518.04,109.29 -802.2,86.76 z"
   id="path11" />&#10;   <path
   class="fil6"
   d="m 12283.99,15105.13 c 0,0 1685.68,827.61 3578.71,-252.07 1893.02,-1079.67 2480.66,-2577.54 1261.1,-3686.23 -1219.56,-1108.67 -5292.81,1764.24 -5292.81,1764.24 z"
   id="path12" />&#10;   <path
   class="fil7"
   d="m 12283.98,15105.12 c 0,0 1685.69,827.62 3578.72,-252.05 361.63,-206.25 675.43,-427.8 938.29,-658.94 489.24,-783.63 418.67,-1606.03 -326.27,-2283.23 -901.79,-819.81 -3363.56,537.25 -4585.38,1300.18 z"
   id="path13" />&#10;   <path
   class="fil2"
   d="m 12328.95,15061.01 c 310.62,131.37 1810.71,674.25 3485.17,-280.77 519.58,-296.34 940.41,-624.31 1251.96,-967.02 322.69,-354.96 527.34,-724.87 602.17,-1090.8 72.39,-353.95 22.69,-700.55 -160.23,-1021.27 -94.43,-165.58 -226.01,-327.02 -396.35,-481.87 -1138.33,-1034.84 -4936.34,1578.51 -5213.97,1771.95 z m 3582.33,-135.11 c -1866.56,1064.56 -3536.58,286.38 -3610.71,250.94 l -1.81,-0.81 c -33.09,-15.25 -66.55,-59.38 -74.71,-98.54 l -452.99,-2174.05 c -4.08,-19.93 -1.11,-36.5 9.79,-44.12 11.78,-8.25 4096.06,-2889.49 5355.07,-1744.93 195.62,177.83 348.66,366.62 460.81,563.28 212.56,372.68 272.69,763.73 193.02,1153.32 -77.22,377.65 -286.54,757.34 -615.91,1119.64 -314.27,345.7 -738.65,676.47 -1262.56,975.27 z"
   id="path14" />&#10;   <path
   class="fil6"
   d="m 7033.65,13958.82 c -3279.57,236.96 -3617.76,-5168.07 -1162.63,-3278.84 920.22,708.11 1798.27,2401.65 1798.27,2401.65 z"
   id="path15" />&#10;   <path
   class="fil7"
   d="m 7033.65,13958.82 c -1109.99,80.2 -1882.57,-486.12 -2324.41,-1196.97 -119.37,-1017.67 415.41,-1781.94 1589.22,-878.71 445.56,342.85 881.2,916.72 1212.11,1417.52 z"
   id="path16" />&#10;   <path
   class="fil2"
   d="m 7070.72,14034.95 c -1310.39,94.29 -2171.6,-701.38 -2585.98,-1594.35 -218.17,-470.12 -309.15,-965.97 -274.25,-1370.47 34.82,-403.67 195.13,-718.09 479.53,-826.49 278.31,-106.08 673.69,-16.29 1184.6,376.84 947.25,728.88 1839.39,2449.88 1841.99,2454.84 16.08,30.75 18.49,58.78 8.23,72.84 l 0.1,0.1 -635.63,877.18 c -4.46,6.11 -10.92,9.19 -18.59,9.51 z m -2484.74,-1594 c 374.85,807.77 1169.44,1526.51 2398.34,1442.49 l 611.78,-844.25 c -149.22,-278.42 -924.96,-1681.25 -1728.67,-2299.69 -469.72,-361.44 -832.19,-444.4 -1086.49,-347.48 -265.06,101.03 -414.65,396.1 -447.38,775.47 -32.67,378.56 51.04,839.51 252.42,1273.46 z"
   id="path17" />&#10;   <path
   class="fil6"
   d="m 7383.08,12781.13 c 0,0 -2151.11,-486.91 -2950.08,-3962.05 -798.97,-3475.14 1986.29,-5716.76 3406.44,-4364.65 1420.15,1352.11 2054.19,6728.4 2054.19,6728.4 z"
   id="path18" />&#10;   <path
   class="fil7"
   d="m 7383.08,12781.12 c 0,0 -485.71,-110.22 -1081.22,-598.41 -474.75,-477.82 -981.65,-1257.39 -1271.33,-2517.37 -653.69,-2843.21 1625.11,-4677.21 2786.99,-3570.98 1032.93,983.42 1557.54,4568.6 1661.29,5352.56 z"
   id="path19" />&#10;   <path
   class="fil2"
   d="m 7409.08,12855.92 c -6.37,-1.51 -2216.99,-501.99 -3035.61,-4062.63 -293.53,-1276.69 -110.61,-2387.08 310.27,-3218.32 256.59,-506.75 602.12,-910.39 982.15,-1184.88 381.12,-275.28 797.43,-420.7 1194.23,-410.21 356.43,9.43 700.15,144.8 993.93,424.5 1461.48,1391.46 2098.79,6798.03 2100.67,6813.62 2.2,18.23 -2.4,30.96 -11.66,36.91 l -2510.47,1598.4 c -6.36,4.1 -14.5,4.79 -23.51,2.61 z M 4492.54,8844.86 c 743.17,3232.5 2668.52,3810.1 2850.63,3857.95 l 2486.04,-1582.68 c -49.94,-407.12 -680.72,-5355.41 -2004.39,-6615.67 -257.18,-244.85 -567.21,-363.63 -894.93,-372.28 -385.17,-10.19 -790.71,132.01 -1163.3,401.13 -373.7,269.93 -713.89,667.63 -967.02,1167.57 -412.74,815.14 -592.9,1900.56 -307.03,3143.98 z"
   id="path20" />&#10;   <polygon
   class="fil8"
   points="7104.65,14057.34 7242.57,14409.79 7426.46,14792.9 5449.62,14057.34 "
   id="polygon20" />&#10;   <path
   class="fil2"
   d="m 7306.39,14412.99 181.51,378.15 c 24.87,51.8 17.53,94.59 -16.39,95.55 -7.43,0.21 -15.52,-1.61 -23.9,-5.11 l -1973.78,-734.43 c -39.84,-14.8 -83.01,-67.05 -96.37,-116.64 -11.45,-42.53 2.7,-69.31 32.09,-66.76 h 1651.23 c 34.27,-0.07 81.71,41.77 105.93,93.45 l 4.61,10.68 z m -2.97,253.32 -122.29,-254.76 -5.25,-12.3 -97.18,-248.33 H 5918.32 Z"
   id="path21" />&#10;   <path
   class="fil3"
   d="m 12236.03,12340.39 c 555.51,-161.83 1155.78,221.65 1340.73,856.54 85.44,293.29 488.56,2177.08 -413.81,2439.95 -917.42,267.26 -1501.67,-1523.63 -1597.89,-1853.92 -184.95,-634.88 115.46,-1280.74 670.97,-1442.57 z"
   id="path22" />&#10;   <path
   class="fil9"
   d="m 12236.01,12340.39 c 22.14,-6.46 44.36,-11.94 66.62,-16.68 -265.6,285.51 -373.06,734 -243.95,1177.18 91.22,313.14 621.12,1938.8 1457.7,1879.11 -85.77,121.58 -200.89,212.46 -353.43,256.89 -917.44,267.25 -1501.67,-1523.64 -1597.89,-1853.94 -184.95,-634.87 115.47,-1280.73 670.95,-1442.56 z"
   id="path23" />&#10;   <path
   class="fil2"
   d="m 12231.96,12284.85 c 318.16,-92.68 639.32,-35.47 901.35,131.91 248.67,158.88 449.78,418.9 544.5,742.45 l 0.27,-0.11 c 0.79,2.09 1.29,4.21 1.56,6.39 44.12,153.91 164.8,696.73 163.48,1235.08 -1.41,565.68 -146.01,1131.61 -667.59,1289.24 -5.53,1.87 -11.02,3.49 -16.45,4.84 -383.26,107.94 -698.73,-71.9 -949.51,-362.86 -422.46,-490.16 -684.34,-1300.9 -746.1,-1512.94 -94.72,-325.15 -64.6,-654.32 60.65,-923.63 134.35,-288.83 380.95,-515.14 707.84,-610.37 z m 725.44,238.18 c -223.22,-142.6 -479.99,-196.25 -717.33,-127.11 -228.56,66.59 -409.97,244.18 -518.46,477.42 -117.57,252.77 -145.18,564.01 -54.95,873.71 61.05,209.58 319.68,1010.69 734.81,1492.35 222.07,257.65 480.44,422.48 757.17,342.02 l 0.29,-0.08 c 373.7,-108.87 477.27,-613.1 478.54,-1125.18 1.31,-532.57 -117.75,-1068.13 -161.15,-1219.28 l -0.87,-2.08 0.24,-0.14 -0.51,-1.78 c -90.44,-310.49 -281.72,-559.04 -517.78,-709.85 z"
   id="path24" />&#10;   <path
   class="fil3"
   d="m 9893.66,10869.88 c 1658.83,0 3003.56,1204.09 3003.56,2689.42 0,1485.32 -1344.73,2689.41 -3003.56,2689.41 -1658.82,0 -3003.55,-1204.09 -3003.55,-2689.41 0,-1485.33 1344.73,-2689.42 3003.55,-2689.42 z"
   id="path25" />&#10;   <path
   class="fil9"
   d="m 12721.58,14467.24 c -415.94,1038.52 -1524.96,1781.48 -2827.91,1781.48 -1220.21,0 -2270.41,-651.56 -2740.51,-1587.29 415.94,-1038.54 1524.96,-1781.48 2827.91,-1781.48 1220.21,0 2270.42,651.56 2740.51,1587.29 z"
   id="path26" />&#10;   <path
   class="fil2"
   d="m 9849.8,10776.29 c 846.85,0 1618.53,311.82 2181.51,815.93 581.96,521.1 941.93,1236 941.93,2021.13 0,757.3 -340.63,1440.98 -891.33,1934.08 -548.48,491.1 -1306.61,794.87 -2144.37,794.87 -846.84,0 -1618.53,-311.82 -2181.51,-815.93 -581.97,-521.08 -941.94,-1235.99 -941.94,-2021.12 0,-757.31 340.63,-1440.99 891.33,-1934.09 548.48,-491.1 1306.63,-794.87 2144.38,-794.87 z m 2153.91,946.67 c -524.06,-469.25 -1254.21,-759.5 -2066.17,-759.5 -821.03,0 -1564.72,298.3 -2103.32,780.56 -536.35,480.24 -868.11,1141.32 -868.11,1869.33 0,700.18 312.43,1330.02 817.53,1782.28 524.05,469.25 1254.21,759.5 2066.16,759.5 821.04,0 1564.71,-298.3 2103.31,-780.55 536.35,-480.25 868.11,-1141.33 868.11,-1869.33 0,-700.18 -312.43,-1330.02 -817.51,-1782.29 z"
   id="path27" />&#10;   <path
   class="fil8"
   d="m 9893.66,10869.88 c 1658.83,0 3003.56,1204.09 3003.56,2689.42 0,1101.81 -740.05,2048.69 -1799.29,2464.3 -243.49,65.25 -498.39,100.04 -760.97,100.04 -1712.33,0 -3100.44,-1473.92 -3100.44,-3292.08 0,-210.25 18.77,-415.79 54.25,-615.08 519.04,-804.9 1490.29,-1346.6 2602.89,-1346.6 z"
   id="path28" />&#10;   <path
   class="fil2"
   d="m 9871.74,10823.09 c 838.12,0 1599.41,306.42 2152.67,801.81 562.74,503.9 910.83,1197.54 910.83,1961.43 0,548.29 -180.68,1057.82 -491.44,1483.45 -319.73,437.89 -777.44,787.63 -1317.68,999.59 -1.21,0.48 -2.5,0.79 -3.83,0.97 -123.07,32.87 -248.9,58.02 -376.92,74.85 -126.63,16.64 -255.62,25.24 -386.47,25.24 -1745.45,0 -3160.38,-1506.97 -3160.38,-3365.9 0,-105.5 4.64,-209.63 13.68,-312.12 9.24,-104.74 22.99,-207.72 40.95,-308.66 0.7,-3.91 2.12,-7.02 4.12,-9.32 265.48,-410.9 648.02,-753.38 1106.62,-990.63 443.46,-229.4 958.42,-360.71 1507.85,-360.71 z m 2138.87,867.18 c -533.8,-477.96 -1274.32,-773.61 -2095,-773.61 -543.55,0 -1053.43,130.12 -1492.86,357.44 -454.01,234.88 -832.51,573.39 -1095.1,979.2 -17.45,98.74 -30.77,198.65 -39.65,299.49 -8.89,100.87 -13.47,202.9 -13.47,305.79 0,1777.39 1361.27,3218.28 3040.5,3218.28 129.2,0 256.56,-8.48 381.55,-24.92 126.99,-16.68 251.45,-41.56 372.84,-73.98 l 0.33,-0.14 c 535.48,-210.09 988.98,-556.5 1305.54,-990.05 306.03,-419.13 483.93,-919.17 483.93,-1455.49 0,-721.42 -324.31,-1372.53 -848.61,-1842.01 z"
   id="path29" />&#10;   <path
   class="fil3"
   d="m 9893.66,10869.88 c 1658.83,0 3003.56,1204.09 3003.56,2689.42 0,529.26 -170.85,1022.73 -465.7,1438.83 -348.76,144.28 -728.12,223.57 -1124.97,223.57 -1712.34,0 -3100.44,-1473.92 -3100.44,-3292.09 0,-215.15 19.66,-425.39 56.77,-629.03 469.63,-272.42 1029.54,-430.7 1630.78,-430.7 z"
   id="path30" />&#10;   <path
   class="fil9"
   d="m 12721.61,14467.3 c -75.11,187.44 -172.78,365.27 -290.09,530.83 -348.76,144.29 -728.13,223.57 -1124.97,223.57 -1270.95,0 -2363.09,-812.12 -2841.76,-1974.19 445.07,-233.54 963.16,-367.56 1516.28,-367.56 1220.24,0 2270.45,651.58 2740.54,1587.35 z"
   id="path31" />&#10;   <path
   class="fil2"
   d="m 9849.8,10776.29 c 846.85,0 1618.53,311.82 2181.51,815.93 581.96,521.1 941.93,1236 941.93,2021.13 0,266.93 -42.18,524.43 -120.84,767.45 -81,250.27 -200.42,485.16 -352.03,699.08 -3.93,5.54 -9.15,9.12 -15.33,10.86 -177.9,73.37 -363.17,129.96 -554.04,167.88 -187.15,37.19 -381.2,56.66 -580.58,56.66 -1778.55,0 -3220.32,-1540.01 -3220.32,-3439.71 0,-109.36 4.9,-216.9 14.41,-322.39 9.69,-107.21 24.23,-213.38 43.32,-318.16 2.29,-12.59 8.36,-20.95 17,-25.07 240.45,-139.22 504.34,-248.85 785.16,-323.03 272.56,-71.98 561.13,-110.63 859.81,-110.63 z m 2153.91,946.67 c -524.06,-469.25 -1254.21,-759.5 -2066.17,-759.5 -292.37,0 -574.92,37.86 -841.82,108.33 -271.84,71.79 -527.5,177.42 -760.84,311.36 -16.84,95.2 -29.85,192.21 -38.75,290.81 -9.25,102.52 -14,205.85 -14,309.71 0,1736.61 1334.43,3144.44 2980.55,3144.44 192.43,0 381.73,-19.19 566.19,-55.85 186.37,-37.02 366.36,-91.73 538.32,-162.3 146.03,-207.36 260.76,-433.42 338.24,-672.79 75.37,-232.88 115.79,-478.49 115.79,-731.92 0,-700.18 -312.43,-1330.02 -817.51,-1782.29 z"
   id="path32" />&#10;   <path
   class="fil2"
   d="m 14593.03,6860.14 c -1.84,16.41 -24.11,18.69 -49.71,5.1 -25.59,-13.58 -44.87,-37.91 -43.03,-54.32 54.54,-497.57 391.14,-895.76 815.65,-1198.64 664.82,-474.36 1547.72,-715.71 1896.74,-738.2 19.87,-1.33 49.08,14.79 65.24,35.99 16.15,21.21 13.14,39.51 -6.73,40.83 -343.94,22.15 -1215.58,261.13 -1874.4,731.21 -418.54,298.61 -750.29,690.23 -803.76,1178.03 z"
   id="path33" />&#10;   <path
   class="fil3"
   d="m 10143.07,11258.09 c 164.15,554.84 -216.82,1156.7 -850.93,1344.3 -292.93,86.67 -2175.02,497.66 -2441.66,-403.61 -271.09,-916.3 1517.34,-1508.02 1847.23,-1605.62 634.1,-187.6 1281.21,110.1 1445.36,664.93 z"
   id="path34" />&#10;   <path
   class="fil9"
   d="m 10150.35,11284.1 c 144.9,547.5 -234,1133.61 -858.21,1318.28 -292.94,86.68 -2175.01,497.67 -2441.67,-403.61 -55.98,-189.23 -23.96,-364.56 64.75,-524.62 344.49,806.09 2130.67,415.55 2415.43,331.28 394.99,-116.86 691.72,-394.48 819.7,-721.33 z"
   id="path35" />&#10;   <path
   class="fil2"
   d="m 10200.56,11260.65 c 91.18,315.51 34.98,634.19 -130.12,895.02 -157.83,249.34 -417,451.53 -740.14,547.6 l 0.09,0.27 c -2.08,0.79 -4.17,1.3 -6.32,1.57 -153.67,44.77 -696.02,167.76 -1234.45,168.65 -565.75,0.96 -1132.37,-141.31 -1292.08,-662.4 -2,-5.86 -3.71,-11.67 -5.14,-17.4 -147.03,-517.04 242.85,-919 713.75,-1203.61 455.57,-275.38 985.55,-448.31 1153.34,-498.07 l -0.09,-0.26 c 2.15,-0.81 4.27,-1.32 6.44,-1.59 323.31,-94.49 650.83,-65.47 919.44,58.1 287.54,132.28 513.77,375.63 611.41,699.02 1.45,4.39 2.74,8.77 3.87,13.1 z m -237.11,719.58 c 141.6,-223.72 194.16,-480.57 124.19,-717.53 l -0.11,-0.35 c -67.53,-228.27 -245.87,-408.93 -479.56,-516.44 -252.16,-116.02 -561.97,-142.57 -870.01,-52.43 l -1.97,0.84 -0.19,-0.22 -1.73,0.5 c -164.31,48.61 -691.29,220.1 -1142.91,493.08 -434.39,262.55 -800.6,610.81 -685.74,1004.7 l 1.29,4.34 c 111.78,371.44 615.39,472.5 1126.46,471.64 532.6,-0.88 1067.76,-122.25 1218.67,-166.26 l 2.01,-0.87 0.14,0.25 1.77,-0.53 c 310.13,-91.75 557.87,-284.04 707.69,-520.72 z"
   id="path36" />&#10;   <path
   class="fil3"
   d="m 12586.2,6047.86 c 2205.92,-75.73 3994.18,1721.97 3994.18,4015.25 0,2293.28 -1788.26,4213.75 -3994.18,4289.47 -2205.91,75.72 -3994.17,-1721.97 -3994.17,-4015.25 0,-2293.28 1788.26,-4213.75 3994.17,-4289.47 z"
   id="path37" />&#10;   <path
   class="fil9"
   d="m 16544.81,10618.98 c -260.81,2039.95 -1933.62,3664.1 -3958.62,3733.6 -2205.9,75.72 -3994.16,-1721.97 -3994.16,-4015.26 0,-1818.82 1124.97,-3402.95 2690.91,-4018.42 -1049.96,692.79 -1752.45,1912.92 -1752.45,3279.64 0,2073.68 1617.01,3699.21 3611.69,3630.76 1569.05,-53.86 2904.18,-1139.98 3402.63,-2610.32 z"
   id="path38" />&#10;   <path
   class="fil2"
   d="m 12515.53,5901.5 c 42.29,-1.44 87.75,-2.17 136.34,-2.17 1079.1,0 2061.24,443.98 2788.47,1173.18 744.21,746.24 1216.79,1773.65 1256.13,2919.79 1.78,52 2.69,103.78 2.69,155.27 0,1167.54 -452.91,2237.72 -1185.17,3024.11 -730.5,784.52 -1740.62,1288.94 -2857.13,1327.26 -42.28,1.44 -87.74,2.17 -136.32,2.17 -1079.09,0 -2061.24,-443.98 -2788.48,-1173.2 -744.2,-746.22 -1216.8,-1773.64 -1256.13,-2919.8 -1.78,-51.97 -2.69,-103.77 -2.69,-155.24 0,-1167.56 452.92,-2237.74 1185.17,-3024.1 730.5,-784.52 1740.61,-1288.95 2857.12,-1327.27 z m 273.46,290.27 c -40.53,0 -84.6,0.82 -132.13,2.44 -1089.38,37.39 -2076.38,531.08 -2791.46,1299.04 -713.35,766.07 -1154.58,1802.8 -1154.58,2928.53 0,49.31 0.83,97.9 2.47,145.7 35.29,1028.53 443.59,1934.7 1085.46,2578.31 658.86,660.65 1568.11,1062.88 2584.67,1062.88 40.52,0 84.59,-0.82 132.11,-2.44 1089.39,-37.39 2076.39,-531.1 2791.47,-1299.03 713.36,-766.09 1154.58,-1802.82 1154.58,-2928.54 0,-49.32 -0.84,-97.92 -2.47,-145.73 -35.31,-1028.53 -443.59,-1934.68 -1085.46,-2578.3 -658.84,-660.62 -1568.08,-1062.86 -2584.66,-1062.86 z"
   id="path39" />&#10;   <path
   class="fil4"
   d="m 13484.88,6467.25 c 1717.38,240.08 2977.89,1714.28 2815.41,3292.71 -162.48,1578.44 -1686.42,2663.4 -3403.8,2423.32 -1717.39,-240.07 -2977.89,-1714.27 -2815.41,-3292.71 162.48,-1578.44 1686.41,-2663.4 3403.8,-2423.32 z"
   id="path40" />&#10;   <path
   class="fil8"
   d="m 12613.58,7780.47 c 346.74,0 627.84,291.37 627.84,650.8 0,359.44 -281.1,650.81 -627.84,650.81 -346.74,0 -627.83,-291.37 -627.83,-650.81 0,-359.43 281.09,-650.8 627.83,-650.8 z"
   id="path41" />&#10;   <path
   class="fil10"
   d="m 12429.46,7890.66 c 130.95,0 237.11,110.04 237.11,245.78 0,135.74 -106.16,245.78 -237.11,245.78 -130.95,0 -237.11,-110.04 -237.11,-245.78 0,-135.74 106.16,-245.78 237.11,-245.78 z"
   id="path42" />&#10;   <path
   class="fil10"
   d="m 12846.43,8776.95 c 37.94,0 68.7,31.89 68.7,71.22 0,39.33 -30.76,71.21 -68.7,71.21 -37.94,0 -68.7,-31.88 -68.7,-71.21 0,-39.33 30.76,-71.22 68.7,-71.22 z"
   id="path43" />&#10;   <path
   class="fil8"
   d="m 14688.84,7876.97 c 183.97,0 374.24,319.96 424.97,714.67 50.74,394.7 -57.27,714.67 -241.24,714.67 -183.97,0 -374.24,-319.97 -424.98,-714.67 -50.73,-394.71 57.28,-714.67 241.25,-714.67 z"
   id="path44" />&#10;   <path
   class="fil10"
   d="m 14765.64,8007.32 c 68.28,-9.36 155.17,99.71 194.08,243.62 38.91,143.91 15.1,268.16 -53.18,277.52 -68.28,9.36 -155.17,-99.71 -194.08,-243.63 -38.91,-143.91 -15.1,-268.16 53.18,-277.51 z"
   id="path45" />&#10;   <path
   class="fil10"
   d="m 14678.98,8983.77 c 25.21,-3.46 57.29,36.81 71.66,89.95 14.36,53.13 5.57,99 -19.64,102.46 -25.21,3.45 -57.29,-36.82 -71.66,-89.95 -14.36,-53.13 -5.57,-99.01 19.64,-102.46 z"
   id="path46" />&#10;   <path
   class="fil2"
   d="m 11517.47,10126.73 c -4.73,-45.39 25.31,-62.03 67.07,-37.17 41.76,24.87 79.47,81.84 84.2,127.23 0.15,1.45 46.43,503.66 684.35,909.61 667.68,424.88 971.29,9.99 972.17,8.82 18.58,-24.69 64.19,-7.89 101.83,37.52 37.65,45.41 53.08,102.27 34.5,126.96 -0.99,1.32 -342.37,467.9 -1097.67,-12.74 -785.05,-499.58 -846.26,-1158.32 -846.45,-1160.23 z"
   id="path47" />&#10;   <path
   class="fil3"
   d="m 17408.96,3326.22 c 550.86,-189.04 1150.64,104.26 1339.68,655.11 189.04,550.86 -104.26,1150.64 -655.11,1339.68 -550.86,189.04 -1150.64,-104.26 -1339.68,-655.11 -189.04,-550.86 104.26,-1150.64 655.11,-1339.68 z"
   id="path48" />&#10;   <path
   class="fil2"
   d="m 17353.87,3234.29 c 286.01,-98.13 587.79,-69.6 844.4,55.89 279.37,136.6 507.92,383.53 619.39,708.33 103.19,300.7 77.39,609.35 -47.73,865.24 -121.98,249.42 -338.74,452.2 -621.32,549.19 -286.01,98.14 -587.76,69.6 -844.4,-55.9 -279.36,-136.61 -507.93,-383.54 -619.38,-708.31 -103.19,-300.7 -77.39,-609.35 47.74,-865.25 121.96,-249.43 338.73,-452.23 621.3,-549.19 z m 876.82,228.15 c -228.22,-111.6 -501.83,-135.17 -766.66,-44.3 -268.25,92.04 -473.58,283.71 -588.7,519.13 -111.96,228.96 -138.3,495.68 -52.47,745.79 77.57,226.04 243.48,401.26 448.94,501.72 228.21,111.6 501.82,135.18 766.65,44.31 268.24,-92.06 473.6,-283.73 588.72,-519.13 111.95,-228.96 138.29,-495.68 52.46,-745.79 -77.58,-226.05 -243.5,-401.27 -448.94,-501.73 z"
   id="path49" />&#10;   <path
   class="fil2"
   d="m 11408.97,7071.34 c 13.22,48.31 -6.59,77 -45.11,64.29 -39.26,-12.96 -83.11,-64.02 -97.91,-114.04 l -2.04,-7.47 c -5.48,-22.39 -3.63,-40.27 4.04,-51.31 13.82,-56.39 55.96,-139.96 137.68,-221.91 106.14,-106.42 279.38,-228.14 541.3,-315.45 36.83,-12.26 77.64,-24.4 122.71,-36.3 30.14,-8 78.26,26.9 107.45,77.94 29.18,51.04 28.41,98.94 -1.72,106.93 -39.32,10.37 -78.94,22.31 -118.61,35.52 -253.46,84.48 -419.52,200.67 -520.41,301.84 -91.53,91.79 -129.95,150.14 -127.38,159.96 z"
   id="path50" />&#10;   <path
   class="fil2"
   d="m 15126.27,7317.7 c 4.82,45.33 -25.03,62.07 -66.66,37.39 -41.62,-24.68 -79.3,-81.44 -84.13,-126.77 -0.04,-0.46 -16.03,-163.3 -299.46,-295.14 -40.79,-19 -81.87,-73.39 -91.73,-121.45 -9.86,-48.05 15.21,-71.62 55.99,-52.62 450.78,209.67 485.88,557.6 485.99,558.59 z"
   id="path51" />&#10;   <path
   class="fil11"
   d="m 10722.31,8510.83 c 373.52,0 676.3,302.79 676.3,676.3 0,373.52 -302.78,676.3 -676.3,676.3 -373.51,0 -676.3,-302.78 -676.3,-676.3 0,-373.51 302.79,-676.3 676.3,-676.3 z"
   id="path52" />&#10;   <path
   class="fil2"
   d="m 10744.27,8557.76 c 20.77,0.07 41.01,1.02 61.7,2.86 26.96,1.8 17.53,-34.86 9.76,-49.67 -8.41,-16.85 -30.06,-42.81 -49.79,-44.04 -34.22,-3.03 -68.55,-3.94 -102.86,-2.03 -25.7,1.83 -12.15,41.5 -3.67,55.2 9.04,15.28 30.57,39.89 49.89,38.61 11.47,-0.8 23.46,-0.89 34.97,-0.93 z m -201.72,31.49 c 21.74,-6.68 5.6,-44.96 -2.49,-57.67 -8.96,-14.48 -33.2,-40.41 -52.1,-34.6 -18.04,5.77 -35.61,12.33 -53.15,19.52 -21.5,8.95 -2.57,49.51 7.01,62.29 8.57,12.84 33.04,36.15 49.8,29.17 16.8,-6.89 33.63,-13.18 50.93,-18.71 z m -189.72,97.16 c 18.95,-15.16 -4.94,-57.57 -18.04,-70.67 -8.65,-9.72 -31.81,-27.71 -44.55,-17.53 -14.8,10.85 -29.33,22.5 -43.16,34.56 -26.27,23.64 36.09,109.39 64.37,86.77 12.8,-11.48 27.5,-22.95 41.38,-33.13 z m -149.82,153.21 c 14.26,-19.61 -12.44,-60.32 -27.8,-73.86 -9.79,-8.65 -30.85,-21.93 -41.14,-7.77 -9.66,13.28 -24.5,35.05 -31.69,49.42 -12.66,21.73 15.17,62.65 32.61,75.99 9.79,8.06 29.55,17.32 37.86,3.26 9.3,-15.76 19.41,-32.25 30.16,-47.04 z m -68.94,-81.63 -31.69,49.42 70.51,79.17 z m -29.08,292.92 c 9.36,-35.1 -49.26,-100.85 -70.72,-76.7 -2,2.5 -2.93,4.43 -3.75,7.5 -5.77,22.71 -10.52,45.16 -14.16,68.33 -5.78,46.23 67.22,108.26 75.5,64.12 3.38,-21.44 7.8,-42.2 13.13,-63.25 z m -9.95,280.8 c -4.3,-22.52 -22.09,-47.29 -41.47,-59.13 -22.63,-13.32 -37.86,-2.7 -32.93,23.18 6.3,33.33 15.02,66.34 25.86,98.48 7.77,21.41 34.13,59.63 60.19,55.62 16.66,-3.83 13.43,-24.86 9.36,-37.65 -8.87,-26.23 -15.88,-53.3 -21.01,-80.5 z m 161.94,306.57 c -14.49,-13.69 -44.34,-30.99 -48.23,0.17 -1.19,20.11 13.64,45.9 27.86,59.33 25.84,25.84 55.21,50.86 84.72,72.4 34.66,25.03 47.72,-4.53 32.34,-36.83 -6.08,-14.2 -18.55,-29.93 -30.9,-38.86 -23.17,-17.28 -45.34,-35.77 -65.79,-56.21 z m 271.3,155.3 c -45.79,-10.77 -15.74,78.35 30.52,91.96 23.58,6.52 47.4,11.52 71.52,15.58 43.52,5.44 8.21,-84.86 -36.55,-93.25 -22.18,-3.86 -43.77,-8.29 -65.49,-14.29 z m 248.22,18.55 c -25.61,3.66 -9.61,43.77 -1.35,57.1 8.51,14.4 31.52,39.1 49.81,36.5 19.89,-2.24 39.46,-5.5 59.1,-9.42 24.89,-5.74 6.71,-48.46 -3.15,-61.61 -8.77,-13.17 -30.88,-35.24 -48.09,-31.55 -18.61,3.78 -37.44,6.86 -56.32,8.98 z m 211.03,-61.35 c -19.64,9.82 -2.54,47.42 6.63,60.27 8.77,13.15 34.49,39.11 51.77,30.47 16.63,-8 32.97,-16.82 48.88,-26.15 20.34,-12.94 -2.06,-54.74 -13.76,-67.91 -8.83,-10.49 -32.1,-31 -46.5,-21.83 -15.45,8.95 -30.93,17.41 -47.02,25.15 z m 173.44,-121.57 c -15.05,15.05 3.91,51.11 15.12,64.41 9.05,11.31 36.15,35.54 50.33,21.36 13.24,-12.9 26.55,-26.65 38.57,-40.68 15.04,-16.7 -7.87,-55.49 -20.49,-68.84 -9.37,-10.55 -33.96,-29.22 -46.55,-15.23 -11.91,13.5 -24.08,26.41 -36.98,38.98 z m 130.04,-177.05 c -16.54,35.82 52.2,110.49 71.24,77.85 9.35,-18.71 17.9,-37.6 25.6,-57.05 9.72,-27.23 -23.76,-74.48 -49.77,-82.61 -9.18,-2.86 -19.39,-2 -23.03,8.22 -7.36,18.35 -15.22,35.88 -24.04,53.59 z m 67.35,-239.43 c -1.67,28.51 32.36,78.83 62.27,76.53 9.02,-1.39 13.25,-8.15 13.77,-17.07 2.06,-26.3 2.89,-52.93 2,-79.3 -1.43,-27.16 -32.79,-74.81 -62.07,-72.55 -10.73,1.64 -14.66,10.52 -14.1,21.09 0.71,23.83 0,47.55 -1.87,71.3 z m -52.59,-308.21 c 8.72,19.2 36.32,54.25 60.03,46.35 15.81,-7.18 8.43,-32.79 2.85,-45.07 -17.18,-37.29 -36.94,-72.57 -59.65,-106.77 -9.24,-14.51 -44.88,-49.87 -59.16,-25.4 -7.75,15.5 3.52,38.9 12.13,52.42 16.83,25.51 30.85,50.79 43.8,78.47 z m -232.49,-257.03 c 13.24,8.09 29.84,9.31 33.22,-8.68 3.59,-26.93 -20.11,-60.4 -42.16,-73.87 -25.97,-15.47 -52.6,-29.21 -80.26,-41.41 -15.52,-6.9 -28.18,-1.1 -28.18,16.78 0,26.29 24.26,60.82 48.06,71.39 24.02,10.73 46.72,22.31 69.32,35.79 z"
   id="path53" />&#10;   <path
   class="fil11"
   d="m 16143.91,9517.45 c 159.93,6.9 276.54,314.99 260.46,688.16 -16.09,373.17 -158.77,670.09 -318.7,663.2 -159.93,-6.9 -276.54,-314.99 -260.46,-688.16 16.09,-373.17 158.77,-670.09 318.7,-663.2 z"
   id="path54" />&#10;   <path
   class="fil2"
   d="m 16122.91,9470.43 c -23.81,-1.59 -17.17,31.59 -10.93,45.33 8.46,19.44 30.72,47.22 52.91,48.7 19.11,1 36.05,6.46 52.05,16.95 29.95,19.97 42.91,-4.93 31.5,-33.44 -5.88,-17.61 -21.26,-36.73 -36.41,-46.84 -26.96,-17.68 -56.76,-29.1 -89.12,-30.7 z m -55.82,133.42 c 26.57,-23.91 -36,-109.59 -64.02,-87.17 -14.68,12.51 -27.77,26.3 -40.02,41.17 -16.27,20.34 13.52,64.77 30.75,77.95 9.05,7.46 27.66,17.04 36.84,5.57 10.79,-13.37 23.36,-26.38 36.45,-37.52 z m -120.17,185.36 c 14.17,-39.66 -57.09,-111.06 -72.63,-74.77 -7.92,19.65 -15.37,39.69 -21.92,59.84 -12.21,34.2 50.37,105.66 71.43,76.71 0.99,-1.56 1.5,-2.75 2.12,-4.47 6.46,-19.37 13.37,-38.36 21,-57.31 z m -66.27,246.6 c 5.05,-26.91 -27.22,-71.97 -53.18,-78.46 -11.95,-3.19 -19.94,1.9 -22.19,13.84 -3.47,23.79 -6.9,47.07 -9.64,70.99 -3.31,28.08 32.37,80.12 61.67,77.87 9.04,-1.3 13.03,-7.18 14.07,-16.04 2.61,-22.96 5.95,-45.38 9.27,-68.2 z m -18.1,287.05 c -1.46,-27.81 -31.5,-72.7 -61.18,-72.7 -11.21,0.87 -15.5,10.7 -14.94,21.32 0.8,27.5 2.48,54.97 4.79,82.37 2.68,26.8 33.04,72.54 62.39,70.29 11.26,-1.73 14.59,-12.85 13.46,-23.47 -2.28,-25.82 -3.78,-51.92 -4.52,-77.81 z m 52.84,323.61 c -7.81,-21.48 -31.81,-55.77 -56.89,-55.77 -19.96,1.43 -16.99,24.07 -12.45,38.32 12.04,36.15 27.63,73.34 45.55,106.98 9.12,16.71 25.97,36.93 44.88,41.65 31.78,5.96 22.1,-33.87 12.77,-50.97 -13.39,-25.39 -24.79,-52.98 -33.86,-80.21 z m 178.01,172.7 c -23.92,5.53 -6.5,47.26 2.51,60.13 9.19,13.78 31.26,37.25 49.54,33.04 18.53,-4.09 39.23,-12.94 55.01,-23.46 19.32,-12.29 -1.87,-52.45 -12.3,-65.48 -9.16,-11.6 -33.13,-33.85 -48.8,-23.88 -13.18,8.79 -30.48,16.22 -45.96,19.65 z m 149.81,-139.73 c -11.48,19.69 12.39,59.09 27.92,72.04 9.99,9.4 33.08,23.47 42.67,7.05 10.04,-17.74 18.99,-35.77 27.53,-54.26 10.74,-23.25 -17.38,-64.33 -36.56,-77.12 -10.49,-7.4 -28.54,-14.14 -35.37,0.68 -8.12,17.61 -16.63,34.72 -26.19,51.61 z m 85.35,-227.18 c -9.29,34.82 50.09,102.34 71.54,75.53 1.61,-2.53 2.23,-3.88 3.01,-6.81 5.24,-21.84 10.63,-44.84 14.39,-66.95 5.43,-28.95 -34.74,-86.79 -64.41,-79.38 -6.39,2.14 -9.49,6.81 -10.72,13.36 -4.52,21.58 -8.65,42.76 -13.81,64.25 z m 37.63,-272.02 c -1.54,27.74 32.83,77.83 62.26,75.56 9.71,-1.5 13.3,-8.84 13.83,-18.24 1.07,-25.85 1.74,-51.62 1.65,-77.5 0,-27.48 -35.73,-80.6 -65.1,-73.25 -8.42,2.81 -11.08,10.73 -11.08,19.36 0.11,24.73 -0.55,49.36 -1.56,74.07 z m -18.91,-310.03 c 4.71,24.78 33.56,67.38 61.32,65.24 13.84,-1.97 15.41,-16.62 13.12,-28.59 -5.8,-31.59 -12.72,-62.45 -21.05,-93.48 -6.28,-23.01 -34.71,-64.04 -61.74,-59.88 -14.52,3.35 -13.6,21.58 -10.36,33.47 7.48,27.51 13.55,55.2 18.71,83.24 z"
   id="path55" />&#10;   <path
   class="fil4"
   d="m 18046.32,3402.43 c 384.7,105.51 642.39,388.52 575.58,632.13 -66.82,243.6 -432.83,355.54 -817.53,250.03 -384.7,-105.51 -642.4,-388.52 -575.58,-632.12 66.81,-243.61 432.83,-355.55 817.53,-250.04 z"
   id="path56" />&#10;   <path
   class="fil5"
   d="m 18143.86,3515.64 c 155.01,0 280.68,125.66 280.68,280.67 0,155.02 -125.67,280.68 -280.68,280.68 -155.02,0 -280.68,-125.66 -280.68,-280.68 0,-155.01 125.66,-280.67 280.68,-280.67 z"
   id="path57" />&#10;   <path
   class="fil2"
   d="m 18132.9,3492.25 c 82.5,0 158.53,34.76 214.71,90.94 59.26,59.26 95.93,139.5 95.93,226.62 0,81.01 -32.43,153.97 -84.81,206.36 -52.03,52.03 -124.11,84.21 -203.89,84.21 -82.5,0 -158.55,-34.76 -214.72,-90.95 -59.27,-59.25 -95.94,-139.5 -95.94,-226.63 0,-81.01 32.43,-153.98 84.82,-206.35 52,-52 124.11,-84.2 203.9,-84.2 z m 204.15,120.25 c -45.38,-45.37 -109.72,-73.47 -182.21,-73.47 -75.22,0 -143.51,30.66 -193.05,80.2 -49.17,49.17 -79.6,116.59 -79.6,190.58 0,67.88 26.19,128.01 68.49,170.31 45.37,45.38 109.72,73.48 182.22,73.48 75.21,0 143.48,-30.66 193.04,-80.22 49.16,-49.17 79.59,-116.6 79.59,-190.58 0,-67.87 -26.18,-128 -68.48,-170.3 z"
   id="path58" />&#10;  </g>&#10; </g>&#10;</svg>
