<?xml version="1.0" encoding="UTF-8" standalone="no"?>
<!-- Created with Inkscape (http://www.inkscape.org/) -->

<svg
   width="105.83334mm"
   height="105.83334mm"
   viewBox="0 0 105.83334 105.83334"
   version="1.1"
   id="svg8"
   inkscape:version="1.3 (0e150ed6c4, 2023-07-21)"
   sodipodi:docname="gato.svg"
   xmlns:inkscape="http://www.inkscape.org/namespaces/inkscape"
   xmlns:sodipodi="http://sodipodi.sourceforge.net/DTD/sodipodi-0.dtd"
   xmlns="http://www.w3.org/2000/svg"
   xmlns:svg="http://www.w3.org/2000/svg"
   xmlns:rdf="http://www.w3.org/1999/02/22-rdf-syntax-ns#"
   xmlns:cc="http://creativecommons.org/ns#"
   xmlns:dc="http://purl.org/dc/elements/1.1/">
  <defs
     id="defs2" />
  <sodipodi:namedview
     id="base"
     pagecolor="#ffffff"
     bordercolor="#666666"
     borderopacity="1.0"
     inkscape:pageopacity="0.0"
     inkscape:pageshadow="2"
     inkscape:zoom="1.0705078"
     inkscape:cx="181.2224"
     inkscape:cy="260.1569"
     inkscape:document-units="mm"
     inkscape:current-layer="layer1"
     showgrid="false"
     inkscape:window-width="1920"
     inkscape:window-height="991"
     inkscape:window-x="-9"
     inkscape:window-y="-9"
     inkscape:window-maximized="1"
     inkscape:showpageshadow="2"
     inkscape:pagecheckerboard="0"
     inkscape:deskcolor="#d1d1d1" />
  <metadata
     id="metadata5">
    <rdf:RDF>
      <cc:Work
         rdf:about="">
        <dc:format>image/svg+xml</dc:format>
        <dc:type
           rdf:resource="http://purl.org/dc/dcmitype/StillImage" />
        <dc:title />
      </cc:Work>
    </rdf:RDF>
  </metadata>
  <g
     inkscape:label="Vrstva 1"
     inkscape:groupmode="layer"
     id="layer1">
    <g
       id="g1"
       transform="matrix(0.44761728,0,0,0.44761728,135.86687,-8.9828855)">
      <path
         style="opacity:1;fill:#727272;fill-opacity:1;stroke:#727272;stroke-width:6.96775;stroke-miterlimit:4;stroke-dasharray:none;stroke-dashoffset:0;stroke-opacity:1;paint-order:stroke fill markers"
         d="m -731.55132,851.07737 c -12.06486,-7.02138 -21.15502,-10.75411 -31.66561,-13.00297 -10.54439,-2.25609 -13.6028,-3.3233 -15.63722,-5.45649 -3.12741,-3.27923 -6.39334,-13.03749 -6.41444,-19.16567 -0.0469,-13.61186 13.51136,-38.62382 21.88335,-40.36996 12.56646,-2.62099 43.44195,20.59726 55.26441,41.55862 2.63807,4.67734 3.78156,9.37238 5.06632,20.80194 1.63637,14.55757 1.91288,12.92335 -2.4069,14.22542 -2.05734,0.62012 -6.26445,2.50324 -9.34915,4.18471 -3.0847,1.68147 -5.86003,3.05617 -6.16741,3.05488 -0.30737,-0.001 -5.06538,-2.625 -10.57335,-5.83048 z"
         id="path4800"
         inkscape:connector-curvature="0"
         transform="scale(0.26458333)" />
      <path
         style="opacity:1;fill:#727272;fill-opacity:1;stroke:#727272;stroke-width:6.96775;stroke-miterlimit:4;stroke-dasharray:none;stroke-dashoffset:0;stroke-opacity:1;paint-order:stroke fill markers"
         d="m -946.05233,874.69782 c -23.04577,-2.80647 -52.63031,-13.89819 -68.75307,-25.77665 -5.577,-4.10881 -14.0296,-12.92846 -17.6652,-18.43234 -3.7597,-5.69158 -8.7495,-16.09596 -11.2458,-23.44895 -2.3811,-7.01358 -5.6787,-23.00873 -6.6934,-32.46597 -0.9329,-8.69556 -0.2407,-11.64306 3.7864,-16.12216 3.8071,-4.23434 7.0173,-6.07286 14.3714,-8.23047 7,-2.05375 11.642,-1.95875 17.8344,0.36496 6.9735,2.61684 8.447,4.89636 13.5145,20.90726 3.62105,11.44072 9.18014,19.97614 19.25433,29.56304 13.22336,12.58373 33.21629,22.961 51.06683,26.50608 3.18268,0.63207 5.92228,1.50259 6.08801,1.93448 0.16573,0.43189 -0.31314,2.34417 -1.06415,4.2495 -4.28636,10.87458 -1.18479,24.75007 7.96101,35.61529 3.2968,3.91658 3.70139,4.67138 2.7342,5.10083 -1.69134,0.75099 -25.48058,0.93032 -31.18946,0.2351 z"
         id="path4802"
         inkscape:connector-curvature="0"
         transform="scale(0.26458333)" />
      <path
         style="opacity:1;fill:#727272;fill-opacity:1;stroke:#727272;stroke-width:6.96775;stroke-miterlimit:4;stroke-dasharray:none;stroke-dashoffset:0;stroke-opacity:1;paint-order:stroke fill markers"
         d="m -976.43689,603.19593 c -9.96893,-8.53613 -23.69831,-9.76542 -36.56131,-3.27358 -2.1257,1.07282 -3.9808,1.83472 -4.1224,1.69312 -0.3924,-0.39241 2.6241,-10.41502 5.9125,-19.64505 5.6137,-15.75666 9.1548,-24.904 19.56105,-50.53085 12.82795,-31.59059 13.74835,-34.20003 17.81215,-50.49963 5.00806,-20.08695 6.79136,-23.61672 14.48731,-28.67554 6.61614,-4.34902 9.69546,-5.29923 15.78258,-4.87014 11.01457,0.77643 17.80893,5.4961 23.01807,15.9894 2.71161,5.46228 3.06292,6.6935 3.3245,11.65124 0.25869,4.90331 0.0699,6.15385 -1.63435,10.82783 -4.05413,11.11836 -20.04499,49.47161 -26.02536,62.42046 -8.11639,17.57382 -27.68956,57.46769 -28.19273,57.46219 -0.21428,-0.002 -1.72719,-1.1496 -3.36201,-2.54945 z"
         id="path4804"
         inkscape:connector-curvature="0"
         transform="scale(0.26458333)" />
      <path
         style="opacity:1;fill:#727272;fill-opacity:1;stroke:#727272;stroke-width:6.96775;stroke-miterlimit:4;stroke-dasharray:none;stroke-dashoffset:0;stroke-opacity:1;paint-order:stroke fill markers"
         d="m -429.91419,924.511 c -2.94439,-0.30564 -6.65989,-0.89985 -8.25667,-1.32045 -4.30535,-1.13405 -12.01553,-4.97839 -14.34053,-7.15027 l -2.038,-1.90377 1.70182,-4.88479 c 1.37508,-3.94692 1.71753,-6.21642 1.78364,-11.8204 0.0909,-7.70524 0.19338,-7.43227 -5.69786,-15.17645 -1.75917,-2.31248 -3.13753,-4.83251 -3.13753,-5.7363 0,-1.09014 1.37242,-3.0185 4.23977,-5.95722 3.91171,-4.00908 4.38447,-4.30038 6.10994,-3.76481 1.02859,0.31926 6.03153,0.57624 11.11764,0.57106 15.11412,-0.0154 20.39658,-2.45341 30.38604,-14.02414 l 4.62226,-5.35392 11.90694,-0.0491 c 17.73068,-0.0732 29.02645,1.70423 37.1949,5.85262 5.4183,2.75171 7.49053,5.18432 7.88139,9.252 0.38299,3.98592 -0.62119,6.72677 -3.28606,8.96911 -3.01669,2.53838 -4.64423,2.13754 -9.44139,-2.32524 -4.74715,-4.41626 -7.54282,-5.21022 -8.96817,-2.54692 -1.21107,2.26291 -0.30511,6.40496 1.91091,8.73675 3.9916,4.20012 7.38753,13.19661 7.38753,19.571 0,7.62985 -3.71244,14.91307 -8.89826,17.45696 -3.11391,1.52753 -11.2172,1.76748 -15.08707,0.44676 -3.01428,-1.02872 -3.4746,-2.05008 -4.06165,-9.012 -0.63038,-7.47579 -2.12731,-16.15353 -3.25005,-18.84064 -1.36187,-3.25942 -3.4777,-5.05241 -4.90588,-4.15734 -1.62236,1.01678 -1.72736,3.18302 -0.44956,9.27467 0.95895,4.57159 1.01507,6.10196 0.36332,9.90801 -2.19609,12.82476 -5.31793,18.53278 -11.92983,21.81274 -3.75369,1.86209 -5.12392,2.16745 -10.89881,2.42885 -3.63294,0.16444 -9.01439,0.0489 -11.95878,-0.25673 z"
         id="path4806"
         inkscape:connector-curvature="0"
         transform="scale(0.26458333)" />
      <path
         style="opacity:1;fill:#727272;fill-opacity:1;stroke:#727272;stroke-width:6.96775;stroke-miterlimit:4;stroke-dasharray:none;stroke-dashoffset:0;stroke-opacity:1;paint-order:stroke fill markers"
         d="m -540.9934,955.54833 c -6.26539,-1.64162 -14.88878,-6.15992 -17.27002,-9.04878 -4.76131,-5.77629 -8.62888,-16.80839 -9.128,-26.03726 -0.29786,-5.50775 -0.11691,-7.14986 1.34657,-12.21987 2.66757,-9.24141 6.54672,-18.35957 7.92187,-18.6208 0.65268,-0.12398 2.50198,0.85235 4.10956,2.16964 5.3233,4.36204 8.2888,5.31252 16.50136,5.28886 6.45016,-0.0186 7.78496,-0.23316 11.88961,-1.91132 6.50895,-2.66114 11.21086,-5.92042 16.18308,-11.21783 10.59442,-11.28729 9.28756,-10.29987 13.61917,-10.2902 4.69083,0.0105 14.35087,1.95504 19.61702,3.94889 4.43133,1.67779 13.3457,8.15273 16.17474,11.74853 3.34392,4.25022 3.74211,7.98602 1.52388,14.29729 -1.49162,4.2439 -5.04196,9.62865 -6.3485,9.62865 -0.50988,0 -2.28225,-2.09491 -3.9386,-4.65536 -1.65635,-2.56045 -4.73205,-6.42457 -6.83488,-8.58694 -3.09889,-3.18661 -4.22398,-3.93158 -5.93768,-3.93158 -1.16288,0 -2.11433,0.26083 -2.11433,0.57962 0,0.31879 1.76565,2.68772 3.92364,5.26427 11.77135,14.05446 13.66449,26.35256 5.71814,37.1458 -2.92445,3.97219 -6.17659,5.52915 -11.37866,5.44754 -6.20148,-0.0973 -6.32885,-0.25179 -6.50233,-7.88664 -0.13665,-6.0145 -1.52665,-13.37681 -3.06998,-16.26053 -0.34479,-0.64425 -1.21092,-1.17137 -1.92472,-1.17137 -1.45783,0 -1.40488,-0.33325 -1.58536,9.97567 -0.10731,6.12951 -0.34594,7.45975 -1.91266,10.66201 -2.3352,4.77298 -6.33807,8.38291 -13.02158,11.74331 -10.18129,5.11905 -18.51197,6.30948 -27.56134,3.9384 z"
         id="path4808"
         inkscape:connector-curvature="0"
         transform="scale(0.26458333)" />
      <path
         style="opacity:1;fill:#727272;fill-opacity:1;stroke:#727272;stroke-width:6.96775;stroke-miterlimit:4;stroke-dasharray:none;stroke-dashoffset:0;stroke-opacity:1;paint-order:stroke fill markers"
         d="m -585.89618,930.83062 c -2.45697,-1.10945 -2.54107,-1.48626 -1.083,-4.85242 2.2607,-5.21919 0.23004,-16.09967 -4.33139,-23.20805 -3.08406,-4.80609 -7.6193,-8.77164 -9.74099,-8.51737 -3.20014,0.3835 -3.36332,2.01367 -0.6272,6.2655 5.39228,8.37939 8.45404,16.90175 7.47442,20.80489 -0.74705,2.97649 -3.87463,5.64047 -8.04556,6.853 -3.20985,0.93312 -5.72011,1.06434 -14.81013,0.77417 -14.97243,-0.47795 -25.5865,-2.5999 -39.12996,-7.82282 -9.02564,-3.48065 -12.09801,-7.43656 -12.84013,-16.53262 -0.56289,-6.89928 1.20741,-11.38997 6.61933,-16.79114 6.63808,-6.62489 6.4653,-6.56591 13.35017,-4.5574 19.99802,5.83398 39.7335,1.40835 54.73497,-12.27419 4.23534,-3.86296 5.0367,-4.1133 9.48071,-2.96174 8.60364,2.22942 22.28484,8.34889 22.88367,10.23564 0.40177,1.26585 -0.79575,5.02917 -2.93408,9.22065 l -1.422,2.78734 -2.4697,-2.23121 c -3.07829,-2.78106 -7.11787,-4.75664 -12.57602,-6.15038 -5.16453,-1.31877 -9.98251,-0.85293 -9.98251,0.9652 0,1.7654 1.81179,3.07103 6.92867,4.993 5.58749,2.09873 9.58292,4.38201 12.8795,7.36027 l 2.46968,2.2312 -2.31723,6.11453 c -2.16481,5.71235 -2.34353,6.77502 -2.71712,16.15636 -0.26297,6.60364 -0.67922,10.32057 -1.21572,10.85595 -1.23814,1.23553 -8.06347,1.41725 -10.57838,0.28164 z"
         id="path4810"
         inkscape:connector-curvature="0"
         transform="scale(0.26458333)" />
      <path
         style="opacity:1;fill:#ff8080;fill-opacity:1;stroke:#ff8080;stroke-width:6.96775;stroke-miterlimit:4;stroke-dasharray:none;stroke-dashoffset:0;stroke-opacity:1;paint-order:stroke fill markers"
         d="m -536.85153,467.68052 c -1.81647,-0.46629 -3.9394,-1.19356 -4.71763,-1.61616 -4.11048,-2.2321 -8.82198,-11.04981 -8.8228,-16.51213 -7e-4,-4.69317 1.83653,-8.1046 7.05965,-13.10863 7.83543,-7.50676 15.30099,-10.19422 24.46145,-8.80565 18.5206,2.80742 23.2661,9.78668 16.22462,23.86176 -2.97024,5.93718 -8.93958,12.04172 -14.3935,14.71951 -3.40063,1.66965 -4.84396,1.96955 -10.23405,2.12645 -3.58835,0.10445 -7.68913,-0.18034 -9.57774,-0.66515 z"
         id="path4812"
         inkscape:connector-curvature="0"
         transform="scale(0.26458333)" />
      <path
         style="opacity:1;fill:#f9f9f9;fill-opacity:1;stroke:#f9f9f9;stroke-width:6.96775;stroke-miterlimit:4;stroke-dasharray:none;stroke-dashoffset:0;stroke-opacity:1;paint-order:stroke fill markers"
         d="m -497.73422,430.05271 c -5.70017,-5.78259 -12.82106,-8.98364 -20.07902,-9.02611 -3.45222,-0.0202 -4.95522,-1.73549 -6.82493,-7.7889 -3.8302,-12.40076 -4.25444,-16.24775 -4.24177,-38.46463 0.0158,-27.73352 0.97755,-33.29094 8.26068,-47.73483 6.90375,-13.69148 14.87642,-21.8334 23.39476,-23.89139 4.12479,-0.99653 13.21045,-0.41412 19.86201,1.27318 26.02518,6.60183 44.60836,28.11326 51.25348,59.32978 2.10408,9.88423 2.10785,22.76358 0.009,29.51821 -2.79069,8.97962 -6.54803,14.2637 -14.15091,19.90089 -6.05785,4.49162 -19.7636,11.34498 -29.42652,14.7143 -6.21194,2.16601 -21.50228,6.33792 -23.22893,6.33792 -0.39518,0 -2.56756,-1.8758 -4.82751,-4.16842 z m 13.39514,-15.04257 c 3.85533,-1.74784 5.71477,-3.5292 7.64798,-7.32682 4.25084,-8.35038 3.45909,-21.74063 -1.88056,-31.80453 -3.71529,-7.00239 -9.4773,-10.3532 -17.80323,-10.3532 -4.69799,0 -8.13242,1.58684 -11.03796,5.09997 -5.60397,6.77583 -6.08945,23.27095 -0.99158,33.69063 1.86155,3.80486 7.66861,10.56264 9.82826,11.43732 2.7521,1.11462 11.10026,0.67873 14.23709,-0.74337 z"
         id="path4814"
         inkscape:connector-curvature="0"
         transform="scale(0.26458333)" />
      <path
         style="opacity:1;fill:#f9f9f9;fill-opacity:1;stroke:#f9f9f9;stroke-width:6.96775;stroke-miterlimit:4;stroke-dasharray:none;stroke-dashoffset:0;stroke-opacity:1;paint-order:stroke fill markers"
         d="m -618.01292,452.99784 c -21.40045,-3.32793 -43.3428,-14.23056 -48.24965,-23.97412 -3.1127,-6.18092 -3.73622,-14.69142 -2.31451,-31.59139 2.26157,-26.88361 8.11413,-41.7631 21.33234,-54.23519 5.95162,-5.61566 13.82614,-8.46993 25.18433,-9.12851 15.57854,-0.90331 25.28776,3.93336 41.06199,20.45508 9.48863,9.93827 18.95778,24.64549 28.98542,45.01938 5.88531,11.95764 8.8973,19.98562 9.06368,24.15786 0.0956,2.39697 -0.22904,2.86961 -4.97373,7.24155 -4.16161,3.83467 -5.59704,5.71804 -7.96842,10.45513 -1.59084,3.17785 -3.01157,6.13532 -3.15719,6.57215 -0.27864,0.83594 -12.86144,3.50567 -24.04025,5.10069 -8.29996,1.18427 -27.09279,1.14518 -34.92401,-0.0726 z m 33.93321,-11.89333 c 5.37194,-2.49993 10.27208,-6.47379 12.35756,-10.02159 1.81107,-3.08098 1.84234,-3.31371 1.75481,-13.06234 -0.13034,-14.51829 -2.0412,-20.64748 -8.42457,-27.02229 -3.66036,-3.65545 -7.13455,-5.21278 -12.29314,-5.51048 -3.5682,-0.20591 -4.79558,0.02 -7.26587,1.33757 -3.46409,1.84758 -9.0271,8.40337 -11.63256,13.70851 -1.56611,3.18888 -1.78856,4.44033 -1.8199,10.23828 -0.0412,7.62235 0.86866,11.9884 3.86753,18.55882 5.26797,11.54193 14.25766,16.0542 23.45614,11.77352 z"
         id="path4816"
         inkscape:connector-curvature="0"
         transform="scale(0.26458333)" />
      <path
         style="opacity:1;fill:#000000;fill-opacity:1;stroke:#000000;stroke-width:2.46347;stroke-miterlimit:4;stroke-dasharray:none;stroke-dashoffset:0;stroke-opacity:1;paint-order:stroke fill markers"
         d="m -591.11343,436.15066 c -3.8234,-0.98848 -5.34204,-1.74091 -7.09071,-3.51321 -2.2525,-2.28294 -3.48549,-5.26058 -4.35696,-10.52193 -0.39251,-2.36975 -0.38356,-13.84542 0.0137,-17.63182 0.50805,-4.84178 1.08289,-6.35392 3.32762,-8.75354 2.65737,-2.84074 6.36628,-4.12316 9.83871,-3.40189 6.30862,1.31037 11.53551,8.48503 13.02378,17.87701 0.39009,2.46174 0.32495,7.60386 -0.13031,10.28696 -0.84063,4.95427 -3.03991,10.06639 -5.87084,13.6465 -0.82051,1.03765 -1.83052,2.09314 -2.24447,2.34554 -1.09695,0.66884 -3.01283,0.57066 -6.51057,-0.33362 z m 3.72459,-19.75176 c 1.77934,-0.84177 3.71136,-2.7128 4.46633,-4.32535 0.72872,-1.55647 0.87449,-3.57898 0.39579,-5.49153 -0.86808,-3.46833 -3.43136,-7.33366 -5.60858,-8.45757 -1.85615,-0.95816 -4.31572,-0.42494 -6.0529,1.31224 -1.12365,1.12365 -1.4902,1.87952 -1.78121,3.67302 -0.54965,3.38745 -0.18789,8.02584 0.79343,10.17336 1.60961,3.52243 4.49079,4.67526 7.78714,3.11583 z"
         id="path4824"
         inkscape:connector-curvature="0"
         transform="scale(0.26458333)" />
      <path
         style="opacity:1;fill:#000000;fill-opacity:1;stroke:#000000;stroke-width:2.46347;stroke-miterlimit:4;stroke-dasharray:none;stroke-dashoffset:0;stroke-opacity:1;paint-order:stroke fill markers"
         d="m -493.29889,408.66414 c -1.27704,-0.67388 -3.36576,-2.88313 -4.8864,-5.16838 -3.57813,-5.37729 -7.52383,-13.94533 -7.98739,-17.34448 -0.44266,-3.24586 1.48787,-8.90707 4.19602,-12.3047 1.14205,-1.43281 3.3569,-3.05517 4.73922,-3.47144 2.75064,-0.82832 5.90842,-0.41568 7.79053,1.01803 1.81895,1.38559 2.47739,3.24578 4.14924,11.72216 1.23905,6.28202 1.72397,9.93584 1.56997,11.82969 -0.16991,2.0896 -1.25951,5.28151 -3.05792,8.95794 -1.17313,2.39819 -1.73599,3.27231 -2.66922,4.14523 -0.98952,0.92558 -1.32722,1.1045 -2.06836,1.09587 -0.48717,-0.006 -1.28623,-0.22164 -1.77569,-0.47992 z m 1.80082,-16.27794 c 0.96174,-0.56169 1.947,-2.21545 2.23788,-3.75631 0.13061,-0.69186 0.23565,-2.3733 0.23342,-3.73654 -0.009,-5.79882 -1.83233,-9.28864 -4.98846,-9.55037 -1.78325,-0.14788 -2.79132,0.26722 -4.25106,1.75046 -3.00337,3.05174 -4.14229,7.86953 -2.65708,11.23978 0.57356,1.30153 2.32399,3.16185 3.59162,3.81709 1.82028,0.94092 4.44479,1.04704 5.83368,0.23589 z"
         id="path4826"
         inkscape:connector-curvature="0"
         transform="scale(0.26458333)" />
      <path
         style="opacity:1;fill:#e9afaf;fill-opacity:1;stroke:#e9afaf;stroke-width:2.46347;stroke-miterlimit:4;stroke-dasharray:none;stroke-dashoffset:0;stroke-opacity:1;paint-order:stroke fill markers"
         d="m -371.4854,285.61899 c -2.10122,-2.31642 -5.52094,-6.97747 -10.74676,-14.64774 -10.03203,-14.72463 -14.33089,-20.27829 -20.7637,-26.82443 -5.4555,-5.55162 -10.0835,-9.39535 -18.39664,-15.27915 -2.40258,-1.70048 -4.37303,-3.17227 -4.37877,-3.27064 -0.006,-0.0984 2.63097,-5.61563 5.85934,-12.26054 8.07277,-16.61608 11.46573,-23.70272 14.61765,-30.53085 10.00692,-21.67842 13.1441,-31.91233 14.53264,-47.40741 0.37401,-4.17369 0.69302,-10.86921 1.17829,-24.7304 0.25135,-7.17954 0.49823,-13.094932 0.54863,-13.145328 0.0927,-0.09275 1.12688,1.47201 7.51403,11.369618 10.53711,16.32841 15.36813,26.86682 22.37487,48.80861 4.35683,13.64352 5.88141,21.06696 6.73864,32.81153 0.40013,5.48208 0.40049,34.60545 4.6e-4,38.76665 -0.60033,6.24498 -1.91587,12.52718 -5.20828,24.87137 -3.11323,11.67239 -6.15099,21.12309 -8.18212,25.45521 -1.31856,2.8123 -3.93188,7.47309 -4.19019,7.47309 -0.0958,0 -0.7699,-0.65682 -1.4981,-1.45959 z"
         id="path4828"
         inkscape:connector-curvature="0"
         transform="scale(0.26458333)" />
      <path
         style="opacity:1;fill:#e9afaf;fill-opacity:1;stroke:#e9afaf;stroke-width:2.46347;stroke-miterlimit:4;stroke-dasharray:none;stroke-dashoffset:0;stroke-opacity:1;paint-order:stroke fill markers"
         d="m -751.43465,369.9025 c -1.50843,-1.53588 -4.3715,-4.73187 -6.36237,-7.1022 -8.38308,-9.98085 -11.22023,-13.08291 -12.53729,-13.70789 -1.44609,-0.68622 -5.99899,-4.82342 -13.70124,-12.45029 -10.90128,-10.79458 -17.00887,-17.4289 -20.27702,-22.02571 -6.69973,-9.42351 -19.89034,-32.64786 -22.82595,-40.18903 -2.37445,-6.09964 -4.48098,-16.95387 -5.76178,-29.68852 -0.50264,-4.99753 -0.69572,-17.96662 -0.34902,-23.44321 0.51189,-8.08619 1.16977,-10.36943 5.52545,-19.17675 4.59857,-9.29845 8.62595,-16.25907 9.28912,-16.05463 0.69377,0.21388 1.59794,2.96624 2.74237,8.34801 1.48975,7.00566 4.3098,14.31186 9.78013,25.33844 6.47345,13.04855 8.13659,15.28311 20.77799,27.91693 12.76207,12.75443 24.19559,22.8407 37.84627,33.38673 8.6254,6.66369 16.57904,13.13618 21.14848,17.21017 l 4.30068,3.83436 -0.60931,1.21233 c -0.33512,0.66678 -2.14058,4.10231 -4.01213,7.63452 -10.7968,20.37698 -16.02774,34.22599 -19.53824,51.72778 -1.22762,6.12036 -2.04252,9.33938 -2.48043,9.79819 -0.13235,0.13866 -1.25258,-0.83509 -2.95571,-2.56923 z"
         id="path4830"
         inkscape:connector-curvature="0"
         transform="scale(0.26458333)" />
      <g
         id="g4798">
        <path
           transform="scale(0.26458333)"
           inkscape:connector-curvature="0"
           id="path4774"
           d="m -587.47866,557.48393 c -23.45689,-1.28771 -46.61399,-8.44314 -75.30087,-23.26756 -33.30243,-17.20959 -47.24363,-27.52165 -57.12982,-42.2579 -6.31004,-9.40569 -14.57562,-30.17827 -17.79046,-44.71001 -5.35187,-24.19154 -5.08971,-62.25158 0.61926,-89.90306 2.78139,-13.47173 7.69871,-27.48665 14.32199,-40.81927 1.80474,-3.63294 3.65929,-6.60534 4.12121,-6.60534 1.04526,0 2.36836,2.43714 6.93311,12.77071 1.97937,4.48085 4.0694,8.86514 4.64452,9.74288 1.27636,1.94798 3.67518,2.07984 5.29404,0.29101 2.00135,-2.21147 0.99714,-6.39832 -3.86038,-16.09497 -5.2562,-10.49253 -8.79815,-15.30006 -17.35773,-23.55989 -6.62923,-6.39707 -10.19212,-9.34794 -24.71548,-20.46991 -10.73031,-8.21726 -21.36775,-18.55044 -31.27923,-30.38457 -16.37282,-19.54884 -25.08957,-32.55491 -28.06842,-41.88032 -2.18608,-6.84361 -4.93254,-19.13104 -4.53961,-20.30983 0.15006,-0.4502 2.37082,1.03291 5.17879,3.4586 7.7314,6.67886 11.13111,9.37051 16.80569,13.30561 15.8798,11.01203 38.97643,23.14037 55.48485,29.13584 15.99875,5.81036 26.44514,7.39183 45.42262,6.87647 10.05969,-0.27318 12.68572,-0.55819 15.9401,-1.73 5.80658,-2.09077 14.01577,-6.64327 21.31565,-11.82082 11.11979,-7.88688 24.73339,-15.02599 37.3696,-19.59699 19.75451,-7.14595 47.61142,-8.2755 73.91064,-2.99696 11.22813,2.25361 21.30296,3.47144 38.81603,4.69199 l 12.15628,0.84722 7.6545,-3.93476 c 11.50465,-5.91391 16.44725,-9.41772 24.99281,-17.71735 8.66686,-8.41747 17.61506,-18.97824 26.84144,-31.67863 5.70484,-7.85287 8.16872,-11.75384 19.56829,-30.98175 4.96917,-8.3816 9.24465,-13.54977 10.54466,-12.74632 1.76012,1.08781 -0.1049,24.45107 -3.31602,41.54013 -2.77156,14.74973 -6.58497,25.31952 -21.17991,58.70522 -5.04057,11.53023 -9.87829,23.4266 -10.75049,26.43637 -1.65036,5.69507 -3.69725,19.46297 -3.69725,24.86874 0,5.5525 3.5558,14.56044 5.75644,14.58286 2.02895,0.0207 2.66412,-3.5014 3.50083,-19.41231 0.75771,-14.40846 1.03035,-16.24834 2.40776,-16.24834 3.4589,0 20.66651,15.64573 30.14865,27.41215 6.84885,8.49876 13.06756,18.00203 16.06222,24.54585 2.68422,5.86546 7.66267,20.65255 15.84138,47.05237 6.60659,21.3252 9.78893,33.51346 11.13288,42.63855 1.33297,9.05051 3.00086,29.51265 3.00086,36.81543 0,12.00847 -3.86285,29.82667 -9.09945,41.97307 -9.77646,22.67672 -34.38635,54.53761 -49.87466,64.56964 -10.76138,6.97033 -25.95903,13.54263 -43.47388,18.80052 -17.31183,5.19695 -30.4318,7.70688 -68.96057,13.19264 -34.01646,4.84329 -47.55563,5.85221 -65.39287,4.87299 z m 94.30232,-16.29298 c 4.34782,-1.21339 9.72923,-3.77903 12.86932,-6.13558 1.69073,-1.26885 2.14673,-2.09176 2.14673,-3.87409 0,-5.03762 -6.43788,-5.96 -13.60881,-1.94978 -8.35146,4.6704 -14.18451,5.9913 -30.64696,6.94003 -15.41002,0.88807 -15.33113,0.8717 -15.0688,3.12742 0.39023,3.35558 1.73586,3.55376 22.0044,3.24071 14.28813,-0.22068 19.36139,-0.52745 22.30412,-1.34871 z m -51.69788,-15.1007 c 12.59778,-3.62521 23.50271,-9.02914 29.5168,-14.62705 l 3.73628,-3.47771 7.31782,3.09873 c 10.65992,4.51395 16.85805,5.91397 26.18227,5.91397 20.25981,0 39.01865,-7.23406 53.02742,-20.44923 5.85956,-5.52761 9.31721,-10.05549 13.63988,-17.86174 4.00397,-7.23074 5.79702,-9.90801 6.6357,-9.90801 0.32645,0 1.59997,1.00643 2.83005,2.23652 4.3472,4.34719 6.68391,4.39293 6.52357,0.12771 -0.15624,-4.15603 -3.80588,-9.28974 -8.61334,-12.11585 -2.83056,-1.66397 -3.60349,-1.80228 -9.71927,-1.73918 -7.25767,0.0749 -10.40184,1.0356 -10.72394,3.27675 -0.27368,1.9043 1.77842,3.50876 6.25228,4.88846 2.76782,0.85357 3.90451,1.54431 4.04409,2.45751 0.30938,2.02424 -6.14348,11.25004 -12.33657,17.63786 -6.65785,6.86719 -14.35399,12.80437 -20.81641,16.05879 -9.16214,4.61398 -27.21598,7.66358 -36.6779,6.19551 -15.42188,-2.39278 -28.36389,-13.85821 -32.67347,-28.94567 l -0.98903,-3.46254 2.10957,-1.58378 c 1.16026,-0.87108 4.04163,-2.54966 6.40304,-3.73018 2.7647,-1.38213 5.96216,-3.81882 8.97988,-6.8433 5.37589,-5.38791 7.39139,-9.68145 8.01032,-17.06412 0.24111,-2.87603 0.75056,-4.78466 1.44481,-5.41294 0.58981,-0.53377 6.14772,-2.14888 12.35092,-3.58915 22.18932,-5.15195 41.03608,-14.28772 51.58343,-25.00454 5.83742,-5.9312 8.91517,-11.83438 10.77693,-20.67034 0.72718,-3.45129 1.46131,-6.89438 1.63137,-7.65131 0.291,-1.29522 1.01192,-1.42282 12.24697,-2.1676 17.5335,-1.16231 27.81722,-3.13171 32.38954,-6.20279 1.79382,-1.20486 2.31312,-2.03573 2.47405,-3.95844 0.30787,-3.67831 -1.70972,-3.87467 -8.46629,-0.824 -6.63522,2.99588 -8.35531,3.51398 -14.16492,4.26648 -8.2882,1.07355 -20.0755,-1.15488 -24.27817,-4.58987 -2.08286,-1.70238 -1.17228,-2.39613 4.77113,-3.63499 9.74202,-2.03066 22.272,-9.40173 30.23885,-17.78875 4.90517,-5.16386 6.15756,-7.61681 4.75299,-9.30922 -1.95818,-2.35946 -4.19318,-1.12766 -14.05646,7.74713 -7.95651,7.15912 -16.54236,11.08666 -24.23609,11.08666 -3.95289,0 -4.76952,-0.4641 -5.60464,-3.1852 -0.88699,-2.89012 0.24261,-4.54355 6.59447,-9.65244 9.46874,-7.61586 12.9389,-10.8104 15.76728,-14.51502 3.29568,-4.31666 8.33188,-14.60459 8.33188,-17.0203 0,-1.60031 -0.26122,-1.86441 -1.84407,-1.86441 -2.17395,0 -4.64447,2.41962 -12.51586,12.25795 -9.01824,11.27177 -18.7802,19.29062 -21.11998,17.34877 -0.4867,-0.40392 -2.4805,-3.44554 -4.43066,-6.75915 -4.71782,-8.01626 -11.63278,-16.84954 -17.62723,-22.51731 -3.75907,-3.55421 -6.72283,-5.56338 -12.81286,-8.68601 -17.54045,-8.99376 -32.75082,-11.28739 -45.51973,-6.86411 -10.20788,3.53612 -20.59923,13.46697 -26.63863,25.45813 -2.6179,5.19782 -6.41343,16.48699 -7.77271,23.11869 -3.17097,15.47055 -0.85723,51.81885 4.32912,68.00957 1.07591,3.35878 1.9562,6.5963 1.9562,7.19449 0,1.70271 -1.75704,1.27665 -3.2225,-0.78141 -1.33594,-1.87615 -10.45373,-23.65912 -13.97373,-33.38409 -2.60747,-7.20387 -11.43633,-20.86069 -21.61517,-33.43515 -7.91294,-9.77529 -25.22698,-23.16977 -33.10096,-25.60756 -2.97965,-0.9225 -6.14755,-1.14808 -15.93866,-1.13496 l -12.21987,0.0164 -4.92088,2.14733 c -12.15483,5.30402 -18.76879,10.26021 -25.29325,18.95355 -5.50164,7.33051 -9.73639,15.41758 -12.81357,24.46998 -2.18147,6.41739 -2.48353,8.10134 -2.66112,14.83525 -0.19648,7.45027 -0.2375,7.6299 -2.13621,9.35442 -2.66381,2.41942 -8.13101,3.46402 -15.59023,2.97876 -7.31798,-0.47608 -13.83642,-2.39383 -19.48176,-5.73161 -5.73302,-3.38962 -8.58694,-3.73632 -8.58694,-1.04317 0,2.25534 4.59882,6.07857 11.30968,9.40231 7.15004,3.54127 9.22205,4.05866 19.47632,4.86336 12.2886,0.96433 14.13031,1.28771 14.13031,2.48109 0,1.76046 -5.0545,5.91691 -8.98254,7.38658 -9.62874,3.60257 -15.64235,3.46967 -26.39793,-0.58341 -3.9217,-1.47784 -7.37436,-2.68698 -7.67257,-2.68698 -1.05732,0 -0.52222,4.16987 0.81216,6.32895 0.7449,1.20527 2.44512,2.86554 3.77828,3.68947 2.31745,1.43226 3.19945,1.5135 20.08123,1.84976 11.6959,0.23296 17.90639,0.60119 18.39502,1.09068 0.99707,0.99878 -5.73479,8.27816 -10.4524,11.30252 -4.64043,2.97488 -11.13287,5.36456 -15.81711,5.82181 -7.67896,0.74959 -8.09191,0.8837 -8.09191,2.62795 0,0.99159 0.64271,2.02729 1.67967,2.70674 3.76706,2.46827 17.51625,-0.69959 32.99837,-7.60294 4.84031,-2.15826 6.1406,-2.50327 6.99866,-1.85703 0.57962,0.43655 3.10617,2.34365 5.61454,4.23802 22.48864,16.98376 69.99612,23.75615 101.34357,14.44696 5.61964,-1.66886 6.21,-1.49872 8.4263,2.42835 2.56078,4.53745 8.4564,10.48429 12.18199,12.28782 2.06263,0.9985 5.23415,1.64044 10.48754,2.12279 5.59761,0.51394 7.83292,0.98765 8.70789,1.84539 0.68771,0.67416 1.83485,4.06467 2.759,8.15458 0.87002,3.85035 2.05602,7.91759 2.63557,9.0383 2.65397,5.13222 2.69497,4.95917 -2.12206,8.9575 -22.28797,18.49993 -70.92975,22.1679 -100.03335,7.54329 -2.07321,-1.04179 -4.84005,-2.83414 -6.14852,-3.98299 -2.86926,-2.51924 -2.29169,-3.15075 2.98239,-3.26102 5.14312,-0.10753 6.89626,-0.71665 7.15144,-2.48471 0.27452,-1.90208 -0.78203,-3.1609 -4.05401,-4.83014 -6.62311,-3.37886 -13.79769,-1.83123 -17.68181,3.81413 -2.69215,3.91292 -4.57111,9.60353 -4.57111,13.8441 0,4.25904 0.45763,5.56516 1.9499,5.56516 1.64267,0 3.09645,-1.87983 3.95892,-5.11914 0.41109,-1.544 1.0475,-2.80727 1.41424,-2.80727 0.36675,0 2.36166,1.08523 4.43315,2.41161 4.86989,3.11823 10.54321,5.65151 19.8687,8.87189 15.55002,5.36989 19.53917,5.87552 44.00623,5.57793 15.89411,-0.19333 17.59227,-0.32929 22.78842,-1.82456 z m -130.30026,-199.8642 c 0.44865,-0.28497 1.37802,-2.15247 2.06527,-4.15 3.88465,-11.29092 8.96617,-16.45947 18.77484,-19.0964 2.98433,-0.8023 6.00271,-1.76444 6.70752,-2.13809 1.24993,-0.66264 1.24568,-0.70835 -0.17272,-1.8569 -3.34792,-2.71098 -13.57081,-3.459 -17.18219,-1.25724 -3.11094,1.89665 -8.30806,7.24165 -10.68712,10.99122 -3.36577,5.30468 -5.87839,15.90147 -4.17444,17.60541 0.60198,0.60199 3.66811,0.53762 4.66884,-0.098 z m 226.11973,-44.75889 c 0.72105,-0.8688 0.65857,-1.42354 -0.37681,-3.34613 -1.56028,-2.89727 -8.80883,-9.72733 -12.11145,-11.4122 -6.97503,-3.55839 -21.64808,-4.97776 -25.36935,-2.45405 -2.41089,1.63502 -2.29577,2.47483 0.71173,5.19192 2.45005,2.21348 2.74398,2.29803 9.50803,2.73534 10.08813,0.65222 13.83915,2.10507 20.15005,7.8046 3.03323,2.7394 5.96237,3.31856 7.4878,1.48052 z"
           style="opacity:1;fill:#cccccc;fill-opacity:1;stroke:#cccccc;stroke-width:6.96775;stroke-miterlimit:4;stroke-dasharray:none;stroke-dashoffset:0;stroke-opacity:1;paint-order:stroke fill markers" />
        <path
           transform="scale(0.26458333)"
           inkscape:connector-curvature="0"
           id="path4776"
           d="m -689.86142,906.19719 c -14.20532,-7.26676 -19.15751,-10.44862 -23.5035,-15.10134 -4.46016,-4.77494 -5.56,-8.21786 -5.56,-17.40485 0,-6.52556 0.20094,-7.96852 1.42571,-10.23828 1.66951,-3.09396 4.3073,-5.68396 7.35604,-7.22277 1.61041,-0.81284 9.59841,-2.23757 13.17542,-2.34996 0.0878,-0.003 -0.0246,-9.44239 -0.24975,-20.97697 -1.12949,-57.87453 4.82976,-76.58718 35.2168,-110.58433 7.8566,-8.79 12.75983,-12.91544 19.5654,-16.46181 17.44944,-9.09286 34.03927,-9.49009 51.49322,-1.23298 5.72467,2.70823 6.89717,2.58296 6.46001,-0.69014 -0.24684,-1.8482 -4.11527,-5.15819 -9.67582,-8.27904 -3.04735,-1.71033 -5.53596,-3.29669 -5.53024,-3.52526 0.006,-0.22856 3.16775,-3.83384 7.02672,-8.01172 15.02959,-16.27163 20.47909,-23.64041 27.84397,-37.65043 7.37939,-14.0376 15.42317,-34.7027 18.25477,-46.89791 0.54829,-2.36141 2.51565,-10.98138 4.37191,-19.15549 1.85625,-8.17411 3.59777,-15.0955 3.87005,-15.38086 0.9461,-0.99159 71.47507,-13.38407 72.95038,-12.81795 1.27322,0.48858 2.17357,4.62227 3.70862,17.02694 1.64901,13.32571 1.75154,13.92818 3.72923,21.91372 2.96101,11.95603 8.89106,27.01898 17.09456,43.42194 9.79686,19.58886 12.69788,26.99201 16.44042,41.95451 3.98643,15.93753 4.63031,20.62055 4.63031,33.67663 0,15.43367 -1.60518,24.20057 -9.2332,50.42841 -5.63947,19.39048 -10.11302,29.60237 -20.58957,47.00035 -20.61432,34.23335 -38.52902,58.78752 -42.89133,58.78752 -4.02315,0 -8.31751,-7.46515 -9.55242,-16.60558 -1.02616,-7.59537 -0.31458,-27.72993 1.37406,-38.87927 1.60124,-10.57228 3.93183,-20.17519 8.49639,-35.0083 3.08536,-10.02629 8.76308,-30.86264 16.69131,-61.25445 3.94089,-15.10689 5.24073,-19.03905 9.55619,-28.90844 4.69728,-10.74263 4.7367,-10.89881 2.75108,-10.89881 -2.12252,0 -4.5713,1.99967 -7.79861,6.36831 -1.45278,1.96655 -2.8965,3.4179 -3.20826,3.22521 -0.54203,-0.33499 -1.84762,-7.07029 -2.17974,-11.24486 -0.13786,-1.73275 -0.43928,-2.00849 -2.40027,-2.19573 -1.34871,-0.12878 -2.46364,0.1345 -2.79715,0.66053 -0.305,0.48107 -0.56171,6.225 -0.57047,12.76428 -0.039,29.16943 -2.17176,42.48597 -11.21359,70.0166 -5.02721,15.30691 -9.60819,30.97543 -14.31365,48.95763 -2.84376,10.86761 -3.11445,12.58879 -3.38725,21.53819 -0.35372,11.6033 0.5832,20.60034 3.20487,30.77565 2.72588,10.57984 2.61952,12.27781 -1.07709,17.19539 -8.47834,11.27869 -19.22102,16.53608 -32.15373,15.73582 -9.42509,-0.58322 -11.53009,-2.40332 -12.45347,-10.76799 -0.31566,-2.85951 -0.86661,-13.07597 -1.22432,-22.70326 -0.67914,-18.27807 -1.28757,-23.24004 -6.23648,-50.86111 -3.98197,-22.2243 -5.34063,-34.19624 -6.42133,-56.58211 -0.50989,-10.56229 -0.50612,-17.99018 0.0134,-26.41161 1.16795,-18.93088 2.88056,-27.16595 8.27071,-39.76972 2.7526,-6.43637 1.33408,-9.44647 -2.61323,-5.54529 -2.20875,2.18294 -4.10376,6.29082 -6.77985,14.69688 -3.99872,12.56073 -6.01336,26.87233 -6.55531,46.56765 -0.75029,27.26705 2.4635,55.14627 9.7083,84.21808 3.63283,14.57779 4.50944,19.79668 5.29994,31.55325 0.68142,10.13432 0.46308,14.97106 -0.70853,15.69514 -0.31806,0.19658 -2.08528,-0.40624 -3.92715,-1.33959 -1.84188,-0.93334 -7.38166,-2.85622 -12.31063,-4.27304 -4.92897,-1.41682 -9.09122,-2.7055 -9.24944,-2.86372 -0.15822,-0.15822 1.53523,-4.1165 3.76321,-8.79617 6.10587,-12.8248 7.34134,-16.4203 7.37707,-21.46904 0.0632,-8.93351 -1.43206,-7.63506 -9.07945,7.88418 -7.26942,14.75219 -11.63199,21.46044 -18.1339,27.88417 -5.9875,5.91552 -9.57202,7.86915 -18.84585,10.27137 -5.67301,1.46949 -7.49106,1.65843 -12.88042,1.33861 -7.2638,-0.43106 -19.34334,-2.8417 -28.53013,-5.69358 -7.53327,-2.33857 -12.06544,-3.08549 -12.68079,-2.08982 -0.69343,1.12199 2.0358,3.1781 7.27446,5.48033 2.68017,1.17783 4.873,2.40608 4.873,2.72944 0,0.32336 -1.34452,2.47211 -2.98783,4.775 -5.69568,7.98178 -9.56231,18.92661 -9.56231,27.06691 0,1.97191 -0.283,2.9925 -0.82567,2.97762 -0.45412,-0.0124 -6.47323,-2.91165 -13.37581,-6.44268 z m 211.67332,-62.12795 c 1.97421,-1.87802 2.66995,-3.06181 2.66995,-4.54286 0,-2.32904 -0.82984,-3.15762 -3.79807,-3.7923 -1.1807,-0.25246 -2.14674,-0.69658 -2.14674,-0.98693 0,-0.83839 3.30729,-1.88015 7.43101,-2.34069 4.23938,-0.47345 4.97449,-1.70328 2.40579,-4.0248 -2.06111,-1.86277 -10.48103,-1.7501 -14.13027,0.18909 -4.56422,2.4254 -6.45237,4.9543 -6.7964,9.10275 -0.29286,3.53156 -0.22067,3.72528 2.34374,6.2897 2.39245,2.39244 2.96706,2.6459 5.99848,2.6459 2.98556,0 3.64484,-0.27804 6.02251,-2.53986 z"
           style="opacity:1;fill:#cccccc;fill-opacity:1;stroke:#cccccc;stroke-width:6.96775;stroke-miterlimit:4;stroke-dasharray:none;stroke-dashoffset:0;stroke-opacity:1;paint-order:stroke fill markers" />
        <path
           transform="scale(0.26458333)"
           inkscape:connector-curvature="0"
           id="path4778"
           d="m -411.7885,822.81675 c -1.45651,-1.60943 -5.98787,-16.28127 -7.23219,-23.4167 -2.48659,-14.2592 -1.93621,-28.35358 1.94614,-49.83764 3.80867,-21.0763 4.51702,-28.8788 4.1263,-45.45103 -0.31836,-13.50262 -0.25856,-14.63701 0.74297,-14.09548 2.79432,1.51089 14.79884,14.05669 17.53699,18.32771 8.37624,13.06546 11.48874,29.79025 10.78736,57.9651 -0.27939,11.2232 -0.61357,14.92084 -1.72663,19.10468 -1.66177,6.24637 -6.003,15.60781 -10.1736,21.93838 -3.69918,5.615 -10.86778,14.11905 -13.17768,15.63255 -1.58866,1.04093 -1.74433,1.03171 -2.82966,-0.16757 z"
           style="opacity:1;fill:#cccccc;fill-opacity:1;stroke:#cccccc;stroke-width:6.96775;stroke-miterlimit:4;stroke-dasharray:none;stroke-dashoffset:0;stroke-opacity:1;paint-order:stroke fill markers" />
        <path
           transform="scale(0.26458333)"
           inkscape:connector-curvature="0"
           id="path4780"
           d="m -474.36222,870.89918 c -4.2687,-1.8457 -7.76127,-3.63792 -7.76127,-3.9827 0,-0.34479 2.15499,-3.22144 4.78887,-6.39256 2.63388,-3.17112 6.7975,-8.34233 9.25249,-11.49158 2.45499,-3.14925 4.73555,-5.72591 5.06791,-5.72591 1.46705,0 3.69159,12.97284 2.93581,17.12072 -0.36275,1.99088 -5.88114,14.02315 -6.36403,13.87612 -0.0872,-0.0266 -3.65107,-1.55839 -7.91978,-3.40409 z"
           style="opacity:1;fill:#cccccc;fill-opacity:1;stroke:#cccccc;stroke-width:6.96775;stroke-miterlimit:4;stroke-dasharray:none;stroke-dashoffset:0;stroke-opacity:1;paint-order:stroke fill markers" />
        <path
           transform="scale(0.26458333)"
           inkscape:connector-curvature="0"
           id="path4782"
           d="m -904.02669,869.42204 c -10.0467,-4.38599 -11.72873,-6.17485 -12.94092,-13.76286 -1.44775,-9.06255 1.01073,-17.01571 7.28169,-23.5562 4.35381,-4.54094 9.30902,-7.52441 18.65763,-11.23352 16.48715,-6.54136 35.08531,-15.16658 50.00086,-23.18876 5.99435,-3.224 14.81822,-7.34009 19.6086,-9.14688 4.79037,-1.80678 12.07276,-4.74727 16.18308,-6.53442 8.27051,-3.59598 25.30664,-9.59532 26.28484,-9.25631 0.34356,0.11906 -1.38723,3.18888 -3.84619,6.82181 -10.18384,15.04596 -14.18073,31.99072 -11.03068,46.76445 1.08262,5.07747 1.1181,5.93232 0.281,6.76943 -0.52696,0.52695 -4.71472,1.67967 -9.30615,2.56159 -16.10413,3.09327 -24.17461,5.96662 -48.33029,17.20709 -8.09368,3.76627 -18.29133,8.34164 -22.66144,10.16748 -8.17945,3.41739 -22.89322,8.68069 -24.22724,8.66639 -0.41374,-0.005 -3.09339,-1.03012 -5.95479,-2.27929 z"
           style="opacity:1;fill:#cccccc;fill-opacity:1;stroke:#cccccc;stroke-width:6.96775;stroke-miterlimit:4;stroke-dasharray:none;stroke-dashoffset:0;stroke-opacity:1;paint-order:stroke fill markers" />
        <path
           transform="scale(0.26458333)"
           inkscape:connector-curvature="0"
           id="path4784"
           d="m -1051.9899,747.05672 c -1.8231,-1.82316 3.2665,-26.59835 12.0477,-58.6455 2.19,-7.99247 6.3611,-23.61908 9.2691,-34.72581 6.1362,-23.43586 7.2193,-26.59245 10.5796,-30.83357 6.6397,-8.38 14.7185,-13.93741 21.08052,-14.5012 8.68355,-0.76952 21.91556,5.36538 21.91556,10.16095 0,0.83003 -1.97696,7.83118 -4.39324,15.5581 -12.22163,39.08304 -14.05016,45.96105 -18.04665,67.88247 -2.35039,12.89209 -4.01869,24.47278 -5.64399,39.17757 -0.2437,2.20461 -0.7908,3.97962 -1.2851,4.1693 -0.4734,0.18167 -2.6805,-0.43564 -4.9047,-1.37179 -5.517,-2.32207 -12.5452,-3.70761 -18.8869,-3.7234 -5.8872,-0.0147 -8.1271,0.62631 -15.9711,4.57021 -2.9438,1.48011 -5.5361,2.50731 -5.7608,2.28267 z"
           style="opacity:1;fill:#cccccc;fill-opacity:1;stroke:#cccccc;stroke-width:6.96775;stroke-miterlimit:4;stroke-dasharray:none;stroke-dashoffset:0;stroke-opacity:1;paint-order:stroke fill markers" />
        <path
           transform="scale(0.26458333)"
           inkscape:connector-curvature="0"
           id="path4786"
           d="m -913.05605,448.84935 c -4.62126,-4.34418 -8.69858,-6.54936 -16.04688,-8.67882 -7.26249,-2.10458 -23.77151,-4.56525 -26.85741,-4.00309 -1.27153,0.23163 -4.7641,1.75176 -7.76127,3.37806 -2.99717,1.6263 -5.45474,2.71841 -5.46126,2.42692 -0.0375,-1.67449 -1.94968,-12.87728 -2.62543,-15.38095 -1.31248,-4.86274 -3.62167,-8.76661 -10.84559,-18.33538 -10.05734,-13.32189 -15.08339,-18.43573 -25.13031,-25.56928 -12.5999,-8.94615 -21.2466,-16.07772 -27.6426,-22.79882 -5.7372,-6.02886 -9.7056,-12.50053 -9.7056,-15.82797 0,-2.95235 2.5668,-11.15894 5.004,-15.99846 4.3144,-8.56731 10.1658,-13.10277 19.923,-15.44238 6.8935,-1.65295 22.59904,-1.05147 33.68395,1.29 17.52888,3.70264 30.02542,8.9186 44.43904,18.54853 22.45636,15.00339 32.96071,30.77105 38.72172,58.1236 1.63836,7.77873 1.81197,9.92359 1.84448,22.78842 0.0351,13.89833 -0.53969,20.08597 -2.60115,28.00049 -1.45593,5.58968 -3.6673,10.97261 -4.49712,10.94693 -0.42802,-0.0133 -2.42673,-1.57376 -4.44157,-3.4678 z"
           style="opacity:1;fill:#cccccc;fill-opacity:1;stroke:#cccccc;stroke-width:6.96775;stroke-miterlimit:4;stroke-dasharray:none;stroke-dashoffset:0;stroke-opacity:1;paint-order:stroke fill markers" />
        <path
           transform="scale(0.26458333)"
           inkscape:connector-curvature="0"
           id="path4788"
           d="m -447.19365,860.22486 c -0.8227,-0.35039 -1.81445,-1.46246 -2.20389,-2.47127 -0.77007,-1.99476 -3.29431,-14.05245 -4.60539,-21.99881 l -0.82039,-4.97233 7.67515,-12.91434 c 8.34709,-14.04495 16.97288,-29.59949 16.97288,-30.6065 0,-0.39914 0.22064,-0.40089 0.59848,-0.005 0.32916,0.34513 1.09656,3.15405 1.70534,6.24205 1.88244,9.54861 4.21018,18.18018 8.26104,30.63311 4.78045,14.6958 6.60902,21.26903 6.60902,23.75773 0,4.39625 -4.51222,9.25086 -10.6976,11.50935 -3.33866,1.21905 -21.10506,1.84347 -23.49464,0.82574 z"
           style="opacity:1;fill:#cccccc;fill-opacity:1;stroke:#cccccc;stroke-width:6.96775;stroke-miterlimit:4;stroke-dasharray:none;stroke-dashoffset:0;stroke-opacity:1;paint-order:stroke fill markers" />
      </g>
      <path
         id="path4758"
         style="fill:#000000;stroke-width:1.33333"
         d="m -395.14648,81.433594 c -0.54369,0 -6.85905,10.05065 -14.03516,22.333986 -21.66773,37.08857 -22.72767,38.52434 -44.11133,59.82617 -15.98596,15.9248 -22.0263,21.04251 -28.75586,24.35547 -15.75931,7.75827 -30.23993,8.07695 -63.84375,1.4043 -7.69999,-1.52898 -20.64761,-3.11546 -28.77148,-3.5254 -12.72987,-0.64232 -16.23069,-0.3336 -25.33399,2.24024 -22.22086,6.28268 -42.62379,15.32607 -58.11328,25.75586 -13.28319,8.94421 -24.19759,12.23492 -40.44922,12.19531 -17.83808,-0.0434 -30.3836,-3.68279 -55.15039,-15.99414 -23.68286,-11.77255 -41.64149,-23.57804 -54.14258,-35.5918 -5.15077,-4.94999 -9.66627,-8.98046 -10.03515,-8.95703 -1.1427,0.0729 -11.35386,18.739 -16.42969,30.03516 -6.90716,15.3718 -8.04698,22.22722 -7.19141,43.22461 1.24581,30.57522 9.36257,54.35551 26.17969,76.69726 4.416,5.86667 16.92402,19.66602 27.79492,30.66602 19.16674,19.39437 29.60771,31.11807 33.8418,38 1.39442,2.26651 2.32986,8.63798 2.92578,19.9043 2.39841,45.34337 7.82393,68.95375 20.49219,89.18945 9.28388,14.82962 11.27362,16.85005 29.71484,30.16211 18.27217,13.18998 27.06149,17.7722 49.02735,25.56445 30.05979,10.66352 72.02698,19.18205 84.96679,17.2461 2.20385,-0.32973 7.15589,-0.95046 11.00586,-1.37891 l 7,-0.7793 v 4.31055 c 0,9.33676 -19.02364,61.1241 -30.79687,83.83789 -5.56959,10.74527 -19.3601,28.88009 -27.19336,35.75781 -4.54602,3.99145 -5.29773,4.18555 -16.09766,4.18555 -13.66409,0 -17.06686,1.28305 -32.01758,12.07617 -17.52219,12.64948 -34.32897,34.75233 -41.66601,54.79297 -3.10258,8.47446 -6.87419,28.38353 -6.9082,36.46484 -0.0124,2.93333 -0.39255,6.71195 -0.84375,8.39649 -0.73199,2.73263 -1.46842,2.08584 -6.83985,-6 -3.31124,-4.98456 -10.77618,-13.68626 -16.58789,-19.33594 -13.61476,-13.23519 -20.63266,-16.24469 -37.71484,-16.17969 -10.62887,0.0406 -14.05678,0.73553 -30,6.08594 -10.20658,3.42524 -27.81328,10.95403 -40.66602,17.38867 -27.36389,13.69962 -51.95154,24.47896 -61.52539,26.97266 -3.88414,1.01166 -12.70561,2.25342 -19.60351,2.75976 -37.89396,2.78159 -71.83442,-20.32815 -78.91211,-53.72851 -3.99655,-18.86015 -2.64615,-31.24662 8.55078,-78.35938 7.36592,-30.9931 14.87172,-52.89849 26.72265,-78 4.32779,-9.16667 10.70056,-23.2673 14.16211,-31.33398 3.46156,-8.06665 9.281,-21.56667 12.93164,-30 9.42316,-21.76857 28.08076,-70.60241 32.09375,-84 10.93508,-36.50729 13.71554,-57.52218 9.70508,-73.33399 -4.52296,-17.83249 -16.66394,-38.62689 -29.625,-50.73828 -12.52996,-11.70858 -40.05167,-26.05205 -59.91797,-31.22656 -9.78939,-2.54987 -30.94585,-2.61473 -40.29885,-0.125 -11.4781,3.05543 -23.753,11.937 -29.6211,21.43164 -2.6923,4.35595 -2.949,6.09512 -2.3398,15.85938 0.3763,6.03227 1.6109,12.73105 2.7441,14.88476 3.202,6.0855 15.3165,16.91542 25.6035,22.88867 11.8171,6.86166 34.67682,29.08648 39.7559,38.65235 4.57493,8.6163 7.52055,22.06438 7.55078,34.48047 0.0177,7.23352 -1.35871,14.24213 -5.88867,30 -3.251,11.3088 -7.52125,24.16057 -9.49023,28.56054 -1.96895,4.40002 -6.14832,13.69937 -9.28708,20.66602 -3.1389,6.96665 -6.4069,15.36795 -7.2618,18.66797 -0.8547,3.29998 -3.6013,11.4 -6.1035,18 -4.3355,11.43602 -6.2408,18.60668 -19.3007,72.66601 -3.1004,12.83335 -9.1779,34.43335 -13.5059,48 -10.2921,32.26198 -13.6028,48.27973 -12.6777,61.33399 2.0586,29.04964 3.6798,46.02182 4.9355,51.68359 2.45,11.04612 18.0765,37.11413 28.6035,47.7168 8.2796,8.33907 11.0895,10.17618 24.8906,16.28125 24.96992,11.04555 44.44867,16.47524 66.29302,18.47461 21.77975,1.99343 48.66053,-5.64565 91.98828,-26.14063 25.36063,-11.9961 35.99768,-14.68359 58.13672,-14.68359 20.94549,0 44.64855,6.97498 59.62304,17.54492 3.26563,2.30506 3.53224,3.12362 2.88477,8.83203 -0.39243,3.45997 -0.0865,10.19037 0.67969,14.95703 1.24622,7.75367 2.00578,9.2285 7.20898,14 3.41356,3.13032 14.86339,9.89964 27.7207,16.38868 18.06036,9.11493 24.71498,11.7351 37.90625,14.91992 23.03554,5.5615 41.31419,8.44599 47.05469,7.42578 5.07798,-0.9024 6.02584,-0.91516 22.71094,-0.29883 9.54875,0.35267 9.81273,0.45627 11.85156,4.66602 3.58303,7.39812 16.85289,16.65869 28.28906,19.74218 8.02538,2.16378 19.54993,2.13885 25.69922,-0.0566 2.71654,-0.96986 7.98444,-3.71794 11.70508,-6.10547 5.73196,-3.67816 8.14555,-4.38298 15.81055,-4.62109 6.0726,-0.18848 10.45234,-1.11215 13.32422,-2.80859 4.91092,-2.90098 8.9872,-10.56842 10.23437,-19.25196 0.47395,-3.30002 1.70124,-7.14673 2.72852,-8.54882 1.80574,-2.46471 1.96245,-2.43133 4.69531,1.04296 6.49379,8.25551 24.99461,13.80395 41.43359,12.42579 9.94126,-0.83347 13.92943,-2.69124 20.27344,-9.44922 3.59255,-3.82685 4.39676,-4.06201 14.16211,-4.14063 8.88904,-0.0717 11.1116,-0.58448 15.69727,-3.61914 7.0194,-4.64523 10.99804,-12.85709 10.99804,-22.70117 0,-6.57815 0.44242,-7.82952 3.66602,-10.35156 4.95794,-3.87897 11,-13.04898 11,-16.69532 0,-8.24685 -7.35232,-18.72624 -16.66602,-23.75195 -4.86346,-2.62428 -7.31854,-2.87695 -27.86523,-2.87695 -21.2956,0 -22.58999,-0.14759 -23.57422,-2.66797 -1.82619,-4.67649 -1.39857,-5.55551 7.92383,-16.36133 9.98271,-11.57117 20.37331,-26.87526 24.65039,-36.30469 3.65559,-8.05935 3.46764,-25.22727 -0.48242,-44 -3.47816,-16.52999 -6.74275,-25.76234 -11.69922,-33.08593 -4.33849,-6.41038 -17.76486,-20.6864 -24.68555,-26.24805 -4.3443,-3.49123 -5.39671,-5.53857 -8.27539,-16.10352 -3.15145,-11.56596 -12.51076,-35.95537 -27.08008,-70.5625 -8.25301,-19.60403 -10.46119,-30.60947 -7.98828,-39.82226 l 1.74219,-6.48828 12.09765,-4.30469 c 17.27188,-6.1477 26.39658,-10.55186 35.86524,-17.30859 8.09246,-5.77463 24.27684,-22.06758 31.20117,-31.41016 1.90231,-2.56668 5.65704,-7.36604 8.34375,-10.66602 15.64887,-19.22093 24.69709,-51.46242 23.51758,-83.80078 -0.96355,-26.41781 -12.9098,-81.45724 -21.2793,-98.03711 l -3.98242,-7.88672 4.69141,-10.13867 c 13.47945,-29.12758 17.92666,-47.15579 19.11328,-77.4707 1.08412,-27.69654 -3.21668,-48.54117 -15.5625,-75.41992 -7.49651,-16.32108 -31.98083,-51.246096 -35.92578,-51.246096 z m 5.91992,15.333984 6.53906,10.000002 c 10.74128,16.42375 14.98204,25.09702 21.18164,43.33203 8.38016,24.64888 9.61668,32.27537 9.60156,59.33398 -0.011,22.75922 -0.13942,23.8261 -5.18554,43.33399 -2.84542,11 -6.63216,22.99935 -8.41602,26.66601 -1.78382,3.66667 -3.71353,7.14923 -4.28711,7.73829 -0.57358,0.58905 -5.58161,-5.71095 -11.12891,-14 -16.65508,-24.88697 -23.58301,-32.34219 -42.14257,-45.3418 l -3.03125,-2.12305 9.95508,-20.47656 c 23.00393,-47.30904 25.00834,-53.84636 26.0996,-85.13086 z m -10.55664,7.314452 c 0.32479,-0.0295 0.57671,0.10163 0.74609,0.4043 1.8878,3.37335 -1.25126,34.72679 -4.92969,49.24023 -3.45449,13.62966 -7.6857,24.82963 -18.52539,49.04102 -11.44686,25.56761 -12.7357,29.13882 -14.24804,39.46875 -1.98857,13.58301 -1.79663,19.42096 0.80664,24.45508 4.35673,8.42501 5.64908,5.15162 6.41992,-16.26172 0.28384,-7.88531 0.90301,-14.72331 1.375,-15.19531 2.31553,-2.31551 18.98148,11.74828 30.21679,25.49804 13.18859,16.14012 17.82145,24.51586 23.69727,42.84961 20.18052,62.96751 20.70551,65.11802 23.05078,94.35352 1.59818,19.92283 1.15694,26.30351 -2.96094,42.83203 -3.87824,15.56666 -11.53305,30.4204 -24.86523,48.24804 -16.40251,21.93328 -23.98377,29.17106 -38.52539,36.78711 -22.87877,11.98254 -50.82568,19.79717 -89.63281,25.0625 -15.72911,2.13415 -31.92911,4.45496 -36,5.15625 -4.07093,0.70133 -14.00168,1.54795 -22.06836,1.88282 -41.204,1.71118 -67.80186,-5.84432 -115.30274,-32.75391 -31.73616,-17.97876 -41.57713,-29.32401 -52.70508,-60.76953 -6.1992,-17.51792 -8.64673,-34.0898 -8.65429,-58.56836 -0.009,-34.83498 4.95136,-60.20284 16.67969,-85.30078 5.60413,-11.99255 6.14935,-12.6978 7.95703,-10.3086 1.06726,1.41062 1.95974,2.93024 1.98242,3.37696 0.0233,0.44672 2.16572,5.40511 4.75976,11.01953 4.25764,9.21509 4.96968,10.07094 7.33204,8.80664 3.70121,-1.98083 3.32293,-4.32056 -2.71875,-16.80273 -6.99984,-14.46159 -16.38493,-24.45935 -38.00586,-40.49024 -12.84488,-9.52388 -20.59778,-16.55028 -29.89844,-27.09766 -13.81886,-15.67118 -26.62119,-32.91334 -31.45313,-42.35937 -2.93933,-5.74611 -7.80531,-26.50132 -6.51562,-27.79102 0.32545,-0.32542 2.82984,1.55885 5.56641,4.1875 17.61682,16.92225 57.1452,38.94847 82.31054,45.86719 11.16635,3.06998 16.04206,3.6756 30,3.7168 15.06921,0.0446 17.45941,-0.2883 24.94336,-3.45703 4.55252,-1.92756 11.75253,-6.14778 16,-9.37891 14.22879,-10.82406 36.99599,-21.50448 51.72266,-24.26367 19.99638,-3.74652 47.23078,-3.19741 63.33398,1.27539 4.03332,1.12029 16.47822,2.72964 27.65625,3.57812 l 20.32422,1.54297 11.67578,-5.86914 c 9.53851,-4.7943 14.00029,-8.1953 24.37305,-18.58203 13.00985,-13.02733 30.14826,-36.07959 39.18945,-52.71484 6.73445,-12.39102 12.61709,-20.47918 14.89063,-20.68555 z m -418.75,81.7168 c 0.74846,-0.21062 2.09199,3.66996 2.98437,8.625 1.05782,5.87377 4.27638,14.34676 9.24805,24.34375 7.22638,14.53068 8.49493,16.19337 24.22461,31.78125 9.12922,9.0469 23.55406,21.74037 32.05664,28.20703 8.50254,6.46667 18.37163,14.36436 21.93164,17.55078 l 6.47266,5.79297 -7.39844,14 c -8.16008,15.44174 -14.55123,33.18394 -16.93555,47.00781 -0.8544,4.95364 -1.98474,9.27186 -2.51172,9.59766 -0.52694,0.32568 -5.36362,-4.77719 -10.74804,-11.33985 -5.38443,-6.56265 -10.23274,-11.93164 -10.77344,-11.93164 -2.17176,0 -28.4712,-26.30708 -33.87891,-33.88867 -7.14225,-10.01338 -20.112,-32.68594 -23.36523,-40.8457 -4.0035,-10.04169 -7.06395,-33.51464 -6.37891,-48.91797 0.58912,-13.24614 0.82892,-14.14344 7.16016,-26.6543 3.60336,-7.12037 7.16361,-13.11749 7.91211,-13.32812 z m 338.67382,77.32226 c -2.98233,0.0149 -5.39562,0.43993 -6.57031,1.32618 -2.47835,1.86989 -2.47008,1.97912 0.32813,4.77734 2.25713,2.25714 4.3463,2.83051 9.86914,2.70703 8.17738,-0.18287 15.01254,2.38724 19.61328,7.375 3.22526,3.49659 6.724,4.13437 7.63672,1.39258 0.84695,-2.54422 -8.75167,-12.24452 -14.32031,-14.47266 -5.03514,-2.01466 -11.58607,-3.13024 -16.55665,-3.10547 z m -11.66992,31.89649 c -0.83397,0.0213 -1.65437,0.0662 -2.46093,0.13672 -16.18617,1.416 -31.1383,14.30766 -38.29102,33.01367 -5.24976,13.72929 -6.94519,22.48038 -6.94141,35.78125 0.007,16.59751 2.68501,40.29963 5.43946,48.15039 3.53076,10.06348 3.52589,10 0.80078,10 -1.84332,0 -3.62539,-3.18423 -7.45703,-13.33203 -2.76889,-7.33334 -6.0285,-15.25463 -7.24414,-17.60156 -1.21565,-2.3469 -2.20899,-5.13865 -2.20899,-6.20508 0,-3.1725 -17.77463,-29.00617 -24.81445,-36.06641 -9.63251,-9.66041 -22.84461,-19.24554 -29.05664,-21.08008 -3.00488,-0.8874 -10.26221,-1.62709 -16.12891,-1.64257 -9.57751,-0.0256 -11.72964,0.47602 -21.06836,4.91601 -7.67335,3.64821 -12.2193,6.93245 -17.33398,12.52539 -11.19443,12.24122 -20.71516,35.25924 -18.9375,45.78125 0.63511,3.75916 0.24878,5.34254 -1.74024,7.14258 -5.85097,5.29504 -26.18833,3.85584 -35.58007,-2.51758 -4.99525,-3.38986 -8.67383,-4.20453 -8.67383,-1.91992 0,2.40208 4.81087,6.21619 12.73242,10.0918 6.43223,3.14698 9.94018,3.90316 20.19336,4.35156 6.82439,0.29847 12.4082,1.11061 12.4082,1.80469 0,3.5043 -3.39316,6.4985 -10.27734,9.07422 -8.73509,3.26818 -17.05904,2.81857 -26.89258,-1.45313 -7.10604,-3.0867 -6.83008,-3.08331 -6.83008,-0.10156 0,1.33882 1.54735,3.89038 3.43946,5.66797 3.31297,3.11323 4.1242,3.22622 21.94335,3.12304 13.66863,-0.0793 18.67141,0.32958 19.14454,1.5625 0.35225,0.91797 -2.24843,4.37113 -5.7793,7.67383 -6.69453,6.26196 -16.35141,10.20508 -24.99024,10.20508 -2.95162,0 -4.42578,0.63593 -4.42578,1.91016 0,5.33756 12.94729,3.96324 29.375,-3.11915 l 11.52539,-4.96874 4.44727,3.71093 c 21.77265,18.17662 70.88687,25.86099 102.53516,16.04102 4.45152,-1.38123 7.393,-1.72871 7.67382,-0.90625 1.37398,4.02365 6.15466,10.15223 10.51563,13.47851 4.08181,3.11335 6.58956,3.87992 14.07226,4.30274 9.8391,0.55597 9.50671,0.2586 11.15821,10.01953 0.47777,2.82384 1.8765,7.24686 3.10742,9.82812 l 2.23828,4.69141 -5.14258,4.44531 c -17.63452,15.24382 -58.45452,20.82833 -87.93945,12.03125 -10.48025,-3.12684 -20.89832,-9.00766 -20.89844,-11.79687 -4e-5,-0.55 2.66322,-1 5.91992,-1 3.25671,0 6.30817,-0.62711 6.78125,-1.39258 1.3301,-2.1521 -1.83767,-5.09441 -7.02734,-6.52734 -7.0484,-1.94616 -12.60742,0.87457 -16.15039,8.19336 -3.61603,7.4697 -3.91755,16.12525 -0.53906,15.4746 1.27491,-0.2455 2.50943,-1.63943 2.74414,-3.09765 0.95066,-5.9068 1.41175,-6.02306 7.51172,-1.90625 5.77069,3.89461 18.0301,8.69729 32.09179,12.57422 7.93576,2.18797 41.10107,2.59515 50,0.61328 11.53142,-2.56815 27.03399,-9.63166 31.91797,-14.54297 l 4.75,-4.77539 10.11524,4.35742 c 12.85829,5.53916 22.55122,6.54276 37.55273,3.89063 22.72021,-4.01673 42.97108,-18.27669 52.32031,-36.8418 2.5358,-5.03543 5.32361,-9.59599 6.19532,-10.13477 0.93932,-0.58053 2.89022,0.53855 4.78906,2.7461 2.11139,2.4545 3.65471,3.27497 4.52344,2.40625 2.20932,-2.20933 -0.19045,-8.11914 -5.01758,-12.35742 -3.71188,-3.25905 -5.75531,-4.01122 -10.85938,-3.9961 -8.70909,0.0253 -12.50082,1.22469 -12.00586,3.79492 0.35709,1.85416 2.66339,2.99697 10.14258,5.0293 1.31713,0.35792 0.9865,1.84523 -1.32226,5.95313 -7.20904,12.82673 -24.17766,27.67586 -36.625,32.05078 -9.31091,3.2725 -24.6387,5.11251 -32.56641,3.9082 -13.67138,-2.07685 -26.95191,-12.76553 -31.14258,-25.06445 -1.15506,-3.38997 -2.09961,-6.85518 -2.09961,-7.69922 0,-0.84401 2.93109,-2.90704 6.51563,-4.58594 11.77194,-5.51369 18.8164,-14.97169 18.8164,-25.26172 0,-6.03492 -1.00307,-5.48506 17.15821,-9.40039 16.4513,-3.54671 38.43015,-14.20164 47.02929,-22.80078 7.61609,-7.61609 10.08228,-12.2399 12.2461,-22.95898 l 1.67773,-8.31641 13.94531,-0.78516 c 19.59024,-1.10445 33.27735,-4.92834 33.27735,-9.29687 0,-3.82394 -2.14109,-4.20429 -7.5,-1.33203 -8.47644,4.54288 -17.92445,6.01431 -27.94727,4.35351 -8.25823,-1.36845 -14.60629,-4.6941 -13.22461,-6.92968 0.32935,-0.53292 3.34797,-1.346 6.70899,-1.80665 7.92638,-1.08646 22.5731,-9.67222 29.71289,-17.41796 6.03958,-6.55216 6.48939,-7.70593 3.85937,-9.88868 -1.30858,-1.08602 -3.87119,0.61381 -10.63476,7.05274 -8.73729,8.31798 -16.35158,12.21702 -24.97461,12.79101 -5.69681,0.37924 -6.40914,0.0344 -7.66016,-3.71875 -1.14383,-3.4315 -0.64403,-4.08807 8.47461,-11.13476 5.32932,-4.1184 11.14612,-9.22742 12.92578,-11.35352 4.36524,-5.21496 10.54624,-17.65828 9.5625,-19.25 -1.78189,-2.88317 -4.43957,-0.71167 -13.21484,10.79492 -8.18457,10.73203 -17.28965,18.58985 -21.54102,18.58985 -0.67015,0 -2.71674,-2.82991 -4.54883,-6.28711 -5.0022,-9.43936 -16.40114,-23.41076 -22.26757,-27.29297 -14.0726,-9.3128 -29.52356,-14.48939 -42.03321,-14.16992 z m -168.59765,1.5625 c -0.6812,0.0199 -1.29427,0.0832 -1.80469,0.19531 -4.03964,0.88727 -11.87052,8.65162 -15.04102,14.91211 -2.34002,4.62073 -3.93638,12.95423 -2.71484,14.17578 1.68714,1.68715 4.542,0.91433 5.2832,-1.42969 4.31721,-13.65224 9.59011,-19.48908 19.64063,-21.73828 4.14569,-0.92775 7.53711,-2.16748 7.53711,-2.75586 0,-1.55362 -8.132,-3.49843 -12.90039,-3.35937 z m 168.73437,5.53711 c 2.43662,-0.009 5.14699,0.22147 8.25391,0.66211 30.71614,4.35633 53.45652,30.57306 58.50586,67.45117 2.07775,15.17512 -0.33202,26.65847 -7.59571,36.20117 -7.12822,9.36473 -27.466,19.80192 -50.33203,25.83008 -5.13335,1.3533 -9.93267,2.43466 -10.66601,2.4082 -0.73334,-0.028 -2.79425,-1.89627 -4.58008,-4.15234 -3.99209,-5.04333 -12.39484,-9.01576 -19.1543,-9.05469 -4.46056,-0.0258 -5.28806,-0.55567 -6.90429,-4.42383 -1.01001,-2.41719 -2.8552,-9.41908 -4.09961,-15.56054 -2.92536,-14.43723 -2.11909,-50.0411 1.39062,-61.37891 3.56066,-11.50238 11.10837,-24.77228 17.37305,-30.54688 5.65631,-5.21378 10.49874,-7.40802 17.80859,-7.43554 z m -518.63282,8.91797 c 8.751,-0.18862 19.23221,1.2597 31.48243,4.33984 16.23383,4.08176 28.47993,10.09641 43.47656,21.35156 19.20034,14.41008 29.13202,32.51473 33.23829,60.59766 2.15326,14.72629 0.97197,35.52542 -2.67383,47.10937 -1.55792,4.95001 -3.25875,8.96295 -3.7793,8.91797 -0.52052,-0.0448 -2.96469,-2.12765 -5.43359,-4.6289 -5.70221,-5.77686 -14.92837,-9.20621 -30.42578,-11.3125 -12.20123,-1.65831 -12.26774,-1.65214 -18.23633,1.8457 -3.29496,1.93096 -6.26475,3.51172 -6.59961,3.51172 -0.33494,0 -1.03784,-3.4513 -1.56055,-7.66797 -1.18692,-9.57502 -3.06594,-14.13894 -9.24414,-22.44336 -11.10712,-14.92951 -17.77326,-22.39514 -23.44535,-26.25781 -25.7209,-17.51628 -39.7062,-30.90695 -41.8867,-40.10742 -1.417,-5.97887 4.0035,-20.56007 9.8164,-26.40625 5.6265,-5.65864 14.0202,-8.60711 25.2715,-8.84961 z m 390.98829,22.40625 c 7.14437,0.067 14.01476,1.63409 19.53516,4.63867 7.60501,4.13917 22.17754,18.21798 28.44922,27.48633 13.46717,19.90179 26.33792,45.37608 28.32421,56.06054 0.84416,4.54084 0.53873,5.15231 -4.65234,9.26367 -3.45086,2.73313 -6.70698,7.00177 -8.5918,11.26368 l -3.03515,6.86132 -14.44336,2.87696 c -27.51111,5.47922 -53.57806,2.74072 -74.60742,-7.83985 -19.97209,-10.04863 -22.80636,-15.50773 -21.29493,-41.01757 1.7195,-29.02127 6.50308,-43.64872 18.70899,-57.22461 5.0044,-5.56612 7.80509,-7.39863 14.94726,-9.77539 5.38014,-1.7904 11.10343,-2.64588 16.66016,-2.59375 z m 122.66406,32.17382 c -9.66209,0.0685 -15.56124,8.24612 -15.28515,22.48438 0.19188,9.90028 2.62786,16.52154 8.5664,23.28516 3.7146,4.23069 4.83451,4.71484 10.87696,4.71484 5.10841,0 7.77936,-0.79426 11.05273,-3.29102 11.86503,-9.04989 7.6223,-39.74356 -6.26172,-45.29882 -3.24248,-1.29739 -6.24383,-1.91371 -8.94922,-1.89454 z m 1.84766,4.15625 c 3.20759,-0.098 6.18136,1.39193 7.17578,4.03321 0.61346,1.62954 1.86506,7.18256 2.78125,12.33984 1.56155,8.78997 1.47719,9.81091 -1.32812,16.33203 -3.33498,7.75242 -5.89931,8.73972 -10.28125,3.95703 -3.16169,-3.45082 -8.21841,-13.11324 -9.86133,-18.84179 -1.46619,-5.11234 2.40866,-14.13221 7.1582,-16.66211 1.3913,-0.74111 2.89747,-1.11367 4.35547,-1.15821 z m -0.006,6.51563 c -1.25414,0.0276 -2.63629,0.8973 -3.95313,2.77734 -2.67982,3.82617 -2.64412,8.27784 0.0899,11.01172 1.19138,1.19142 3.4414,1.98396 5,1.76172 2.21499,-0.31601 2.92326,-1.48369 3.24414,-5.34766 0.51932,-6.25468 -1.62175,-10.26374 -4.38086,-10.20312 z m -96.71289,9.14648 c -5.99346,0 -10.25717,3.10965 -15.85352,11.5586 -3.58068,5.40586 -4.1289,7.41367 -4.1289,15.13086 0,11.6934 6.13209,24.71086 13.33398,28.30859 2.56664,1.28221 5.8882,2.33286 7.38281,2.33398 4.77158,0.004 14.49052,-5.84409 17.72852,-10.66601 2.83298,-4.21909 3.08498,-5.81692 2.62891,-16.66602 -0.40494,-9.63371 -1.15167,-13.17183 -3.78907,-17.94726 -4.10853,-7.43925 -10.73074,-12.05274 -17.30273,-12.05274 z m 0.10156,6.53907 c 2.96009,0.0678 5.95698,1.38871 8.4082,3.94726 9.20845,9.61142 9.11517,28.56326 -0.19335,39.17969 -2.2777,2.59771 -2.79293,2.63394 -10.11524,0.69531 -7.67138,-2.031 -10.59382,-9.37187 -9.97851,-25.06836 0.40165,-10.24603 0.87417,-12.18814 3.69336,-15.1875 2.30253,-2.4497 5.22545,-3.63418 8.18554,-3.5664 z m 0.8086,6.84765 c -1.12943,0.0137 -2.26466,0.51857 -3.29297,1.54688 -1.96411,1.96426 -2.09174,9.65457 -0.21875,13.15429 h -0.002 c 1.69217,3.16177 4.93616,3.3102 8.18164,0.37305 2.97185,-2.68947 3.09147,-5.99696 0.4043,-11.19336 -1.32458,-2.56148 -3.18988,-3.90372 -5.07226,-3.88086 z m 67.24218,28.0293 c 3.49184,0.0461 7.35483,0.69668 11.86524,1.89062 8.62718,2.28367 12.01114,5.81915 11.9707,12.50782 -0.0643,10.64368 -10.523,23.87894 -21.2168,26.84961 -5.61207,1.55909 -9.37516,1.50781 -17.17773,-0.23633 -4.80019,-1.07297 -6.40632,-2.31117 -9.66602,-7.45117 -5.92739,-9.34659 -4.83358,-16.70251 3.63672,-24.43164 7.02069,-6.40637 12.90585,-9.23031 20.58789,-9.12891 z m -423.57226,19.92578 c 12.9222,0.0177 21.02793,4.96713 26.66797,16.28516 4.55701,9.14517 4.5432,17.46757 -0.0449,27.45898 -3.14743,6.85395 -6.17165,14.20899 -14.08398,34.24805 -4.84067,12.25969 -11.99037,27.78525 -25.32812,55 -7.2779,14.85003 -13.35538,26.98361 -13.50391,26.96094 -0.14857,-0.0215 -2.187,-1.78473 -4.53125,-3.91797 -8.2049,-7.46638 -23.67631,-9.00036 -33.59571,-3.33008 -3.2217,1.84165 -6.1124,3.09463 -6.4238,2.7832 -1.3681,-1.36811 11.1096,-36.33379 24.32615,-68.16406 12.423,-29.91908 15.36249,-37.84695 17.43945,-47.05273 3.38952,-15.02329 6.15389,-24.07647 8.5625,-28.03711 3.64332,-5.99097 14.12906,-12.24194 20.51563,-12.23438 z m 463.06445,80.08594 c -2.31943,-0.0935 -5.03365,0.72485 -7.42187,2.42383 -6.2857,4.47159 -17.49797,7.07541 -31.87696,7.40234 -7.51903,0.17099 -14.05462,0.6933 -14.52344,1.16211 -0.4688,0.46885 -0.0425,1.82889 0.94727,3.02148 1.55187,1.86974 4.5606,2.09983 21.85742,1.66602 18.36265,-0.46054 20.70623,-0.80484 27.74024,-4.07031 8.17357,-3.7945 10.3031,-6.50397 7.63672,-9.7168 -0.98944,-1.19219 -2.55538,-1.81592 -4.35938,-1.88867 z m 18.34961,24.61719 c 1.56057,-0.0517 2.79276,6.16438 4.61328,23.29101 1.86319,17.52839 8.53577,36.95317 21.42774,62.37695 9.22231,18.18702 11.4824,24.03111 15.39062,39.80274 7.24093,29.22081 6.58137,44.08366 -3.53125,79.63476 -7.39245,25.98845 -11.56052,35.18333 -27.33789,60.29493 -22.39982,35.65202 -33.17959,49.89062 -37.77148,49.89062 -3.89133,0 -8.00178,-5.78432 -9.41797,-13.25195 -3.23226,-17.04367 0.22197,-50.56314 7.29101,-70.74805 1.9262,-5.50001 5.30841,-17.20001 7.51758,-26 2.20921,-8.79999 5.42097,-20.80127 7.13672,-26.66797 1.71579,-5.86666 4.33705,-15.91031 5.82422,-22.32031 1.4872,-6.41 4.91332,-16.19008 7.61523,-21.73242 2.70191,-5.54234 4.59351,-10.39669 4.20313,-10.78711 -1.25885,-1.25881 -5.53118,1.88182 -8.27149,6.08008 -1.46664,2.247 -3.04165,4.08719 -3.5,4.08984 -0.99137,0.005 -2.5,-6.9897 -2.5,-11.58984 0,-2.56086 -0.60251,-3.1669 -2.81054,-2.83203 -2.71866,0.41219 -2.80416,1.05632 -2.63672,19.75976 0.21585,24.1338 -2.96355,41.99124 -11.78516,66.18555 -2.10179,5.76442 -6.9558,22.15271 -10.78711,36.41797 -6.80213,25.32665 -6.95219,26.26769 -6.29883,40 0.4382,9.20908 1.68629,17.24053 3.61329,23.27148 3.42178,10.70914 3.02784,12.2754 -5.38868,21.40625 -7.21084,7.82287 -17.48168,11.84605 -28.29101,11.08399 -12.84412,-0.90558 -13.37829,-1.9923 -13.76758,-27.98438 -0.32043,-21.39326 -0.85416,-25.59074 -8.51367,-67.04883 -1.49035,-8.06668 -3.3406,-24.86537 -4.11328,-37.33203 -2.11393,-34.10687 0.26179,-59.89046 6.67773,-72.4668 1.52311,-2.98548 2.76953,-6.35125 2.76953,-7.48046 0,-4.09482 -3.77052,-1.91861 -6.41211,3.70117 -13.94067,29.6575 -14.23383,89.27823 -0.6914,140.70898 3.64395,13.83893 4.95059,21.79859 5.44921,33.20313 0.69597,15.91842 0.36932,16.71816 -5.39257,13.1914 -1.62422,-0.99416 -7.15376,-2.88088 -12.28711,-4.19336 -5.13332,-1.31251 -9.53199,-2.54842 -9.77539,-2.74609 -0.24325,-0.19774 2.30609,-5.89054 5.66601,-12.65234 4.48275,-9.02143 6.10938,-13.86562 6.10938,-18.19336 0,-3.92444 -0.488,-5.59695 -1.45703,-4.99805 -0.801,0.49504 -4.66487,7.72925 -8.58594,16.07422 -5.17697,11.01781 -9.06259,17.21768 -14.19141,22.64062 -8.26673,8.74084 -11.37922,10.54079 -22.80859,13.19141 -7.49023,1.7356 -9.91835,1.73176 -20.79492,-0.0273 -6.77337,-1.09554 -16.47054,-3.44254 -21.54883,-5.2168 -12.54437,-4.38274 -14.42302,-1.30937 -2.27539,3.72266 l 5.0039,2.07226 -5.24609,7.49219 c -5.09658,7.27559 -8.0957,16.42847 -8.0957,24.70703 0,2.16389 -0.45001,3.91122 -1,3.88477 -0.55,-0.0274 -7.98299,-3.64073 -16.51758,-8.03125 -22.11545,-11.37702 -26.84788,-16.85809 -27.04102,-31.31055 -0.16539,-12.36892 5.49075,-19.06517 16.81641,-19.91016 l 5.74219,-0.42969 -0.44532,-26.46679 c -0.8878,-52.70241 5.98574,-73.10967 35.53126,-105.48242 9.1865,-10.06553 13.04718,-13.22798 20.88085,-17.09961 17.01861,-8.411 34.38893,-8.53383 50.41602,-0.35742 2.86503,1.4616 5.50473,2.3605 5.86719,1.99804 1.8709,-1.87086 -1.74845,-6.21515 -7.94336,-9.5332 -3.83498,-2.05406 -7.21131,-3.9303 -7.50196,-4.16992 -0.29067,-0.23947 3.77076,-4.96235 9.0254,-10.49414 5.25467,-5.5318 12.30882,-13.79295 15.67578,-18.35938 11.68369,-15.84582 25.71803,-48.0459 29.76953,-68.30273 1.96131,-9.80633 6.83374,-30.54322 7.2832,-30.99805 0.46651,-0.4721 70.69939,-12.86903 73.41797,-12.95898 z m -532.81055,56.27343 c 1.46668,-0.0409 2.9639,0.0925 4.51953,0.39063 9.7818,1.87479 16.98047,6.33607 16.98047,10.52148 0,1.1822 -3.82611,13.83756 -8.50195,28.125 -4.67588,14.28745 -9.73617,32.27852 -11.24609,39.97852 -4.73567,24.15031 -7.12737,38.99594 -7.89837,49.04101 -0.4099,5.33991 -1.156,9.96396 -1.6602,10.27539 -0.5041,0.31159 -3.3173,-0.61931 -6.25,-2.07031 -2.9327,-1.451 -9.2548,-3.00544 -14.0488,-3.45312 -7.7756,-0.72609 -9.5616,-0.40473 -16.5547,2.96679 -4.3115,2.07871 -8.2899,4.00743 -8.8398,4.28711 -3.5214,1.79021 1.4406,-24.69348 10.914,-58.25976 2.8128,-9.9662 7.7017,-28.32045 10.8653,-40.78711 5.6933,-22.43637 5.8186,-22.73842 12.3027,-29.6211 7.2967,-7.74524 13.0624,-11.21719 19.41791,-11.39453 z m 584.02539,80.06641 8.13282,7.14062 c 17.21593,15.11585 22.6323,31.18852 22.61718,67.14063 -0.007,19.05577 -1.16391,24.79423 -7.64062,37.94922 -2.81696,5.72156 -8.08704,13.34227 -12.40625,17.9375 -8.8097,9.3727 -8.33132,9.69542 -13.98047,-9.38477 -4.50244,-15.20715 -4.77704,-35.81798 -0.74609,-55.83398 4.40296,-21.86328 5.89728,-37.58741 4.92382,-51.8086 z m -609.3359,60.40234 c 2.1471,0.025 4.2056,0.46758 7.1426,1.28321 8.3678,2.32388 11.3773,6.07787 14.3691,17.92578 5.7069,22.59987 23.2901,40.79678 51.99998,53.81445 4.77056,2.16306 12.56476,4.6783 17.32032,5.58984 4.75555,0.91155 8.80296,1.77719 8.99609,1.92383 0.19295,0.14665 -0.55638,2.44002 -1.66601,5.09571 -4.29018,10.26788 -1.20703,24.91646 7.27343,34.55078 l 5.30469,6.02539 -4.96484,0.82031 c -11.14118,1.84176 -35.04126,-0.0346 -47.63086,-3.74023 -47.0504,-13.84865 -66.6101,-29.61616 -78.6113,-63.36719 -3.5321,-9.93328 -7.3657,-30.90164 -7.3809,-40.3711 -0.012,-7.49748 6.9798,-14.6618 17.0743,-17.49414 5.1053,-1.43248 8.0128,-2.08882 10.7734,-2.05664 z m 245.6484,23.87891 c 0.67314,0 -1.14585,2.99894 -4.04296,6.66406 -9.32735,11.79995 -15.2448,33.40241 -12.31446,44.95703 2.74643,10.82967 3.14556,10.21299 -7.8125,12.12891 -15.92065,2.78355 -25.85223,6.30717 -49.33398,17.50977 -12.10001,5.77261 -27.3288,12.35183 -33.8418,14.61914 -6.51299,2.2673 -12.21232,4.0909 -12.66602,4.05273 -3.14293,-0.26472 -14.87972,-5.78082 -16.78906,-7.89063 -3.78323,-4.18037 -4.3398,-18.26143 -0.97851,-24.77734 4.45655,-8.63913 11.80651,-14.43825 23.60937,-18.63281 12.47195,-4.43237 43.39336,-18.88066 53.97656,-25.2207 4.04565,-2.42359 10.65613,-5.47375 14.68946,-6.77735 4.03332,-1.30356 11.75223,-4.37646 17.15234,-6.82812 9.09018,-4.12694 25.50705,-9.80469 28.35156,-9.80469 z m 17.17383,0.27344 c 14.0621,0.64415 40.50125,20.91888 52.98047,42.17383 2.57238,4.38125 3.66387,8.70403 4.50977,17.87109 0.61372,6.6508 1.44517,13.13037 1.84765,14.39844 0.5678,1.78904 -0.29335,2.49837 -3.84179,3.16406 -2.51509,0.47183 -6.75869,2.34035 -9.43165,4.1543 -2.67298,1.81394 -5.58465,3.25156 -6.46874,3.19335 -0.88411,-0.0583 -4.90614,-2.21167 -8.93946,-4.78515 -10.82438,-6.90652 -22.29853,-11.92843 -31.33398,-13.71289 -16.88175,-3.33407 -17.57041,-3.66418 -20.60352,-9.92969 -4.37971,-9.04732 -4.87215,-17.66022 -1.62304,-28.33398 2.93377,-9.63795 12.58691,-24.47257 17.71093,-27.21485 1.42685,-0.76362 3.18449,-1.07053 5.19336,-0.97851 z m 331.14453,13.16015 c 0.0245,9.6e-4 0.0447,0.0108 0.0625,0.0293 0.28434,0.29594 1.50126,5.82093 2.70508,12.27734 1.20382,6.45638 4.8639,19.27733 8.13281,28.49219 3.26892,9.21487 5.94336,18.69475 5.94336,21.06641 0,5.53617 -4.72155,10.7032 -11.50195,12.58594 -8.09635,2.24805 -24.44417,1.89105 -25.20703,-0.55079 -0.34367,-1.10003 -0.96418,-3.05064 -1.37891,-4.33398 -0.41473,-1.28334 -1.62065,-7.30832 -2.68164,-13.38867 l -1.92969,-11.05469 10.6211,-17.83789 c 5.84148,-9.81124 11.55726,-20.07874 12.70117,-22.81641 1.07235,-2.56659 2.16643,-4.48308 2.5332,-4.46875 z m -48.60351,41.54688 c -1.64672,0.0449 -3.45042,0.33331 -5.29102,0.88476 -8.69741,2.6058 -12.01204,10.71651 -6.59375,16.13477 3.59176,3.5918 8.21672,3.36091 11.93555,-0.59766 3.48563,-3.71025 2.87257,-7.40234 -1.22852,-7.40234 -1.4897,0 -2.70703,-0.53458 -2.70703,-1.18945 0,-1.61862 3.41842,-2.81055 8.06641,-2.81055 2.88332,0 3.6544,-0.50291 3.07617,-2.00977 -0.77916,-2.03048 -3.63504,-3.10854 -7.25781,-3.00976 z m 15.17383,15.875 c 1.4737,-0.0739 2.01321,3.26052 2.94531,10.7207 0.79385,6.35384 0.44826,8.26763 -2.56641,14.2168 -1.91592,3.78089 -3.62409,6.85055 -3.79492,6.82031 -0.74842,-0.13179 -16.35464,-6.93688 -16.74805,-7.30273 -0.24034,-0.2236 1.57963,-2.71018 4.04297,-5.52539 2.46335,-2.81522 7.12583,-8.62324 10.36133,-12.90821 2.9024,-3.84376 4.61355,-5.96402 5.75977,-6.02148 z m 59.43359,4.47851 h 15.75391 c 17.59613,0 31.90068,3.38603 38.58398,9.13477 5.92116,5.09318 3.85178,15.19875 -3.5957,17.5625 -1.66885,0.52966 -3.81389,-0.762 -6.95313,-4.1875 -3.08659,-3.36805 -5.24472,-4.68086 -6.74414,-4.10547 -2.7973,1.07339 -2.86447,6.7216 -0.10742,9.00977 3.44107,2.85581 7.33306,11.67331 8.13281,18.42578 0.84926,7.17078 -2.61599,15.74596 -7.8418,19.40625 -3.2994,2.31099 -12.43974,2.7622 -17.43945,0.86133 -2.9712,-1.12967 -3.2807,-2.10916 -3.92383,-12.41797 -0.87639,-14.04764 -5.21402,-23.44357 -8.42382,-18.25 -0.48904,0.79124 -0.1554,4.05499 0.74023,7.2539 1.3556,4.8418 1.26006,7.4711 -0.56836,15.68946 -2.34542,10.54219 -5.89898,15.44323 -13.19336,18.19921 -4.30628,1.62766 -18.96601,1.64271 -27.12109,0.0293 -6.34844,-1.25601 -15.19076,-5.4778 -17.63086,-8.41797 -1.33788,-1.61204 -1.25627,-2.78607 0.42187,-6.03125 1.21546,-2.35045 2.08399,-7.389 2.08399,-12.09179 0,-7.34136 -0.4167,-8.52505 -4.66602,-13.22852 -2.56668,-2.84099 -4.66797,-6.20294 -4.66797,-7.4707 0,-1.26781 2.04653,-4.34923 4.54688,-6.84961 4.12928,-4.12929 4.89412,-4.41194 8.33398,-3.08203 5.13816,1.98644 21.01521,0.34144 27.20899,-2.81836 2.69435,-1.37458 7.63726,-5.67705 10.98437,-9.56055 z m -185.12305,19.44336 c 1.16912,0.021 2.65029,0.39734 4.97461,1.00977 3.47668,0.91604 10.04386,3.39337 14.5918,5.50586 8.03917,3.73421 8.2379,3.95033 7.14648,7.75586 -0.61742,2.15285 -1.84025,5.2528 -2.71679,6.89062 l -1.59375,2.97852 -2.9043,-2.72852 c -4.02059,-3.77714 -11.87566,-6.85547 -17.49219,-6.85547 -7.52266,0 -5.94719,3.47347 2.83008,6.24024 4.14652,1.30707 9.22785,4.06378 11.29102,6.12695 l 3.75,3.75195 -2.70508,6.86329 c -1.92609,4.88655 -2.62087,9.41547 -2.41602,15.73242 0.15825,4.87914 -0.14052,9.565 -0.66406,10.41211 -1.12834,1.8257 -9.96903,2.02096 -12.71875,0.28125 -1.56918,-0.99281 -1.6313,-1.86168 -0.33399,-4.70899 2.08937,-4.58566 2.01052,-6.80165 -0.54882,-15.41992 -2.64246,-8.89814 -11.36416,-18.57148 -14.44141,-16.01758 -1.61847,1.34321 -1.30912,2.42877 2.04102,7.18164 5.50767,7.8138 8.1171,16.89148 6.04882,21.04102 -2.70069,5.41825 -8.14716,7.04587 -22.45898,6.71289 -13.37945,-0.31132 -27.56245,-3.29635 -41.03125,-8.63281 -8.25332,-3.27005 -10.79767,-6.95342 -11.66016,-16.88477 -0.6342,-7.30242 2.4307,-13.53384 9.45704,-19.2207 l 4.86914,-3.93946 7.10937,2.24024 c 18.58314,5.85781 39.0522,0.95207 53.88477,-12.91211 2.66305,-2.48917 3.74287,-3.43931 5.6914,-3.4043 z m 92.08985,6.29493 c 0.59579,0.017 1.25871,0.0571 2.01367,0.10351 9.244,0.56848 20.59344,3.89345 25.14062,7.36523 10.01001,7.64259 12.71875,11.06084 12.71875,16.04883 0,5.09586 -3.7327,13.75574 -7.15234,16.59375 -1.69123,1.40364 -2.36166,1.00243 -4.17383,-2.50195 -2.92407,-5.65451 -11.22214,-14.68164 -13.49609,-14.68164 -2.7882,0 -2.23692,1.63895 1.84765,5.49414 5.60501,5.2902 10.97461,16.90676 10.97461,23.74219 0,7.47636 -5.07314,16.44768 -10.59375,18.73437 -2.42861,1.00611 -5.94515,1.30966 -8.85547,0.76367 -4.37132,-0.82004 -4.76287,-1.2447 -4.13671,-4.48632 0.82964,-4.29525 -1.42617,-17.5593 -3.39258,-19.94532 -2.27369,-2.75879 -3.04292,-0.56293 -2.61719,7.47461 0.6325,11.94138 -3.32559,18.34742 -14.93555,24.17383 -14.84296,7.44888 -26.8567,6.86237 -41.93554,-2.04492 -4.98282,-2.94342 -9.72615,-12.06749 -12.27344,-23.60938 -1.87412,-8.49176 -1.01238,-14.47205 3.98828,-27.66796 4.40912,-11.63498 4.508,-11.70347 9.94727,-6.92774 11.95566,10.49722 33.1618,5.48142 46.42382,-10.98047 5.4945,-6.82024 6.33725,-7.76747 10.50782,-7.64843 z"
         transform="scale(0.26458333)" />
      <path
         style="opacity:1;fill:#f9f9f9;fill-opacity:1;stroke:#f9f9f9;stroke-width:2.46347;stroke-miterlimit:4;stroke-dasharray:none;stroke-dashoffset:0;stroke-opacity:1;paint-order:stroke fill markers"
         d="m -591.59461,415.49108 c -1.18432,-0.55136 -2.03477,-1.63484 -2.69995,-3.43975 -0.43962,-1.19287 -0.51052,-1.88328 -0.52531,-5.11553 -0.019,-4.16023 0.16099,-5.00969 1.34843,-6.3621 0.79814,-0.90903 2.26598,-1.68456 3.18837,-1.68456 1.83966,0 3.79915,1.77847 5.26342,4.77719 2.18246,4.46953 1.9977,7.38154 -0.63176,9.95714 -2.00393,1.96288 -4.23358,2.66353 -5.9432,1.86761 z"
         id="path4820"
         inkscape:connector-curvature="0"
         transform="scale(0.26458333)" />
      <path
         style="opacity:1;fill:#f9f9f9;fill-opacity:1;stroke:#f9f9f9;stroke-width:0.651793;stroke-miterlimit:4;stroke-dasharray:none;stroke-dashoffset:0;stroke-opacity:1;paint-order:stroke fill markers"
         d="m -131.1544,103.5717 c -0.31834,-0.11244 -0.73213,-0.50295 -0.89314,-0.8429 -0.34686,-0.73229 -0.17023,-1.7184 0.44687,-2.49487 0.4224,-0.531514 0.88849,-0.694714 1.28812,-0.451034 0.49718,0.303144 0.73039,0.990494 0.72401,2.133914 -0.005,0.93971 -0.084,1.27478 -0.36561,1.55644 -0.18663,0.18663 -0.2362,0.20412 -0.56601,0.19967 -0.19881,-0.003 -0.48421,-0.0482 -0.63424,-0.10122 z"
         id="path4822"
         inkscape:connector-curvature="0" />
    </g>
  </g>
</svg>
