<?xml version="1.0" encoding="UTF-8" standalone="no"?>
<svg
   viewBox="0 0 400 400"
   version="1.1"
   id="svg45"
   sodipodi:docname="oveja.svg"
   width="400"
   height="400"
   inkscape:version="1.3 (0e150ed6c4, 2023-07-21)"
   xmlns:inkscape="http://www.inkscape.org/namespaces/inkscape"
   xmlns:sodipodi="http://sodipodi.sourceforge.net/DTD/sodipodi-0.dtd"
   xmlns="http://www.w3.org/2000/svg"
   xmlns:svg="http://www.w3.org/2000/svg">
  <sodipodi:namedview
     id="namedview45"
     pagecolor="#ffffff"
     bordercolor="#000000"
     borderopacity="0.25"
     inkscape:showpageshadow="2"
     inkscape:pageopacity="0.0"
     inkscape:pagecheckerboard="0"
     inkscape:deskcolor="#d1d1d1"
     inkscape:zoom="1.4582697"
     inkscape:cx="152.57809"
     inkscape:cy="182.06509"
     inkscape:window-width="1920"
     inkscape:window-height="991"
     inkscape:window-x="-9"
     inkscape:window-y="-9"
     inkscape:window-maximized="1"
     inkscape:current-layer="svg45" />
  <defs
     id="defs11">
    <filter
       id="k"
       x="-0.067734754"
       y="-0.037170726"
       width="1.1354695"
       height="1.0743415">
      <feGaussianBlur
         stdDeviation="1.2495"
         id="feGaussianBlur1" />
    </filter>
    <filter
       id="j"
       x="-0.063090727"
       y="-0.038736199"
       width="1.1261815"
       height="1.0774724">
      <feGaussianBlur
         stdDeviation="2.5113"
         id="feGaussianBlur2" />
    </filter>
    <filter
       id="i"
       x="-0.084354507"
       y="-0.033542705"
       width="1.168709"
       height="1.0670854">
      <feGaussianBlur
         stdDeviation=".9639"
         id="feGaussianBlur3" />
    </filter>
    <filter
       id="h"
       x="-0.043422495"
       y="-0.053655603"
       width="1.086845"
       height="1.1073112">
      <feGaussianBlur
         stdDeviation="4.7787"
         id="feGaussianBlur4" />
    </filter>
    <filter
       id="b"
       x="-0.077866669"
       y="-0.076506151"
       width="1.1557333"
       height="1.1530123">
      <feGaussianBlur
         stdDeviation="1.825"
         id="feGaussianBlur5" />
    </filter>
    <filter
       id="g"
       x="-0.48110687"
       y="-0.21283173"
       width="1.9622137"
       height="1.4256635">
      <feGaussianBlur
         stdDeviation="2.7079"
         id="feGaussianBlur6" />
    </filter>
    <filter
       id="f"
       x="-0.31546715"
       y="-0.12474315"
       width="1.6309343"
       height="1.2494863">
      <feGaussianBlur
         stdDeviation="2.7079"
         id="feGaussianBlur7" />
    </filter>
    <filter
       id="e"
       x="-1.1964852"
       y="-0.16594328"
       width="3.3929703"
       height="1.3318866">
      <feGaussianBlur
         stdDeviation="2.7079"
         id="feGaussianBlur8" />
    </filter>
    <filter
       id="d"
       x="-1.7794672"
       y="-0.23229355"
       width="4.5589344"
       height="1.4645871">
      <feGaussianBlur
         stdDeviation="2.7079"
         id="feGaussianBlur9" />
    </filter>
    <filter
       id="c"
       x="-0.084637683"
       y="-0.10127168"
       width="1.1692754"
       height="1.2025434">
      <feGaussianBlur
         stdDeviation="1.825"
         id="feGaussianBlur10" />
    </filter>
    <filter
       id="a"
       x="-0.026594428"
       y="-0.24598855"
       width="1.0531889"
       height="1.4919771">
      <feGaussianBlur
         stdDeviation="3.027"
         id="feGaussianBlur11" />
    </filter>
  </defs>
  <g
     transform="matrix(1.2516354,0,0,1.2516354,-305.13408,-280.97931)"
     id="g45">
    <path
       transform="translate(84.558,-84.649)"
       d="m 469.55,603.48 a 136.585,14.766541 0 1 1 -273.17,0 136.585,14.766541 0 1 1 273.17,0 z"
       fill="#999999"
       filter="url(#a)"
       id="path11" />
    <path
       transform="translate(210.37,192.27)"
       d="m 147.97,268.38 c -3.0963,2.7899 -6.9206,4.7707 -11.156,5.6562 -8.4936,29.994 -12.259,52.416 -8.5312,53.625 3.8024,1.233 14.229,-19.973 25.188,-50.188 -0.86787,-2.3544 -1.3831,-4.8662 -1.4688,-7.5 -1.3591,-0.50852 -2.7016,-1.0424 -4.0312,-1.5938 z m 142.56,3.6875 c -1.5759,7.6459 -6.7878,13.96 -13.75,17.062 5.1834,23.482 10.553,39.105 13.844,38.594 3.9284,-0.61045 3.6942,-23.998 -0.0937,-55.656 z m -39.406,13.062 c 5.4424,25.68 11.214,43.134 14.688,42.594 3.0819,-0.47891 3.5934,-15.018 1.8438,-36.531 -0.21115,0.005 -0.41254,0.0312 -0.625,0.0312 -6.1146,0 -11.672,-2.325 -15.906,-6.0938 z m -92.25,0.875 c -6.1497,23.826 -8.5262,40.614 -5.3125,41.656 3.1103,1.0086 10.642,-13.023 19.281,-34.688 -5.4446,-0.70835 -10.306,-3.2397 -13.969,-6.9688 z"
       id="path12" />
    <path
       transform="translate(210.37,192.27)"
       d="m 262.41,290.75 c 0.53616,11.506 0.47404,19.885 -0.34375,22.5 0.91392,3.6059 1.7297,5.6242 2.375,5.4688 1.4544,-0.35039 1.6273,-11.463 0.71875,-27.594 -0.9343,-0.0725 -1.8489,-0.19834 -2.75,-0.375 z"
       fill="#999999"
       filter="url(#d)"
       id="path13" />
    <path
       transform="translate(210.37,192.27)"
       d="m 287.62,279.56 c -0.8307,1.3814 -1.8236,2.6614 -2.9062,3.8438 1.7936,15.684 2.0863,27.696 0.625,30.719 1.1924,3.0433 2.283,4.725 3.125,4.5938 2.572,-0.40081 2.118,-17.339 -0.84375,-39.156 z"
       fill="#999999"
       filter="url(#e)"
       id="path14" />
    <path
       transform="translate(210.37,192.27)"
       d="m 147.97,268.38 c -0.44898,0.40455 -0.92765,0.75442 -1.4062,1.125 -5.8671,19.4 -11.913,35.419 -15.906,42.469 -0.57382,4.9954 -0.47613,8.1078 0.53125,8.4688 2.285,0.81877 8.3383,-12.432 14.875,-31.781 1.3183,-5.8103 2.9556,-12.277 4.8438,-19.125 -0.98341,-0.37993 -1.9692,-0.75469 -2.9375,-1.1562 z"
       fill="#999999"
       filter="url(#f)"
       id="path15" />
    <path
       transform="translate(210.37,192.27)"
       d="m 164.41,290.19 c -3.2374,9.8618 -6.2572,17.679 -8.5312,22.031 -0.52934,4.9954 -0.42929,8.1078 0.5,8.4688 1.987,0.7718 7.0625,-10.98 12.688,-28.531 -1.6356,-0.49171 -3.1883,-1.1573 -4.6562,-1.9688 z"
       fill="#999999"
       filter="url(#g)"
       id="path16" />
    <path
       d="m 444.12,255.32 c -8.8362,0 -16.556,4.7937 -20.719,11.906 -4.358,-6.0257 -11.433,-9.9375 -19.438,-9.9375 -9.9371,0 -18.452,6.0458 -22.094,14.656 -4.2962,-6.4744 -11.679,-10.75 -20.031,-10.75 -12.726,0 -23.104,9.9139 -23.906,22.438 -3.3759,-1.8135 -7.2433,-2.8438 -11.344,-2.8438 -13.249,0 -23.969,10.751 -23.969,24 0,1.862 0.19235,3.6662 0.59375,5.4062 -12.848,0.4559 -23.125,11.009 -23.125,23.969 0,7.8822 3.7868,14.877 9.6562,19.25 -12.035,1.2879 -21.406,11.435 -21.406,23.812 0,11.426 7.9915,20.991 18.688,23.406 -3.693,4.2196 -5.9688,9.7333 -5.9688,15.781 0,13.249 10.751,23.969 24,23.969 5.3826,0 10.341,-1.7566 14.344,-4.75 -0.71978,2.2809 -1.125,4.7 -1.125,7.2188 0,13.249 10.751,23.969 24,23.969 6.1821,0 11.809,-2.3545 16.062,-6.1875 1.3296,0.5514 2.6721,1.0852 4.0312,1.5938 0.41899,12.883 10.985,23.219 23.969,23.219 9.9962,0 18.551,-6.1202 22.156,-14.812 3.0664,9.7172 12.144,16.75 22.875,16.75 11.724,0 21.47,-8.3843 23.562,-19.5 3.4061,9.1034 12.177,15.594 22.469,15.594 13.25,0 24,-10.751 24,-24 0,-2.4843 -0.3928,-4.8714 -1.0937,-7.125 3.9904,2.9616 8.9614,4.6875 14.312,4.6875 13.249,0 23.969,-10.751 23.969,-24 0,-6.0353 -2.2271,-11.534 -5.9063,-15.75 10.681,-2.4262 18.656,-11.991 18.656,-23.406 0,-9.2736 -5.2678,-17.32 -12.969,-21.312 8.2232,-3.8046 13.938,-12.125 13.938,-21.781 0,-12.612 -9.7294,-22.91 -22.094,-23.875 0.9856,-2.624 1.5312,-5.4691 1.5312,-8.4375 0,-13.249 -10.751,-23.969 -24,-23.969 -1.862,0 -3.6661,0.19235 -5.4062,0.59375 -0.4559,-12.848 -11.009,-23.125 -23.969,-23.125 -3.8662,0 -7.5156,0.93799 -10.75,2.5625 -2.2138,-10.962 -11.885,-19.219 -23.5,-19.219 z"
       fill="#ffffff"
       id="path17" />
    <path
       transform="matrix(0.98728,0,0,0.95993,3.5911,15.88)"
       d="m 456.25,265.74 c 1.3465,2.1888 2.3264,4.62 2.8549,7.2185 1.1233,-0.56021 2.3116,-1.029 3.5318,-1.4028 -1.7329,-2.3207 -3.8958,-4.3051 -6.3868,-5.8157 z m 32.228,15.548 c 1.972,3.1941 3.1834,6.9139 3.3258,10.901 1.6389,-0.37539 3.3381,-0.55527 5.0918,-0.55527 0.2201,0 0.42893,0.023 0.64751,0.0292 -1.8602,-4.3226 -5.0589,-7.9535 -9.0651,-10.375 z m 27.755,21.129 c 2.0772,3.389 3.267,7.3721 3.267,11.631 0,2.776 -0.51391,5.4367 -1.4422,7.8907 3.1494,0.24419 6.1166,1.1223 8.7708,2.5133 0.12752,-0.96139 0.20602,-1.9272 0.20602,-2.9225 0,-8.0931 -4.3281,-15.173 -10.802,-19.113 z m 19.337,30.189 c 2.091,3.3946 3.2964,7.384 3.2964,11.661 0,9.0304 -5.3819,16.812 -13.127,20.37 3.2799,1.6886 6.0864,4.1364 8.1821,7.1308 7.3855,-3.69 12.479,-11.25 12.479,-20.019 0,-8.1089 -4.34,-15.212 -10.831,-19.142 z m -0.9124,40.272 c 2.0917,3.4009 3.2964,7.4144 3.2964,11.69 0,10.675 -7.5114,19.62 -17.571,21.889 3.4652,3.9429 5.5627,9.0851 5.5627,14.729 0,12.391 -10.096,22.445 -22.575,22.445 -5.0398,0 -9.7217,-1.614 -13.48,-4.3837 0.66012,2.1076 1.0301,4.34 1.0301,6.6632 0,12.391 -10.125,22.445 -22.604,22.445 -4.2932,0 -8.2974,-1.2068 -11.714,-3.2732 3.97,6.4392 11.089,10.755 19.249,10.755 12.479,0 22.604,-10.054 22.604,-22.445 0,-2.3233 -0.37,-4.5557 -1.0301,-6.6632 3.7583,2.7697 8.4401,4.3837 13.48,4.3837 12.479,0 22.575,-10.054 22.575,-22.445 0,-5.6442 -2.0975,-10.786 -5.5627,-14.729 10.06,-2.269 17.571,-11.214 17.571,-21.889 0,-8.1075 -4.3405,-15.229 -10.831,-19.171 z m -252.38,15.255 c 1.2682,2.0603 2.8322,3.9127 4.6797,5.465 0.62013,-0.96157 1.3065,-1.8628 2.0602,-2.7179 -2.418,-0.5421 -4.6844,-1.5029 -6.74,-2.7471 z m 37.232,35.479 c -3.7698,2.7994 -8.4399,4.4422 -13.509,4.4422 -4.3131,0 -8.343,-1.1943 -11.773,-3.2732 3.9724,6.4398 11.141,10.755 19.308,10.755 1.8591,0 3.6591,-0.22506 5.3861,-0.64295 -0.30504,-1.4687 -0.47091,-2.971 -0.47091,-4.5298 0,-2.3555 0.38164,-4.6178 1.0596,-6.7509 z m 36.673,23.38 c -4.0065,3.5846 -9.3056,5.7865 -15.128,5.7865 -4.3131,0 -8.343,-1.1943 -11.773,-3.2732 3.9724,6.4398 11.141,10.755 19.308,10.755 4.8521,0 9.329,-1.5658 13.009,-4.1499 -0.96032,-2.3719 -1.5307,-4.9371 -1.6188,-7.6276 -1.2801,-0.47557 -2.5445,-0.9748 -3.7968,-1.4905 z m 90.975,6.7801 c -1.9706,10.395 -11.15,18.236 -22.192,18.236 -4.2989,0 -8.3238,-1.2062 -11.743,-3.2732 3.9659,6.452 11.105,10.755 19.278,10.755 10.264,0 18.911,-6.7984 21.662,-16.103 -3.1287,-2.5049 -5.5712,-5.8103 -7.0049,-9.6149 z m -43.736,2.5718 c -3.3953,8.129 -11.453,13.853 -20.867,13.853 -4.3028,0 -8.3217,-1.2263 -11.743,-3.3024 3.9658,6.4582 11.107,10.784 19.278,10.784 8.478,0 15.827,-4.655 19.69,-11.515 -2.9123,-2.6313 -5.1427,-5.9975 -6.3573,-9.8195 z"
       fill="#00ffff"
       filter="url(#h)"
       id="path18" />
    <path
       d="m 444.12,253.53 c -8.6375,0 -16.164,4.3717 -20.844,10.906 -4.7266,-5.4178 -11.567,-8.9375 -19.312,-8.9375 -9.6708,0 -18.059,5.3532 -22.469,13.25 -4.7383,-5.6455 -11.727,-9.3438 -19.656,-9.3438 -12.834,0 -23.356,9.4568 -25.312,21.75 -3.0848,-1.3014 -6.388,-2.1562 -9.9375,-2.1562 -14.223,0 -25.781,11.561 -25.781,25.781 0,1.324 0.24793,2.5946 0.4375,3.875 -12.88,1.4302 -22.969,12.248 -22.969,25.5 0,7.1309 2.999,13.514 7.6875,18.188 -11.15,2.8384 -19.438,12.854 -19.438,24.875 0,11.344 7.3887,20.932 17.594,24.375 -2.986,4.2016 -4.875,9.2665 -4.875,14.812 0,14.223 11.592,25.781 25.812,25.781 4.2118,0 8.1703,-1.0505 11.688,-2.8438 -0.16119,1.1496 -0.28125,2.3041 -0.28125,3.5 0,14.223 11.592,25.781 25.812,25.781 6.2304,0 11.888,-2.2924 16.344,-5.9688 0.69382,0.28185 1.3905,0.57266 2.0938,0.84375 1.07,13.249 12.107,23.75 25.625,23.75 9.2841,0 17.43,-4.932 21.969,-12.312 4.2383,8.4482 12.985,14.25 23.062,14.25 10.91,0 20.243,-6.8117 24,-16.406 4.522,7.4619 12.686,12.5 22.031,12.5 14.223,0 25.812,-11.589 25.812,-25.812 0,-1.1661 -0.12809,-2.2839 -0.28125,-3.4062 3.5198,1.778 7.4933,2.7812 11.688,2.7812 14.223,0 25.781,-11.592 25.781,-25.812 0,-5.5239 -1.8485,-10.584 -4.8125,-14.781 10.19,-3.452 17.562,-13.042 17.562,-24.375 0,-8.8474 -4.6304,-16.479 -11.438,-21.125 7.4141,-4.5328 12.406,-12.659 12.406,-21.969 0,-12.795 -9.4164,-23.28 -21.656,-25.281 0.64038,-2.247 1.0938,-4.5823 1.0938,-7.0312 0,-14.223 -11.592,-25.75 -25.812,-25.75 -1.3236,0 -2.595,0.21679 -3.875,0.40625 -1.4302,-12.88 -12.248,-22.938 -25.5,-22.938 -3.4077,0 -6.5879,0.82624 -9.5625,2.0312 -3.0946,-10.777 -12.935,-18.688 -24.688,-18.688 z m 0,3.5938 c 10.761,0 19.672,7.6446 21.719,17.781 a 1.8002,1.8002 0 0 0 2.5938,1.25 c 2.9975,-1.5055 6.3624,-2.375 9.9375,-2.375 12.008,0 21.734,9.4765 22.156,21.375 a 1.8002,1.8002 0 0 0 2.2188,1.6875 c 1.5973,-0.36846 3.262,-0.53125 5,-0.53125 12.279,0 22.188,9.8805 22.188,22.156 0,2.7478 -0.49436,5.3847 -1.4062,7.8125 a 1.8002,1.8002 0 0 0 1.5312,2.4375 c 11.447,0.89382 20.438,10.376 20.438,22.062 0,8.946 -5.2711,16.638 -12.875,20.156 a 1.8002,1.8002 0 0 0 -0.0937,3.2188 c 7.1216,3.6925 12,11.127 12,19.719 0,10.577 -7.3768,19.414 -17.25,21.656 a 1.8002,1.8002 0 0 0 -0.9375,2.9375 c 3.406,3.9032 5.4375,8.97 5.4375,14.562 0,12.279 -9.8805,22.219 -22.156,22.219 -4.9641,0 -9.5653,-1.609 -13.25,-4.3438 a 1.8002,1.8002 0 0 0 -2.7812,1.9688 c 0.65049,2.0915 1,4.2992 1,6.5938 0,12.276 -9.9117,22.219 -22.188,22.219 -9.5352,0 -17.632,-6.021 -20.781,-14.438 a 1.8002,1.8002 0 0 0 -3.4688,0.3125 c -1.9348,10.279 -10.916,18.031 -21.781,18.031 -9.9442,0 -18.322,-6.5174 -21.156,-15.5 a 1.8002,1.8002 0 0 0 -3.375,-0.15625 c -3.3335,8.0377 -11.238,13.719 -20.5,13.719 -12.029,0 -21.799,-9.5688 -22.188,-21.5 a 1.8002,1.8002 0 0 0 -1.1563,-1.625 c -1.3362,-0.49997 -2.6554,-1.0179 -3.9688,-1.5625 a 1.8002,1.8002 0 0 0 -1.9062,0.3125 c -3.9399,3.55 -9.1186,5.75 -14.844,5.75 -12.279,0 -22.188,-9.9118 -22.188,-22.188 0,-2.3257 0.36304,-4.5388 1.0312,-6.6562 a 1.8002,1.8002 0 0 0 -2.8125,-2 c -3.7021,2.7686 -8.259,4.4062 -13.25,4.4062 -12.279,0 -22.188,-9.9118 -22.188,-22.188 0,-5.5964 2.0775,-10.683 5.5,-14.594 a 1.8002,1.8002 0 0 0 -0.9375,-2.9375 c -9.8879,-2.2326 -17.281,-11.07 -17.281,-21.656 0,-11.469 8.6424,-20.839 19.781,-22.031 a 1.8002,1.8002 0 0 0 0.875,-3.2188 c -5.4295,-4.0455 -8.9062,-10.507 -8.9062,-17.812 0,-12.008 9.4765,-21.734 21.375,-22.156 a 1.8002,1.8002 0 0 0 1.6875,-2.2188 c -0.36845,-1.5972 -0.53125,-3.262 -0.53125,-5 0,-12.279 9.8805,-22.188 22.156,-22.188 3.799,0 7.3786,0.94822 10.5,2.625 a 1.8002,1.8002 0 0 0 2.625,-1.4688 c 0.74297,-11.596 10.334,-20.75 22.125,-20.75 7.7381,0 14.558,3.9504 18.531,9.9375 a 1.8002,1.8002 0 0 0 3.1562,-0.28125 c 3.3676,-7.9618 11.231,-13.562 20.438,-13.562 7.4184,0 13.936,3.6116 17.969,9.1875 a 1.8002,1.8002 0 0 0 3.0312,-0.15625 c 3.8509,-6.5796 10.971,-11 19.156,-11 z"
       id="path19" />
    <path
       d="m 458.89,353.85 c 5.3105,24.786 -5.5195,40.505 -24.189,35.11 -18.6695,-5.395 -11.257,-31.396 -16.567,-56.182 -5.31,-24.786 -21.333,-38.971 -2.6635,-33.576 18.6695,5.395 38.11,29.862 43.42,54.648 z"
       fill="#ffe6d5"
       id="path20" />
    <path
       d="m 249.94,352.69 c -6.5429,24.49 3.4877,40.731 22.404,36.276 18.9163,-4.455 12.812,-30.794 19.355,-55.283 6.543,-24.489 23.255,-37.856 4.3387,-33.401 -18.9163,4.455 -39.555,27.919 -46.098,52.409 z"
       fill="#ffe6d5"
       stroke="#000000"
       stroke-linecap="round"
       stroke-linejoin="round"
       stroke-width="4.255"
       id="path21" />
    <path
       d="m 413.47,350.49 c 0,47.59 -26.304,68.169 -58.752,68.169 -32.448,0 -58.752,-20.579 -58.752,-68.169 0,-47.59 26.304,-104.17 58.752,-104.17 32.448,0 58.752,56.579 58.752,104.17 z"
       fill="#ffe6d5"
       id="path22" />
    <path
       d="m 364.9,231.27 c 0,0 18.306,-6.7302 31.739,-1.7116 13.433,5.0186 21.22,21.789 21.22,21.789 -2.7775,1.7958 -2.8906,4.0681 -4.3877,2.2169 -5.5546,-6.8686 -11.996,-12.501 -20.092,-15.826 -6.999,-2.8748 -16.99,6.5851 -23.989,-0.62561 -3.4223,-3.5262 -1.2238,-2.4276 -4.491,-5.8424 z"
       id="path23" />
    <path
       d="m 349.79,259.96 c 0,0 -14.988,-12.481 -29.326,-12.259 -14.338,0.222 -27.3,13.408 -27.3,13.408 2.0142,2.6235 1.3585,4.802 3.3898,3.5603 7.5368,-4.6074 15.494,-7.7526 24.237,-8.1696 7.5578,-0.36046 13.797,11.903 22.809,7.4574 4.4068,-2.174 1.9673,-1.8765 6.1906,-3.9975 z"
       id="path24" />
    <path
       d="m 374.95,257.08 c 17.141,19.213 28.756,54.685 28.756,86.087 0,45.823 -24.748,65.656 -55.278,65.656 -13.983,0 -26.754,-4.1803 -36.489,-13.089 10.081,11.57 24.388,16.94 40.253,16.94 30.53,0 55.278,-19.833 55.278,-65.656 0,-33.651 -13.338,-71.955 -32.52,-89.938 z"
       fill="#ffb380"
       filter="url(#j)"
       id="path25" />
    <path
       d="m 435.71,317.96 c 7.2921,8.9259 13.181,20.861 15.523,32.879 4.1347,21.219 -4.3203,34.662 -18.857,30.043 -1.0585,-0.33634 -1.9919,-0.76796 -2.8468,-1.2841 1.5678,3.0407 3.9053,5.2727 7.5183,6.4207 14.536,4.6188 22.991,-8.8244 18.857,-30.043 -2.826,-14.503 -10.795,-28.894 -20.195,-38.016 z"
       fill="#ffb380"
       filter="url(#i)"
       id="path26" />
    <path
       d="m 295.56,304.43 c -0.87644,0.009 -2.0054,0.19376 -3.3991,0.50274 -2.1593,5.2144 -7.0181,13.714 -9.7562,24.746 -5.4327,21.888 -0.38089,45.426 -16.087,49.408 -4.9083,1.2443 -9.0785,0.68832 -12.351,-1.3406 3.3451,5.9999 9.3954,8.7154 17.333,6.7032 15.707,-3.9818 10.655,-27.52 16.087,-49.408 4.7536,-19.152 15.965,-30.693 8.1734,-30.611 z"
       fill="#ffb380"
       filter="url(#k)"
       id="path27" />
    <path
       transform="translate(254.84,-416.32)"
       d="m 94.982,714.05 a 33.782,27.907 0 1 1 -67.564,0 33.782,27.907 0 1 1 67.564,0 z"
       fill="#ffffff"
       stroke="#000000"
       stroke-linecap="round"
       stroke-linejoin="round"
       stroke-width="3.6"
       id="path28" />
    <path
       transform="translate(243.09,-409.47)"
       d="m 180.17,708.67 a 36.23,36.23 0 1 1 -72.46,0 36.23,36.23 0 1 1 72.46,0 z"
       fill="#ffffff"
       stroke="#000000"
       stroke-linecap="round"
       stroke-linejoin="round"
       stroke-width="3.6"
       id="path29" />
    <path
       d="m 336.29,303.99 c 0,4.4852 -3.636,8.1212 -8.1212,8.1212 -4.4852,0 -8.1212,-3.636 -8.1212,-8.1212 0,-4.4852 3.636,-8.1212 8.1212,-8.1212 4.4852,0 8.1212,3.636 8.1212,8.1212 z"
       fill="#333333"
       id="path30" />
    <path
       d="m 377.64,303.25 c 0,4.4852 -3.636,8.1212 -8.1212,8.1212 -4.4852,0 -8.1212,-3.636 -8.1212,-8.1212 0,-4.4852 3.636,-8.1212 8.1212,-8.1212 4.4852,0 8.1212,3.636 8.1212,8.1212 z"
       fill="#333333"
       id="path31" />
    <path
       d="m 408.55,274.18 c 4.7769,5.6855 7.6654,13.065 7.6654,21.132 0,17.969 -14.302,32.526 -31.958,32.526 -7.9297,0 -15.176,-2.9362 -20.763,-7.8017 5.8632,6.9743 14.567,11.394 24.292,11.394 17.655,0 31.958,-14.557 31.958,-32.526 0,-9.9019 -4.3383,-18.757 -11.195,-24.724 z"
       fill="#00ffff"
       filter="url(#b)"
       id="path32" />
    <path
       d="m 335.95,278.68 c 4.3948,4.2952 7.0522,9.8698 7.0522,15.964 0,13.575 -13.158,24.572 -29.401,24.572 -7.2954,0 -13.962,-2.2182 -19.102,-5.8939 5.3941,5.2688 13.401,8.6076 22.349,8.6076 16.243,0 29.401,-10.997 29.401,-24.572 0,-7.4805 -3.9912,-14.17 -10.299,-18.678 z"
       fill="#00ffff"
       filter="url(#c)"
       id="path33" />
    <path
       d="m 401.76,395.65 c 4.2945,-11.326 0.26152,-21.183 -7.4344,-30.159 6.3381,1.553 16.178,3.6681 14.563,12.829 -1.131,6.661 -3.9285,12.893 -7.1282,17.33 z"
       fill="#ffffff"
       id="path34" />
    <path
       d="m 327.71,385.95 c 7.07,7.1232 15.818,10.406 25.406,10.406 7.0217,0 13.593,-1.7639 19.375,-5.5 l 1.5312,2.625 c -6.2766,4.0204 -13.402,6 -20.906,6 -1.1115,0 -2.2182,-0.039 -3.3125,-0.125 -0.7534,7.1038 -0.27662,13.206 3.625,17.344 l -2.625,2.4688 c -5.0042,-5.3069 -5.3819,-12.673 -4.5625,-20.25 -7.6211,-1.2884 -14.673,-4.7876 -20.562,-10.625 0.67575,-0.78775 1.3579,-1.5629 2.0312,-2.3438 z"
       id="path35" />
    <path
       d="m 389.31,362.41 3.6562,4.25 c 7.4743,8.7172 11.133,17.691 7.0938,28.344 l 3.1562,1.6875 c 3.3763,-4.6818 6.2555,-11.101 7.4375,-18.062 0.46006,-2.6096 0.11065,-4.9379 -0.875,-6.8125 -0.98565,-1.8746 -2.5346,-3.262 -4.25,-4.3125 -3.4308,-2.1011 -7.6379,-2.9798 -10.781,-3.75 l -5.4375,-1.3438 z m 9.4062,6.125 c 1.795,0.55034 3.537,1.2048 4.9375,2.0625 1.3348,0.81747 2.3344,1.7592 2.9375,2.9062 0.6031,1.147 0.87868,2.5292 0.53125,4.5 -0.42,2.4735 -1.1331,4.8722 -1.9688,7.1562 -0.3343,-5.9506 -2.8291,-11.472 -6.4375,-16.625 z"
       id="path36" />
    <path
       d="m 358.34,458.83 a 1.8002,1.8002 0 0 0 -1.2188,0.46875 c -2.8635,2.5801 -6.3908,4.4301 -10.312,5.25 a 1.8002,1.8002 0 0 0 -1.3438,1.25 c -4.2598,15.043 -7.3506,28.192 -8.9062,37.812 -0.77785,4.8104 -1.1662,8.7226 -1.125,11.656 0.0206,1.4668 0.11824,2.6903 0.4375,3.75 0.31926,1.0597 0.93394,2.2084 2.2188,2.625 1.3102,0.42486 2.5126,-0.18074 3.4062,-0.875 0.8936,-0.69426 1.6956,-1.6237 2.5938,-2.8438 1.7963,-2.44 3.8422,-5.9865 6.0938,-10.5 4.5031,-9.027 9.8483,-21.91 15.344,-37.062 a 1.8002,1.8002 0 0 0 0,-1.25 c -0.80413,-2.1815 -1.2645,-4.5009 -1.3438,-6.9375 a 1.8002,1.8002 0 0 0 -1.1875,-1.625 c -1.3362,-0.49997 -2.6554,-1.0179 -3.9688,-1.5625 a 1.8002,1.8002 0 0 0 -0.6875,-0.15625 z m 142.47,3.6875 a 1.8002,1.8002 0 0 0 -1.6562,1.4375 c -1.4571,7.0693 -6.281,12.913 -12.719,15.781 a 1.8002,1.8002 0 0 0 -1.0312,2.0312 c 2.6018,11.787 5.2425,21.632 7.6875,28.531 1.2225,3.4498 2.3737,6.1486 3.5312,8.0938 0.57878,0.97259 1.1514,1.7527 1.8438,2.375 0.6924,0.6223 1.6774,1.1764 2.8125,1 1.354,-0.21041 2.141,-1.2659 2.625,-2.2812 0.484,-1.0153 0.77961,-2.2068 1.0312,-3.6875 0.50328,-2.9614 0.73949,-7.0022 0.71875,-12 -0.0415,-9.9957 -1.0691,-23.811 -2.9688,-39.688 a 1.8002,1.8002 0 0 0 -1.875,-1.5938 z m -142.25,0.15625 c 0.71143,0.28936 1.4349,0.56569 2.1562,0.84375 0.17225,2.1275 0.59344,4.1754 1.25,6.125 -5.39,14.814 -10.655,27.478 -15,36.188 -2.2003,4.4107 -4.1794,7.8352 -5.75,9.9688 -0.77327,1.0504 -1.4584,1.7397 -1.9062,2.0938 -0.14838,-0.52703 -0.26396,-1.4253 -0.28125,-2.6562 -0.0358,-2.5478 0.33448,-6.3357 1.0938,-11.031 1.4877,-9.2004 4.4618,-21.991 8.5625,-36.562 3.6762,-0.95023 7.0235,-2.6328 9.875,-4.9688 z m 141.28,9.2188 c 1.3213,12.512 2.1538,23.78 2.1875,31.906 0.0203,4.8827 -0.18571,8.7902 -0.625,11.375 -0.21212,1.2482 -0.48373,2.1703 -0.71875,2.6875 -0.25661,-0.27127 -0.57566,-0.65195 -0.96875,-1.3125 -0.93678,-1.5742 -2.0709,-4.1414 -3.25,-7.4688 -2.2654,-6.3928 -4.7667,-15.728 -7.25,-26.812 4.4973,-2.3401 8.1678,-5.9531 10.625,-10.375 z m -38.281,3.6875 a 1.8002,1.8002 0 0 0 -1.8125,2.1875 c 2.7308,12.886 5.5274,23.72 8.125,31.344 1.2988,3.812 2.5327,6.7951 3.75,8.9375 0.60867,1.0712 1.1927,1.9473 1.9062,2.625 0.7135,0.6777 1.7388,1.28 2.9375,1.0938 1.0643,-0.16538 1.8162,-0.9174 2.2812,-1.6562 0.465,-0.7388 0.74498,-1.5702 1,-2.5625 0.51003,-1.9845 0.81841,-4.5839 0.96875,-7.8438 0.30067,-6.5197 -0.0276,-15.603 -0.90625,-26.406 a 1.8002,1.8002 0 0 0 -1.8125,-1.6562 c -0.32767,0.009 -0.52679,0.0312 -0.59375,0.0312 -5.6584,0 -10.794,-2.1317 -14.719,-5.625 a 1.8002,1.8002 0 0 0 -1.125,-0.46875 z m -92.312,0.875 a 1.8002,1.8002 0 0 0 -1.75,1.375 c -3.0864,11.958 -5.2096,22.13 -6.1875,29.562 -0.48894,3.7165 -0.70912,6.7561 -0.5625,9.0625 0.0733,1.1532 0.22654,2.118 0.5625,3 0.33596,0.882 0.95537,1.8285 2.0625,2.1875 1.0726,0.34784 2.1342,-0.0113 2.9062,-0.5 0.772,-0.4887 1.4465,-1.1605 2.1562,-2 1.4196,-1.6791 2.9488,-4.085 4.6562,-7.1875 3.4149,-6.205 7.4756,-15.187 11.812,-26.062 a 1.8002,1.8002 0 0 0 -1.4688,-2.4375 c -5.0365,-0.65525 -9.516,-2.9859 -12.906,-6.4375 a 1.8002,1.8002 0 0 0 -1.2812,-0.5625 z m 1.0625,5.0938 c 2.9968,2.3967 6.5322,4.1002 10.406,4.9688 -3.9822,9.8356 -7.7105,18.108 -10.781,23.688 -1.6441,2.9874 -3.1127,5.2485 -4.25,6.5938 -0.44687,0.52857 -0.78101,0.77837 -1.0625,1 -0.10431,-0.37451 -0.23288,-0.83294 -0.28125,-1.5938 -0.11946,-1.879 0.0591,-4.7547 0.53125,-8.3438 0.86212,-6.553 2.7929,-15.765 5.4375,-26.312 z m 94.031,0.0937 c 3.5405,2.1056 7.6285,3.3788 12,3.5625 0.76499,9.9439 1.0537,18.405 0.78125,24.312 -0.14407,3.124 -0.44576,5.5764 -0.84375,7.125 -0.14718,0.57266 -0.30193,0.8689 -0.4375,1.1562 -0.28911,-0.31683 -0.65986,-0.76765 -1.0938,-1.5312 -1.0118,-1.7808 -2.2102,-4.6186 -3.4688,-8.3125 -2.1844,-6.411 -4.5705,-15.701 -6.9375,-26.312 z"
       id="path37" />
    <path
       d="m 328.16,294.06 c -5.458,0 -9.9062,4.4795 -9.9062,9.9375 0,5.458 4.4482,9.9062 9.9062,9.9062 5.458,0 9.9375,-4.4482 9.9375,-9.9062 0,-5.458 -4.4795,-9.9375 -9.9375,-9.9375 z m 0,3.5938 c 3.5124,0 6.3438,2.8313 6.3438,6.3438 0,3.5125 -2.8313,6.3125 -6.3438,6.3125 -3.5125,0 -6.3125,-2.8001 -6.3125,-6.3125 0,-3.5124 2.8001,-6.3438 6.3125,-6.3438 z"
       id="path38" />
    <path
       d="m 369.5,293.34 c -5.458,0 -9.9062,4.4483 -9.9062,9.9062 0,5.4579 4.4482,9.9375 9.9062,9.9375 5.458,0 9.9375,-4.4795 9.9375,-9.9375 0,-5.458 -4.4795,-9.9062 -9.9375,-9.9062 z m 0,3.5938 c 3.5124,0 6.3438,2.8001 6.3438,6.3125 0,3.5124 -2.8313,6.3125 -6.3438,6.3125 -3.5125,0 -6.3125,-2.8001 -6.3125,-6.3125 0,-3.5124 2.8001,-6.3125 6.3125,-6.3125 z"
       id="path39" />
    <path
       d="m 316.03,268.02 c -19.461,0 -35.562,13.129 -35.562,29.719 0,16.59 16.102,29.688 35.562,29.688 19.46,0 35.594,-13.097 35.594,-29.688 0,-16.591 -16.133,-29.719 -35.594,-29.719 z m 0,3.5938 c 17.854,0 32,11.89 32,26.125 0,14.235 -14.146,26.094 -32,26.094 -17.854,0 -31.969,-11.859 -31.969,-26.094 0,-14.235 14.115,-26.125 31.969,-26.125 z"
       id="path40" />
    <path
       d="m 387.03,261.16 c -20.982,0 -38.031,17.049 -38.031,38.031 0,20.982 17.049,38.031 38.031,38.031 20.982,0 38.031,-17.049 38.031,-38.031 0,-20.982 -17.049,-38.031 -38.031,-38.031 z m 0,3.625 c 19.037,0 34.438,15.37 34.438,34.406 0,19.036 -15.401,34.438 -34.438,34.438 -19.037,0 -34.438,-15.401 -34.438,-34.438 0,-19.037 15.401,-34.406 34.438,-34.406 z"
       id="path41" />
    <path
       transform="translate(210.37,192.27)"
       d="m 144.34,52.25 c -14.333,0 -27.138,10.221 -37.25,25.344 1.4096,0.04848 2.7965,0.15683 4.1562,0.34375 9.4847,-13.496 20.999,-22.094 33.094,-22.094 9.8677,0 19.367,5.7276 27.688,15.156 1.4706,-0.18821 2.9485,-0.30609 4.4688,-0.3125 -9.1884,-11.242 -20.131,-18.438 -32.156,-18.438 z m -57.5,76.375 c -1.9858,9.8689 -3.0625,19.895 -3.0625,29.594 0,24.127 6.7062,41.666 17.719,53.156 11.0128,11.49 26.239,16.812 42.844,16.812 16.605,0 31.831,-5.3218 42.844,-16.812 11.013,-11.4902 17.719,-29.03 17.719,-53.156 0,-8.4865 -0.83896,-17.239 -2.375,-25.906 -0.99625,1.0157 -2.0469,1.9506 -3.1562,2.8438 1.2606,7.7457 1.9375,15.527 1.9375,23.062 0,23.463 -6.4675,39.991 -16.719,50.688 -10.2515,10.697 -24.407,15.688 -40.25,15.688 -15.843,0 -29.999,-4.9912 -40.25,-15.688 -10.251,-10.6968 -16.688,-27.224 -16.688,-50.688 0,-9.1237 0.99064,-18.591 2.8125,-27.938 -1.165,-0.49603 -2.2938,-1.0556 -3.375,-1.6562 z"
       id="path42" />
    <path
       transform="translate(210.37,192.27)"
       d="m 212.88,107.81 c -0.038,1.5807 -0.172,3.1319 -0.40625,4.6562 6.183,3.5839 12.339,9.1123 17.688,15.844 7.6609,9.6418 13.707,21.674 16.281,33.688 2.574,12.014 1.1155,21.594 -2.7812,27.25 -3.8967,5.656 -10.05,7.8891 -18.75,5.375 -4.1936,-1.2118 -6.6533,-3.387 -8.4375,-6.5625 -1.7842,-3.1755 -2.755,-7.4326 -3.3125,-12.438 -1.115,-10.01 -0.58285,-22.822 -3.3125,-35.562 -0.95287,-4.4474 -2.2252,-8.5347 -3.5938,-12.25 -0.9642,1.3639 -2.0173,2.6593 -3.1562,3.875 0.98499,2.8933 1.8888,5.9599 2.5938,9.25 2.5808,12.046 2.0452,24.62 3.2188,35.156 0.5868,5.2679 1.601,10.071 3.8438,14.062 2.2428,3.991 5.8586,7.0768 11,8.5625 9.9698,2.881 18.548,-0.0111 23.406,-7.0625 4.858,-7.0514 6.1741,-17.758 3.4375,-30.531 -2.7366,-12.773 -9.0708,-25.332 -17.125,-35.469 -6.1019,-7.6797 -13.185,-13.98 -20.594,-17.844 z"
       id="path43" />
    <path
       transform="translate(210.37,192.27)"
       d="m 72.625,111.31 c -5.7433,3.5094 -11.269,8.306 -16.25,13.969 -8.5509,9.7215 -15.503,21.942 -18.875,34.562 -3.372,12.62 -2.5933,23.371 1.9062,30.656 4.4995,7.285 12.961,10.629 23.062,8.25 5.2092,-1.2269 8.9355,-4.1255 11.375,-8 2.4395,-3.8745 3.7131,-8.6118 4.5625,-13.844 1.6988,-10.464 1.789,-23.067 4.9688,-34.969 1.2482,-4.6719 2.8706,-8.9043 4.5625,-12.719 -1.2904,-0.65911 -2.5202,-1.3952 -3.6875,-2.1875 -1.8165,4.0844 -3.6013,8.6944 -4.9688,13.812 -3.3631,12.588 -3.4797,25.433 -5.0938,35.375 -0.80701,4.9708 -1.9968,9.1677 -3.9375,12.25 -1.9407,3.0823 -4.5011,5.1556 -8.75,6.1562 -8.8149,2.0761 -14.86,-0.49999 -18.469,-6.3438 -3.609,-5.84381 -4.5774,-15.443 -1.4062,-27.312 3.1712,-11.869 9.8042,-23.628 17.938,-32.875 4.5127,-5.1306 9.4876,-9.4775 14.531,-12.688 -0.60992,-1.3208 -1.1054,-2.6855 -1.4688,-4.0938 z"
       id="path44" />
    <path
       transform="matrix(-0.04692,-0.15008,-0.09818,0.05583,437.32,397.66)"
       d="m 359.26,247.85 c 42.123,83.405 -10.414,136.97 -57.727,129.48 90.739,58.618 135.3,-35.196 57.727,-129.48 z"
       id="path45" />
  </g>
</svg>
