<?xml version="1.0" encoding="UTF-8" standalone="no"?>
<svg
   viewBox="0 0 400 400"
   version="1.1"
   id="svg36"
   sodipodi:docname="pollito.svg"
   width="400"
   height="400"
   inkscape:version="1.3 (0e150ed6c4, 2023-07-21)"
   xmlns:inkscape="http://www.inkscape.org/namespaces/inkscape"
   xmlns:sodipodi="http://sodipodi.sourceforge.net/DTD/sodipodi-0.dtd"
   xmlns="http://www.w3.org/2000/svg"
   xmlns:svg="http://www.w3.org/2000/svg">
  <defs
     id="defs36" />
  <sodipodi:namedview
     id="namedview36"
     pagecolor="#ffffff"
     bordercolor="#000000"
     borderopacity="0.25"
     inkscape:showpageshadow="2"
     inkscape:pageopacity="0.0"
     inkscape:pagecheckerboard="0"
     inkscape:deskcolor="#d1d1d1"
     inkscape:zoom="1.5515625"
     inkscape:cx="304.20947"
     inkscape:cy="226.54582"
     inkscape:window-width="1920"
     inkscape:window-height="991"
     inkscape:window-x="-9"
     inkscape:window-y="-9"
     inkscape:window-maximized="1"
     inkscape:current-layer="svg36" />
  <g
     transform="matrix(0.89781718,0,0,1.0310609,297.13462,-1236.1986)"
     id="g26">
    <g
       transform="matrix(0.85241,0,0,0.85241,-325.29,28.941)"
       id="g25">
      <path
         d="m 345.47,1420.8 c -61.285,0 -110.97,48.746 -110.97,108.88 0,0.7203 0.0171,1.4392 0.0312,2.1562 -28.631,4.5472 -57.488,-23.786 -84.5,-30.539 0,0 -76.749,-14.032 -124.91,-55.367 0,0 -10.401,52.996 29.312,163.31 37.687,104.69 92.127,71.187 171.69,54.438 48.928,-10.301 66.154,-25.343 72.188,-35.406 14.308,6.5971 30.301,10.281 47.156,10.281 61.285,0 110.97,-48.746 110.97,-108.88 0,-60.134 -49.684,-108.88 -110.97,-108.88 z"
         fill="#ffff00"
         fill-rule="evenodd"
         opacity="0.99024"
         stroke="#090907"
         stroke-width="5.7217"
         id="path20" />
      <path
         d="m 162.08,1678.9 c -12.371,3.5398 -30.897,-2.1357 -39.808,4.9286 -0.61993,15.493 -10.823,35.966 -2.2239,50.33 7.1506,11.624 8.9032,26.004 17.467,36.698 4.9554,10.278 25.122,13.593 20.346,-2.29 -5.414,-11.217 -10.755,-22.968 -20.043,-31.672 7.9469,8.1727 19.191,27.59 32.042,16.636 5.7032,-10.71 -6.1614,-19.813 -14.614,-24.174 -11.484,-6.9367 9.6703,4.4816 13.972,6.2694 10.584,5.0132 21.622,9.3875 33.249,11.207 10.487,-6.8898 -3.0648,-19.264 -10.671,-22.308 -16.505,-7.9095 -37.687,-1.0775 -52.285,-13.585 -7.7356,-13.556 11.522,-18.156 18.679,-25.045 1.869,-1.9398 3.317,-4.3424 3.8915,-6.996 z"
         fill="#ffcc00"
         stroke="#000000"
         stroke-width="5.7217"
         id="path21" />
      <path
         d="m 229.59,1663.4 c -7.3934,3.0584 -20.528,3.7835 -25.714,8.3046 2.8525,25.943 7.9207,51.887 10.776,77.83 4.771,9.3461 15.735,12.731 24.636,16.901 11.946,4.8136 24.639,8.5361 37.537,8.9803 10.282,-4.6821 -5.1535,-12.862 -9.614,-16.466 -10.07,-6.2191 -21.516,-10.59 -33.173,-12.361 6.8584,2.9334 14.814,4.0475 22.248,5.5383 9.2108,1.0899 19.387,2.6099 28.032,-1.5685 7.4361,-3.503 6.057,-14.328 -0.98249,-17.457 -8.4971,-4.9409 -18.413,-6.6624 -28.055,-7.764 16.878,1.3133 34.011,2.9512 50.83,0.4219 11.389,-5.4978 -5.9419,-12.969 -11.817,-14.49 -20.666,-5.4044 -42.337,0.2621 -61.786,7.632 -8.1995,5.2794 -2.5263,-9.6554 -3.9278,-14.311 l 1.0104,-41.191 z"
         fill="#ffcc00"
         stroke="#000000"
         stroke-width="5.7217"
         id="path22" />
      <path
         d="m 438.22,1555.7 c 0,22.894 -17.234,41.453 -38.492,41.453 -21.258,0 -38.492,-18.559 -38.492,-41.453 0,-22.894 17.234,-41.453 38.492,-41.453 21.258,0 38.492,18.559 38.492,41.453 z"
         fill="#ffffff"
         fill-rule="evenodd"
         opacity="0.99024"
         stroke="#090907"
         stroke-width="5.7217"
         id="path23" />
      <path
         d="m 414.53,1573.5 c 0,8.1765 -5.9655,14.805 -13.324,14.805 -7.3585,0 -13.324,-6.6283 -13.324,-14.805 0,-8.1767 5.9655,-14.805 13.324,-14.805 7.3585,0 13.324,6.6283 13.324,14.805 z"
         fill-rule="evenodd"
         opacity="0.99024"
         id="path24" />
      <path
         d="m 407.5,1620 95.875,18.625 -51.438,-78.375 c -0.18082,0.6078 -0.30872,1.2404 -0.5,1.8438 -1.0808,3.4091 -2.3149,6.7436 -3.7188,10 -1.4039,3.2564 -2.9792,6.4458 -4.6875,9.5312 -1.7083,3.0854 -3.537,6.0726 -5.5312,8.9688 -1.9942,2.8962 -4.1448,5.6864 -6.4062,8.375 -2.2614,2.6886 -4.646,5.2871 -7.1562,7.75 -2.5102,2.4629 -5.1347,4.7811 -7.875,7 -2.7403,2.2189 -5.6107,4.3246 -8.5625,6.2812 z"
         fill="#ffcc00"
         stroke="#000000"
         stroke-width="5.7217"
         id="path25" />
    </g>
    <path
       d="m -153.1,1372.8 c 0,0 5.0546,43.727 -68.969,55.57 -74.0236,11.843 -90.681,-12.891 -90.681,-12.891 0,0 21.922,-35.891 31.672,-30.656 10.435,5.602 -67.801,-41.347 -32.781,-39.36 34.92,1.9817 -5.9219,-44.414 29.609,-32.57 20.458,6.8192 65.021,18.317 95.598,33.063 22.53,10.865 35.551,26.843 35.551,26.843 z"
       fill="#ffff00"
       stroke="#000000"
       stroke-width="4.8772"
       id="path26" />
  </g>
</svg>
